<svg xmlns="http://www.w3.org/2000/svg" xmlns:xlink="http://www.w3.org/1999/xlink" width="73.152mm" height="43.053mm" viewBox="4009.5 3113 288 169.5"><title></title><style type="text/css">
*[layerid="1"] {stroke:#FF0000;fill:#FF0000;}
*[layerid="2"] {stroke:#0000FF;fill:#0000FF;}
*[layerid="3"] {stroke:#FFCC00;fill:#FFCC00;}
*[layerid="4"] {stroke:#66CC33;fill:#66CC33;}
*[layerid="5"] {stroke:#808080;fill:#808080;}
*[layerid="6"] {stroke:#800000;fill:#800000;}
*[layerid="7"] {stroke:#800080;fill:#800080;stroke-opacity:0.7;fill-opacity:0.7;}
*[layerid="8"] {stroke:#AA00FF;fill:#AA00FF;stroke-opacity:0.7;fill-opacity:0.7;}
*[layerid="9"] {stroke:#6464FF;fill:#6464FF;}
*[layerid="10"] {stroke:#FF00FF;fill:#FF00FF;}
*[layerid="11"] {stroke:#C0C0C0;fill:#C0C0C0;}
*[layerid="12"] {stroke:#FFFFFF;fill:#FFFFFF;}
*[layerid="13"] {stroke:#33CC99;fill:#33CC99;}
*[layerid="14"] {stroke:#5555FF;fill:#5555FF;}
*[layerid="15"] {stroke:#F022F0;fill:#F022F0;}
*[layerid="19"] {stroke:#66CCFF;fill:#66CCFF;}
*[layerid="21"] {stroke:#999966;fill:#999966;}
*[layerid="22"] {stroke:#008000;fill:#008000;}
*[layerid="23"] {stroke:#00FF00;fill:#00FF00;}
*[layerid="24"] {stroke:#BC8E00;fill:#BC8E00;}
*[layerid="25"] {stroke:#70DBFA;fill:#70DBFA;}
*[layerid="26"] {stroke:#00CC66;fill:#00CC66;}
*[layerid="27"] {stroke:#9966FF;fill:#9966FF;}
*[layerid="28"] {stroke:#800080;fill:#800080;}
*[layerid="29"] {stroke:#008080;fill:#008080;}
*[layerid="30"] {stroke:#15935F;fill:#15935F;}
*[layerid="31"] {stroke:#000080;fill:#000080;}
*[layerid="32"] {stroke:#00B400;fill:#00B400;}
*[layerid="33"] {stroke:#2E4756;fill:#2E4756;}
*[layerid="34"] {stroke:#99842F;fill:#99842F;}
*[layerid="35"] {stroke:#FFFFAA;fill:#FFFFAA;}
*[layerid="36"] {stroke:#99842F;fill:#99842F;}
*[layerid="37"] {stroke:#2E4756;fill:#2E4756;}
*[layerid="38"] {stroke:#3535FF;fill:#3535FF;}
*[layerid="39"] {stroke:#8000BC;fill:#8000BC;}
*[layerid="40"] {stroke:#43AE5F;fill:#43AE5F;}
*[layerid="41"] {stroke:#C3ECCE;fill:#C3ECCE;}
*[layerid="42"] {stroke:#728978;fill:#728978;}
*[layerid="43"] {stroke:#39503F;fill:#39503F;}
*[layerid="44"] {stroke:#0C715D;fill:#0C715D;}
*[layerid="45"] {stroke:#5A8A80;fill:#5A8A80;}
*[layerid="46"] {stroke:#2B937E;fill:#2B937E;}
*[layerid="47"] {stroke:#23999D;fill:#23999D;}
*[layerid="48"] {stroke:#45B4E3;fill:#45B4E3;}
*[layerid="49"] {stroke:#215DA1;fill:#215DA1;}
*[layerid="50"] {stroke:#4564D7;fill:#4564D7;}
*[layerid="51"] {stroke:#6969E9;fill:#6969E9;}
*[layerid="52"] {stroke:#9069E9;fill:#9069E9;}
*[layerid="99"] {stroke:#00CCCC;fill:#00CCCC;stroke-opacity:0.6;fill-opacity:0.6;}
*[layerid="100"] {stroke:#CC9999;fill:#CC9999;}
*[layerid="101"] {stroke:#66FFCC;fill:#66FFCC;}
*[layerid="Hole"] {stroke:#222222;fill:#222222;}
*[layerid="DRCError"] {stroke:#FAD609;fill:#FAD609;}
*[fill="none"] {fill: none;}
*[stroke="none"] {stroke: none;}
path, polyline, polygon, line {stroke-linecap:round;}
g[c_partid="part_pad"][layerid="1"] ellipse:not([c_etype="pad_outer"]) {fill:#FF0000;}
g[c_partid="part_pad"][layerid="1"] polygon:not([c_etype="pad_outer"]) {fill:#FF0000;}
g[c_partid="part_pad"][layerid="1"] polyline:not([c_etype="pad_outer"]) {stroke:#FF0000;}
g[c_partid="part_pad"][layerid="2"] ellipse:not([c_etype="pad_outer"]) {fill:#0000FF;}
g[c_partid="part_pad"][layerid="2"] polygon:not([c_etype="pad_outer"]) {fill:#0000FF;}
g[c_partid="part_pad"][layerid="2"] polyline:not([c_etype="pad_outer"]) {stroke:#0000FF;}
g[c_partid="part_pad"][layerid="11"] ellipse:not([c_etype="pad_outer"]) {fill:#C0C0C0;}
g[c_partid="part_pad"][layerid="11"] polygon:not([c_etype="pad_outer"]) {fill:#C0C0C0;}
g[c_partid="part_pad"][layerid="11"] polyline:not([c_etype="pad_outer"]) {stroke:#C0C0C0;}
g[c_partid="part_pad"][layerid="11"] circle {fill:#222222;}
g[c_partid="part_pad"][layerid="11"] > polyline:nth-of-type(2) {stroke:#222222;}
g[c_partid="part_pad"][layerid="11"][c_shape="ELLIPSE"]  polyline:nth-last-of-type(1) {stroke:#222222;}
g[c_partid="part_pad"][layerid="11"][c_shape="RECT"]  polyline:nth-last-of-type(1) {stroke:#222222;}
g[c_partid="part_pad"][layerid="11"][c_shape="POLYGON"]  polyline:nth-last-of-type(1) {stroke:#222222;}
g[c_partid="part_via"] > * + circle, #gCurParts g[c_partid="part_via"] > * + circle {fill:#222222;}
g[c_partid="part_pad"] > polygon[c_etype="pad_outer"], #gCurParts g[c_partid="part_pad"] > polygon[c_etype="pad_outer"] {stroke-linejoin: round;stroke-miterlimit: 100;}
g[c_partid="part_hole"] > circle {fill: #222222;}path, polyline, polygon {stroke-linejoin:round;}
rect, circle, ellipse, polyline, line, polygon, path {shape-rendering:crispEdges;}
</style>
<rect x="4009.5" y="3113" width="288" height="169.5" fill="#000000" stroke="none"/><polyline points="4171.5 3257 4178.5 3264 4198.5 3264 4238.5 3224" stroke-width="2.7559"  stroke-linecap="round" fill="none" layerid="2" net="UV_SENS" id="gge18449" locked="0" /><polyline points="4256.5 3142.07 4275.931 3161.501 4275.931 3244.359 4263.29 3257" stroke-width="2.7559"  stroke-linecap="round" fill="none" layerid="2" net="GND_BOARD" id="gge18488" locked="0" /><polyline points="4188.5 3224 4198.599 3213.901 4198.599 3149.119 4191.5 3142.02" stroke-width="2.7559"  stroke-linecap="round" fill="none" layerid="2" net="GND_BOARD" id="gge18479" locked="0" /><polyline points="4181.5 3142.02 4187.001 3136.519 4204.467 3136.519 4207.096 3139.148 4207.096 3215.404 4198.5 3224" stroke-width="2.7559"  stroke-linecap="round" fill="none" layerid="2" net="SCL" id="gge18467" locked="0" /><polyline points="4181.5 3142.02 4194.595 3155.115 4194.595 3208.346" stroke-width="2.7559"  stroke-linecap="round" fill="none" layerid="2" net="SCL" id="gge18464" locked="0" /><polyline points="4072.5 3141.858 4076.5 3145.858 4076.5 3153" stroke-width="2.7559"  stroke-linecap="round" fill="none" layerid="2" net="U1_11" id="gge18461" locked="0" /><polyline points="4072.5 3136 4072.5 3141.858" stroke-width="2.7559"  stroke-linecap="round" fill="none" layerid="2" net="U1_11" id="gge18458" locked="0" /><polyline points="4253.29 3251.142 4248.5 3246.352 4248.5 3224" stroke-width="2.7559"  stroke-linecap="round" fill="none" layerid="2" net="BAT_SENS_BOARD" id="gge18455" locked="0" /><polyline points="4253.29 3257 4253.29 3251.142" stroke-width="2.7559"  stroke-linecap="round" fill="none" layerid="2" net="BAT_SENS_BOARD" id="gge18452" locked="0" /><polyline points="4191.5 3257 4096.5 3162 4096.5 3153" stroke-width="2.7559"  stroke-linecap="round" fill="none" layerid="2" net="SENS_PWR" id="gge18440" locked="0" /><polyline points="4171.5 3147.878 4171.129 3148.249 4171.129 3223.984 4176.567 3229.422 4203.078 3229.422 4208.5 3224" stroke-width="2.7559"  stroke-linecap="round" fill="none" layerid="2" net="SDA" id="gge18437" locked="0" /><polyline points="4171.5 3142.02 4171.5 3147.878" stroke-width="2.7559"  stroke-linecap="round" fill="none" layerid="2" net="SDA" id="gge18434" locked="0" /><polyline points="4062.5 3136 4056.5 3142 4056.5 3153" stroke-width="2.7559"  stroke-linecap="round" fill="none" layerid="2" net="U1_9" id="gge18428" locked="0" /><polyline points="4049 3167 4119 3167 4119 3221" stroke-width="0.5"  stroke-linecap="round" fill="none" layerid="4" net="" id="gge708" locked="0" /><polyline points="4084 3148 4081.5 3150.5 4079 3148 4074 3148 4071.5 3150.5 4069 3148 4064 3148 4061.5 3150.5 4059 3148 4054 3148 4051.5 3150.5 4051.5 3155.5 4054 3158 4059 3158 4061.5 3155.5 4064 3158 4069 3158 4071.5 3155.5 4074 3158 4079 3158 4081.5 3155.5 4084 3158 4089 3158 4091.5 3155.5 4094 3158 4099 3158 4101.5 3155.5 4104 3158 4109 3158 4111.5 3155.5 4114 3158 4119 3158 4121.5 3155.5 4124 3158 4129 3158 4131.5 3155.5 4131.5 3150.5 4129 3148" stroke-width="0.5"  stroke-linecap="round" fill="none" layerid="4" net="" id="gge606" locked="0" /><polyline points="4089 3148 4091.5 3150.5 4094 3148" stroke-width="0.5"  stroke-linecap="round" fill="none" layerid="4" net="" id="gge609" locked="0" /><polyline points="4099 3148 4101.5 3150.5 4104 3148" stroke-width="0.5"  stroke-linecap="round" fill="none" layerid="4" net="" id="gge612" locked="0" /><polyline points="4109 3148 4111.5 3150.5 4114 3148" stroke-width="0.5"  stroke-linecap="round" fill="none" layerid="4" net="" id="gge615" locked="0" /><polyline points="4119 3148 4121.5 3150.5 4124 3148" stroke-width="0.5"  stroke-linecap="round" fill="none" layerid="4" net="" id="gge618" locked="0" /><polyline points="4054 3148 4026.5 3148 4026.5 3167 4049 3167 4049 3229 4112 3229" stroke-width="0.5"  stroke-linecap="round" fill="none" layerid="4" net="" id="gge621" locked="0" /><polyline points="4049 3229 4026.5 3229 4026.5 3248 4054 3248 4059 3248 4064 3248 4069 3248 4074 3248 4079 3248 4161.5 3248 4161.5 3213 4155.5 3213 4155.5 3210.5 4154 3210.5" stroke-width="0.5"  stroke-linecap="round" fill="none" layerid="4" net="" id="gge624" locked="0" /><polyline points="4074 3148 4069 3148" stroke-width="0.5"  stroke-linecap="round" fill="none" layerid="4" net="" id="gge627" locked="0" /><polyline points="4064 3148 4059 3148" stroke-width="0.5"  stroke-linecap="round" fill="none" layerid="4" net="" id="gge630" locked="0" /><polyline points="4079 3248 4081.5 3245.5 4084 3248" stroke-width="0.5"  stroke-linecap="round" fill="none" layerid="4" net="" id="gge633" locked="0" /><polyline points="4089 3248 4091.5 3245.5 4094 3248" stroke-width="0.5"  stroke-linecap="round" fill="none" layerid="4" net="" id="gge636" locked="0" /><polyline points="4099 3248 4101.5 3245.5 4104 3248" stroke-width="0.5"  stroke-linecap="round" fill="none" layerid="4" net="" id="gge639" locked="0" /><polyline points="4109 3248 4111.5 3245.5 4114 3248" stroke-width="0.5"  stroke-linecap="round" fill="none" layerid="4" net="" id="gge642" locked="0" /><polyline points="4119 3248 4121.5 3245.5 4124 3248" stroke-width="0.5"  stroke-linecap="round" fill="none" layerid="4" net="" id="gge645" locked="0" /><polyline points="4129 3248 4131.5 3245.5 4131.5 3240.5 4129 3238 4124 3238 4121.5 3240.5 4119 3238 4114 3238 4111.5 3240.5 4109 3238 4104 3238 4101.5 3240.5 4099 3238 4094 3238 4091.5 3240.5 4089 3238 4084 3238 4081.5 3240.5 4079 3238 4074 3238 4071.5 3240.5 4069 3238 4064 3238 4061.5 3240.5 4059 3238 4054 3238 4051.5 3240.5 4051.5 3245.5 4054 3248" stroke-width="0.5"  stroke-linecap="round" fill="none" layerid="4" net="" id="gge648" locked="0" /><polyline points="4059 3248 4061.5 3245.5 4064 3248" stroke-width="0.5"  stroke-linecap="round" fill="none" layerid="4" net="" id="gge651" locked="0" /><polyline points="4069 3248 4071.5 3245.5 4074 3248" stroke-width="0.5"  stroke-linecap="round" fill="none" layerid="4" net="" id="gge654" locked="0" /><polyline points="4079 3148 4134 3148 4134 3155.5 4141.5 3155.5 4151.5 3155.5 4161.5 3155.5 4161.5 3178 4155.5 3178 4155.5 3180.5 4154 3180.5" stroke-width="0.5"  stroke-linecap="round" fill="none" layerid="4" net="" id="gge657" locked="0" /><polyline points="4141.5 3155.5 4141.5 3150.5 4151.5 3150.5 4151.5 3155.5" stroke-width="0.5"  stroke-linecap="round" fill="none" layerid="4" net="" id="gge660" locked="0" /><polyline points="4155.5 3180.5 4159 3180.5 4159 3210.5 4155.5 3210.5" stroke-width="0.5"  stroke-linecap="round" fill="none" layerid="4" net="" id="gge663" locked="0" /><polyline points="4134 3183 4134 3180.5 4136.5 3180.5" stroke-width="0.5"  stroke-linecap="round" fill="none" layerid="4" net="" id="gge666" locked="0" /><polyline points="4139 3180.5 4141.5 3180.5" stroke-width="0.5"  stroke-linecap="round" fill="none" layerid="4" net="" id="gge669" locked="0" /><polyline points="4144 3180.5 4146.5 3180.5" stroke-width="0.5"  stroke-linecap="round" fill="none" layerid="4" net="" id="gge672" locked="0" /><polyline points="4149 3180.5 4151.5 3180.5" stroke-width="0.5"  stroke-linecap="round" fill="none" layerid="4" net="" id="gge675" locked="0" /><polyline points="4134 3185.5 4134 3188" stroke-width="0.5"  stroke-linecap="round" fill="none" layerid="4" net="" id="gge678" locked="0" /><polyline points="4134 3190.5 4134 3193" stroke-width="0.5"  stroke-linecap="round" fill="none" layerid="4" net="" id="gge681" locked="0" /><polyline points="4134 3195.5 4134 3198" stroke-width="0.5"  stroke-linecap="round" fill="none" layerid="4" net="" id="gge684" locked="0" /><polyline points="4134 3200.5 4134 3203" stroke-width="0.5"  stroke-linecap="round" fill="none" layerid="4" net="" id="gge687" locked="0" /><polyline points="4134 3205.5 4134 3208" stroke-width="0.5"  stroke-linecap="round" fill="none" layerid="4" net="" id="gge690" locked="0" /><polyline points="4134 3210.5 4136.5 3210.5" stroke-width="0.5"  stroke-linecap="round" fill="none" layerid="4" net="" id="gge693" locked="0" /><polyline points="4139 3210.5 4141.5 3210.5" stroke-width="0.5"  stroke-linecap="round" fill="none" layerid="4" net="" id="gge696" locked="0" /><polyline points="4144 3210.5 4146.5 3210.5" stroke-width="0.5"  stroke-linecap="round" fill="none" layerid="4" net="" id="gge699" locked="0" /><polyline points="4149 3210.5 4151.5 3210.5" stroke-width="0.5"  stroke-linecap="round" fill="none" layerid="4" net="" id="gge702" locked="0" /><polyline points="4026.5 3167 4025.5 3167 4025.5 3229 4026.5 3229" stroke-width="0.5"  stroke-linecap="round" fill="none" layerid="4" net="" id="gge705" locked="0" /><g c_partid="part_pcbtext" c_etype="pinpart" c_origin="4278.07,3198.5" c_rotation="0" c_mirror="1" id="gge16915" locked="0" layerid="4" c_shapetype="group" ><path c_fontsize="8" c_fontfamily="" c_text="Datenzwerg v1.0" d="M 4278.0699 3190.4273 L 4278.0699 3198.0636 M 4278.0699 3190.4273 L 4275.5244 3190.4273 L 4274.4335 3190.7909 L 4273.7063 3191.5182 L 4273.3426 3192.2455 L 4272.979 3193.3364 L 4272.979 3195.1545 L 4273.3426 3196.2455 L 4273.7063 3196.9727 L 4274.4335 3197.7 L 4275.5244 3198.0636 L 4278.0699 3198.0636 M 4266.2154 3192.9727 L 4266.2154 3198.0636 M 4266.2154 3194.0636 L 4266.9426 3193.3364 L 4267.6699 3192.9727 L 4268.7608 3192.9727 L 4269.4881 3193.3364 L 4270.2154 3194.0636 L 4270.579 3195.1545 L 4270.579 3195.8818 L 4270.2154 3196.9727 L 4269.4881 3197.7 L 4268.7608 3198.0636 L 4267.6699 3198.0636 L 4266.9426 3197.7 L 4266.2154 3196.9727 M 4262.7244 3190.4273 L 4262.7244 3196.6091 L 4262.3608 3197.7 L 4261.6335 3198.0636 L 4260.9063 3198.0636 M 4263.8154 3192.9727 L 4261.2699 3192.9727 M 4258.5063 3195.1545 L 4254.1426 3195.1545 L 4254.1426 3194.4273 L 4254.5063 3193.7 L 4254.8699 3193.3364 L 4255.5972 3192.9727 L 4256.6881 3192.9727 L 4257.4154 3193.3364 L 4258.1426 3194.0636 L 4258.5063 3195.1545 L 4258.5063 3195.8818 L 4258.1426 3196.9727 L 4257.4154 3197.7 L 4256.6881 3198.0636 L 4255.5972 3198.0636 L 4254.8699 3197.7 L 4254.1426 3196.9727 M 4251.7426 3192.9727 L 4251.7426 3198.0636 M 4251.7426 3194.4273 L 4250.6517 3193.3364 L 4249.9244 3192.9727 L 4248.8335 3192.9727 L 4248.1063 3193.3364 L 4247.7426 3194.4273 L 4247.7426 3198.0636 M 4241.3426 3192.9727 L 4245.3426 3198.0636 M 4245.3426 3192.9727 L 4241.3426 3192.9727 M 4245.3426 3198.0636 L 4241.3426 3198.0636 M 4238.9426 3192.9727 L 4237.4881 3198.0636 M 4236.0335 3192.9727 L 4237.4881 3198.0636 M 4236.0335 3192.9727 L 4234.579 3198.0636 M 4233.1244 3192.9727 L 4234.579 3198.0636 M 4230.7244 3195.1545 L 4226.3608 3195.1545 L 4226.3608 3194.4273 L 4226.7244 3193.7 L 4227.0881 3193.3364 L 4227.8154 3192.9727 L 4228.9063 3192.9727 L 4229.6335 3193.3364 L 4230.3608 3194.0636 L 4230.7244 3195.1545 L 4230.7244 3195.8818 L 4230.3608 3196.9727 L 4229.6335 3197.7 L 4228.9063 3198.0636 L 4227.8154 3198.0636 L 4227.0881 3197.7 L 4226.3608 3196.9727 M 4223.9608 3192.9727 L 4223.9608 3198.0636 M 4223.9608 3195.1545 L 4223.5972 3194.0636 L 4222.8699 3193.3364 L 4222.1426 3192.9727 L 4221.0517 3192.9727 M 4214.2881 3192.9727 L 4214.2881 3198.7909 L 4214.6517 3199.8818 L 4215.0154 3200.2455 L 4215.7426 3200.6091 L 4216.8335 3200.6091 L 4217.5608 3200.2455 M 4214.2881 3194.0636 L 4215.0154 3193.3364 L 4215.7426 3192.9727 L 4216.8335 3192.9727 L 4217.5608 3193.3364 L 4218.2881 3194.0636 L 4218.6517 3195.1545 L 4218.6517 3195.8818 L 4218.2881 3196.9727 L 4217.5608 3197.7 L 4216.8335 3198.0636 L 4215.7426 3198.0636 L 4215.0154 3197.7 L 4214.2881 3196.9727 M 4206.2881 3192.9727 L 4204.1063 3198.0636 M 4201.9244 3192.9727 L 4204.1063 3198.0636 M 4199.5244 3191.8818 L 4198.7972 3191.5182 L 4197.7063 3190.4273 L 4197.7063 3198.0636 M 4194.9426 3196.2455 L 4195.3063 3196.6091 L 4194.9426 3196.9727 L 4194.579 3196.6091 L 4194.9426 3196.2455 M 4189.9972 3190.4273 L 4191.0881 3190.7909 L 4191.8154 3191.8818 L 4192.179 3193.7 L 4192.179 3194.7909 L 4191.8154 3196.6091 L 4191.0881 3197.7 L 4189.9972 3198.0636 L 4189.2699 3198.0636 L 4188.179 3197.7 L 4187.4517 3196.6091 L 4187.0881 3194.7909 L 4187.0881 3193.7 L 4187.4517 3191.8818 L 4188.179 3190.7909 L 4189.2699 3190.4273 L 4189.9972 3190.4273" fill="none"  stroke-width="0.8"  /></g><g c_partid="part_pcbtext" c_etype="pinpart" c_origin="4278.07,3211.5" c_rotation="0" c_mirror="1" id="gge16936" locked="0" layerid="4" c_shapetype="group" ><path c_fontsize="8" c_fontfamily="" c_text="CCCAMP23 edition" d="M 4272.6151 3205.2455 L 4272.9787 3204.5182 L 4273.706 3203.7909 L 4274.4332 3203.4273 L 4275.8878 3203.4273 L 4276.6151 3203.7909 L 4277.3423 3204.5182 L 4277.706 3205.2455 L 4278.0696 3206.3364 L 4278.0696 3208.1545 L 4277.706 3209.2455 L 4277.3423 3209.9727 L 4276.6151 3210.7 L 4275.8878 3211.0636 L 4274.4332 3211.0636 L 4273.706 3210.7 L 4272.9787 3209.9727 L 4272.6151 3209.2455 M 4264.7605 3205.2455 L 4265.1241 3204.5182 L 4265.8514 3203.7909 L 4266.5787 3203.4273 L 4268.0332 3203.4273 L 4268.7605 3203.7909 L 4269.4878 3204.5182 L 4269.8514 3205.2455 L 4270.2151 3206.3364 L 4270.2151 3208.1545 L 4269.8514 3209.2455 L 4269.4878 3209.9727 L 4268.7605 3210.7 L 4268.0332 3211.0636 L 4266.5787 3211.0636 L 4265.8514 3210.7 L 4265.1241 3209.9727 L 4264.7605 3209.2455 M 4256.906 3205.2455 L 4257.2696 3204.5182 L 4257.9969 3203.7909 L 4258.7241 3203.4273 L 4260.1787 3203.4273 L 4260.906 3203.7909 L 4261.6332 3204.5182 L 4261.9969 3205.2455 L 4262.3605 3206.3364 L 4262.3605 3208.1545 L 4261.9969 3209.2455 L 4261.6332 3209.9727 L 4260.906 3210.7 L 4260.1787 3211.0636 L 4258.7241 3211.0636 L 4257.9969 3210.7 L 4257.2696 3209.9727 L 4256.906 3209.2455 M 4251.5969 3203.4273 L 4254.506 3211.0636 M 4251.5969 3203.4273 L 4248.6878 3211.0636 M 4253.4151 3208.5182 L 4249.7787 3208.5182 M 4246.2878 3203.4273 L 4246.2878 3211.0636 M 4246.2878 3203.4273 L 4243.3787 3211.0636 M 4240.4696 3203.4273 L 4243.3787 3211.0636 M 4240.4696 3203.4273 L 4240.4696 3211.0636 M 4238.0696 3203.4273 L 4238.0696 3211.0636 M 4238.0696 3203.4273 L 4234.7969 3203.4273 L 4233.706 3203.7909 L 4233.3423 3204.1545 L 4232.9787 3204.8818 L 4232.9787 3205.9727 L 4233.3423 3206.7 L 4233.706 3207.0636 L 4234.7969 3207.4273 L 4238.0696 3207.4273 M 4230.2151 3205.2455 L 4230.2151 3204.8818 L 4229.8514 3204.1545 L 4229.4878 3203.7909 L 4228.7605 3203.4273 L 4227.306 3203.4273 L 4226.5787 3203.7909 L 4226.2151 3204.1545 L 4225.8514 3204.8818 L 4225.8514 3205.6091 L 4226.2151 3206.3364 L 4226.9423 3207.4273 L 4230.5787 3211.0636 L 4225.4878 3211.0636 M 4222.3605 3203.4273 L 4218.3605 3203.4273 L 4220.5423 3206.3364 L 4219.4514 3206.3364 L 4218.7241 3206.7 L 4218.3605 3207.0636 L 4217.9969 3208.1545 L 4217.9969 3208.8818 L 4218.3605 3209.9727 L 4219.0878 3210.7 L 4220.1787 3211.0636 L 4221.2696 3211.0636 L 4222.3605 3210.7 L 4222.7241 3210.3364 L 4223.0878 3209.6091 M 4209.9969 3208.1545 L 4205.6332 3208.1545 L 4205.6332 3207.4273 L 4205.9969 3206.7 L 4206.3605 3206.3364 L 4207.0878 3205.9727 L 4208.1787 3205.9727 L 4208.906 3206.3364 L 4209.6332 3207.0636 L 4209.9969 3208.1545 L 4209.9969 3208.8818 L 4209.6332 3209.9727 L 4208.906 3210.7 L 4208.1787 3211.0636 L 4207.0878 3211.0636 L 4206.3605 3210.7 L 4205.6332 3209.9727 M 4198.8696 3203.4273 L 4198.8696 3211.0636 M 4198.8696 3207.0636 L 4199.5969 3206.3364 L 4200.3241 3205.9727 L 4201.4151 3205.9727 L 4202.1423 3206.3364 L 4202.8696 3207.0636 L 4203.2332 3208.1545 L 4203.2332 3208.8818 L 4202.8696 3209.9727 L 4202.1423 3210.7 L 4201.4151 3211.0636 L 4200.3241 3211.0636 L 4199.5969 3210.7 L 4198.8696 3209.9727 M 4196.4696 3203.4273 L 4196.106 3203.7909 L 4195.7423 3203.4273 L 4196.106 3203.0636 L 4196.4696 3203.4273 M 4196.106 3205.9727 L 4196.106 3211.0636 M 4192.2514 3203.4273 L 4192.2514 3209.6091 L 4191.8878 3210.7 L 4191.1605 3211.0636 L 4190.4332 3211.0636 M 4193.3423 3205.9727 L 4190.7969 3205.9727 M 4188.0332 3203.4273 L 4187.6696 3203.7909 L 4187.306 3203.4273 L 4187.6696 3203.0636 L 4188.0332 3203.4273 M 4187.6696 3205.9727 L 4187.6696 3211.0636 M 4183.0878 3205.9727 L 4183.8151 3206.3364 L 4184.5423 3207.0636 L 4184.906 3208.1545 L 4184.906 3208.8818 L 4184.5423 3209.9727 L 4183.8151 3210.7 L 4183.0878 3211.0636 L 4181.9969 3211.0636 L 4181.2696 3210.7 L 4180.5423 3209.9727 L 4180.1787 3208.8818 L 4180.1787 3208.1545 L 4180.5423 3207.0636 L 4181.2696 3206.3364 L 4181.9969 3205.9727 L 4183.0878 3205.9727 M 4177.7787 3205.9727 L 4177.7787 3211.0636 M 4177.7787 3207.4273 L 4176.6878 3206.3364 L 4175.9605 3205.9727 L 4174.8696 3205.9727 L 4174.1423 3206.3364 L 4173.7787 3207.4273 L 4173.7787 3211.0636" fill="none"  stroke-width="0.8"  /></g><g c_partid="part_pcbtext" c_etype="pinpart" c_origin="4278,3243" c_rotation="0" c_mirror="1" id="gge16960" locked="0" layerid="4" c_shapetype="group" ><path c_fontsize="8" c_fontfamily="NotoSansCJKsc-DemiLight" c_text="datagnome.de" d="M 4276.28 3242.6 C 4275.76 3242.6 4275.29 3242.32 4274.95 3241.98 L 4274.92 3241.98 L 4274.87 3242.5 L 4274.33 3242.5 L 4274.33 3236.13 L 4274.98 3236.13 L 4274.98 3237.83 L 4274.95 3238.58 C 4275.34 3238.26 4275.68 3238.07 4276.19 3238.07 C 4277.18 3238.07 4278.07 3238.95 4278.07 3240.34 C 4278.07 3241.79 4277.37 3242.6 4276.28 3242.6 Z  M 4276.15 3242.05 C 4276.94 3242.05 4277.39 3241.4 4277.39 3240.34 C 4277.39 3239.33 4276.82 3238.62 4276.08 3238.62 C 4275.71 3238.62 4275.37 3238.76 4274.98 3239.1 L 4274.98 3241.44 C 4275.36 3241.84 4275.73 3242.05 4276.15 3242.05 Z  M 4271.84 3242.6 C 4271.3 3242.6 4270.8 3242.32 4270.39 3241.97 L 4270.36 3241.97 L 4270.31 3242.5 L 4269.77 3242.5 L 4269.77 3239.82 C 4269.77 3238.78 4270.19 3238.07 4271.24 3238.07 C 4271.93 3238.07 4272.54 3238.39 4272.92 3238.64 L 4272.65 3239.09 C 4272.32 3238.86 4271.86 3238.61 4271.34 3238.61 C 4270.6 3238.61 4270.41 3239.19 4270.42 3239.77 C 4272.28 3239.98 4273.1 3240.44 4273.1 3241.39 C 4273.1 3242.17 4272.56 3242.6 4271.84 3242.6 Z  M 4271.67 3242.08 C 4272.11 3242.08 4272.47 3241.87 4272.47 3241.35 C 4272.47 3240.76 4271.95 3240.39 4270.42 3240.21 L 4270.42 3241.48 C 4270.86 3241.87 4271.23 3242.08 4271.67 3242.08 Z  M 4267.16 3242.6 C 4266.92 3242.6 4266.63 3242.52 4266.39 3242.44 L 4266.52 3241.95 C 4266.66 3242.01 4266.86 3242.07 4267.02 3242.07 C 4267.54 3242.07 4267.7 3241.75 4267.7 3241.22 L 4267.7 3238.72 L 4266.51 3238.72 L 4266.51 3238.18 L 4267.7 3238.18 L 4267.7 3236.96 L 4268.24 3236.96 L 4268.32 3238.18 L 4269 3238.22 L 4269 3238.72 L 4268.35 3238.72 L 4268.35 3241.2 C 4268.35 3242.04 4268.06 3242.6 4267.16 3242.6 Z  M 4264.73 3242.6 C 4264.19 3242.6 4263.69 3242.32 4263.28 3241.97 L 4263.25 3241.97 L 4263.2 3242.5 L 4262.66 3242.5 L 4262.66 3239.82 C 4262.66 3238.78 4263.08 3238.07 4264.12 3238.07 C 4264.82 3238.07 4265.43 3238.39 4265.8 3238.64 L 4265.54 3239.09 C 4265.21 3238.86 4264.75 3238.61 4264.23 3238.61 C 4263.48 3238.61 4263.3 3239.19 4263.31 3239.77 C 4265.16 3239.98 4265.99 3240.44 4265.99 3241.39 C 4265.99 3242.17 4265.44 3242.6 4264.73 3242.6 Z  M 4264.56 3242.08 C 4265 3242.08 4265.36 3241.87 4265.36 3241.35 C 4265.36 3240.76 4264.84 3240.39 4263.31 3240.21 L 4263.31 3241.48 C 4263.75 3241.87 4264.12 3242.08 4264.56 3242.08 Z  M 4259.8 3244.51 C 4258.48 3244.51 4257.64 3243.81 4257.64 3243.03 C 4257.64 3242.32 4258.14 3242 4259.13 3242 L 4260 3242 C 4260.59 3242 4260.76 3241.8 4260.76 3241.52 C 4260.76 3241.26 4260.64 3241.11 4260.48 3240.97 C 4260.28 3241.08 4260.03 3241.13 4259.81 3241.13 C 4258.94 3241.13 4258.25 3240.54 4258.25 3239.62 C 4258.25 3239.23 4258.41 3238.89 4258.63 3238.68 L 4257.72 3238.68 L 4257.72 3238.18 L 4259.21 3238.18 C 4259.36 3238.12 4259.57 3238.07 4259.81 3238.07 C 4260.68 3238.07 4261.41 3238.68 4261.41 3239.6 C 4261.41 3240.12 4261.13 3240.55 4260.85 3240.77 L 4260.85 3240.8 C 4261.07 3240.96 4261.33 3241.24 4261.33 3241.6 C 4261.33 3241.95 4261.16 3242.18 4260.94 3242.32 L 4260.94 3242.35 C 4261.34 3242.61 4261.58 3242.97 4261.58 3243.34 C 4261.58 3244.08 4260.86 3244.51 4259.8 3244.51 Z  M 4259.81 3240.68 C 4260.33 3240.68 4260.78 3240.26 4260.78 3239.6 C 4260.78 3238.95 4260.35 3238.56 4259.81 3238.56 C 4259.28 3238.56 4258.84 3238.96 4258.84 3239.6 C 4258.84 3240.26 4259.29 3240.68 4259.81 3240.68 Z  M 4259.71 3244.05 C 4260.52 3244.05 4261 3243.74 4261 3243.26 C 4261 3243 4260.86 3242.72 4260.53 3242.48 C 4260.33 3242.53 4260.12 3242.56 4259.98 3242.56 L 4259.19 3242.56 C 4258.6 3242.56 4258.28 3242.7 4258.28 3243.12 C 4258.28 3243.59 4258.84 3244.05 4259.71 3244.05 Z  M 4256.78 3242.5 L 4256.13 3242.5 L 4256.13 3239.34 C 4255.68 3238.88 4255.36 3238.64 4254.9 3238.64 C 4254.3 3238.64 4254.04 3239 4254.04 3239.84 L 4254.04 3242.5 L 4253.39 3242.5 L 4253.39 3239.76 C 4253.39 3238.65 4253.8 3238.07 4254.71 3238.07 C 4255.3 3238.07 4255.75 3238.4 4256.16 3238.81 L 4256.19 3238.81 L 4256.25 3238.18 L 4256.78 3238.18 Z  M 4250.29 3242.6 C 4249.24 3242.6 4248.3 3241.77 4248.3 3240.34 C 4248.3 3238.9 4249.24 3238.07 4250.29 3238.07 C 4251.35 3238.07 4252.28 3238.9 4252.28 3240.34 C 4252.28 3241.77 4251.35 3242.6 4250.29 3242.6 Z  M 4250.29 3242.06 C 4251.07 3242.06 4251.6 3241.37 4251.6 3240.34 C 4251.6 3239.32 4251.07 3238.62 4250.29 3238.62 C 4249.52 3238.62 4248.97 3239.32 4248.97 3240.34 C 4248.97 3241.37 4249.52 3242.06 4250.29 3242.06 Z  M 4247.12 3242.5 L 4246.48 3242.5 L 4246.48 3239.34 C 4246.07 3238.87 4245.68 3238.64 4245.35 3238.64 C 4244.76 3238.64 4244.5 3239 4244.5 3239.84 L 4244.5 3242.5 L 4243.85 3242.5 L 4243.85 3239.34 C 4243.44 3238.87 4243.07 3238.64 4242.72 3238.64 C 4242.14 3238.64 4241.88 3239 4241.88 3239.84 L 4241.88 3242.5 L 4241.22 3242.5 L 4241.22 3239.76 C 4241.22 3238.65 4241.65 3238.07 4242.53 3238.07 C 4243.05 3238.07 4243.51 3238.41 4243.97 3238.91 C 4244.14 3238.4 4244.49 3238.07 4245.16 3238.07 C 4245.67 3238.07 4246.13 3238.4 4246.51 3238.82 L 4246.53 3238.82 L 4246.6 3238.18 L 4247.12 3238.18 Z  M 4238.06 3242.6 C 4237.46 3242.6 4237.02 3242.4 4236.64 3242.16 L 4236.88 3241.73 C 4237.2 3241.95 4237.56 3242.08 4237.98 3242.08 C 4238.84 3242.08 4239.42 3241.44 4239.46 3240.48 L 4236.51 3240.48 C 4236.48 3240.38 4236.48 3240.24 4236.48 3240.09 C 4236.48 3238.84 4237.1 3238.07 4238.18 3238.07 C 4239.17 3238.07 4240.11 3238.94 4240.11 3240.34 C 4240.11 3241.76 4239.2 3242.6 4238.06 3242.6 Z  M 4239.47 3240 C 4239.38 3239.12 4238.81 3238.6 4238.17 3238.6 C 4237.47 3238.6 4237.05 3239.08 4237.05 3240 Z  M 4235.07 3242.6 C 4234.8 3242.6 4234.57 3242.4 4234.57 3242.09 C 4234.57 3241.77 4234.8 3241.56 4235.07 3241.56 C 4235.33 3241.56 4235.56 3241.77 4235.56 3242.09 C 4235.56 3242.4 4235.33 3242.6 4235.07 3242.6 Z  M 4231.87 3242.6 C 4231.34 3242.6 4230.88 3242.32 4230.53 3241.98 L 4230.51 3241.98 L 4230.45 3242.5 L 4229.92 3242.5 L 4229.92 3236.13 L 4230.56 3236.13 L 4230.56 3237.83 L 4230.53 3238.58 C 4230.92 3238.26 4231.26 3238.07 4231.77 3238.07 C 4232.76 3238.07 4233.65 3238.95 4233.65 3240.34 C 4233.65 3241.79 4232.96 3242.6 4231.87 3242.6 Z  M 4231.73 3242.05 C 4232.52 3242.05 4232.97 3241.4 4232.97 3240.34 C 4232.97 3239.33 4232.4 3238.62 4231.67 3238.62 C 4231.29 3238.62 4230.96 3238.76 4230.56 3239.1 L 4230.56 3241.44 C 4230.95 3241.84 4231.32 3242.05 4231.73 3242.05 Z  M 4226.69 3242.6 C 4226.09 3242.6 4225.65 3242.4 4225.28 3242.16 L 4225.52 3241.73 C 4225.84 3241.95 4226.19 3242.08 4226.61 3242.08 C 4227.48 3242.08 4228.05 3241.44 4228.09 3240.48 L 4225.14 3240.48 C 4225.12 3240.38 4225.11 3240.24 4225.11 3240.09 C 4225.11 3238.84 4225.73 3238.07 4226.81 3238.07 C 4227.8 3238.07 4228.74 3238.94 4228.74 3240.34 C 4228.74 3241.76 4227.83 3242.6 4226.69 3242.6 Z  M 4228.1 3240 C 4228.01 3239.12 4227.44 3238.6 4226.8 3238.6 C 4226.1 3238.6 4225.68 3239.08 4225.68 3240 Z "  stroke="none" stroke-width="0.8"  /></g><g c_partid="part_pcbtext" c_etype="" c_origin="4024,3197" c_rotation="90" c_mirror="1" id="gge543" locked="0" layerid="4" c_shapetype="group" ><path c_fontsize="4.5" c_fontfamily="" c_text="U1" d="M 4019.46 3197 L 4022.53 3197 L 4023.14 3197.2 L 4023.55 3197.61 L 4023.75 3198.23 L 4023.75 3198.64 L 4023.55 3199.25 L 4023.14 3199.66 L 4022.53 3199.86 L 4019.46 3199.86 M 4020.28 3201.21 L 4020.07 3201.62 L 4019.46 3202.24 L 4023.75 3202.24" fill="none"  stroke-width="0.6" c_note="note_pre" /></g><g c_partid="part_pcbtext" c_etype="" c_origin="4017,3197" c_rotation="90" c_mirror="1" id="gge537" locked="0" layerid="4" c_shapetype="group" display="none"><path c_fontsize="4.5" c_fontfamily="" c_text="WEMOS_D1_MINI_PRO4" d="M 4012.46 3197 L 4016.75 3198.02 M 4012.46 3199.05 L 4016.75 3198.02 M 4012.46 3199.05 L 4016.75 3200.07 M 4012.46 3201.09 L 4016.75 3200.07 M 4012.46 3202.44 L 4016.75 3202.44 M 4012.46 3202.44 L 4012.46 3205.1 M 4014.5 3202.44 L 4014.5 3204.08 M 4016.75 3202.44 L 4016.75 3205.1 M 4012.46 3206.45 L 4016.75 3206.45 M 4012.46 3206.45 L 4016.75 3208.09 M 4012.46 3209.72 L 4016.75 3208.09 M 4012.46 3209.72 L 4016.75 3209.72 M 4012.46 3212.3 L 4012.66 3211.89 L 4013.07 3211.48 L 4013.48 3211.28 L 4014.1 3211.07 L 4015.12 3211.07 L 4015.73 3211.28 L 4016.14 3211.48 L 4016.55 3211.89 L 4016.75 3212.3 L 4016.75 3213.12 L 4016.55 3213.53 L 4016.14 3213.94 L 4015.73 3214.14 L 4015.12 3214.35 L 4014.1 3214.35 L 4013.48 3214.14 L 4013.07 3213.94 L 4012.66 3213.53 L 4012.46 3213.12 L 4012.46 3212.3 M 4013.07 3218.56 L 4012.66 3218.15 L 4012.46 3217.54 L 4012.46 3216.72 L 4012.66 3216.1 L 4013.07 3215.7 L 4013.48 3215.7 L 4013.89 3215.9 L 4014.1 3216.1 L 4014.3 3216.51 L 4014.71 3217.74 L 4014.91 3218.15 L 4015.12 3218.35 L 4015.53 3218.56 L 4016.14 3218.56 L 4016.55 3218.15 L 4016.75 3217.54 L 4016.75 3216.72 L 4016.55 3216.1 L 4016.14 3215.7 M 4018.19 3219.91 L 4018.19 3223.59 M 4012.46 3224.94 L 4016.75 3224.94 M 4012.46 3224.94 L 4012.46 3226.37 L 4012.66 3226.99 L 4013.07 3227.4 L 4013.48 3227.6 L 4014.1 3227.8 L 4015.12 3227.8 L 4015.73 3227.6 L 4016.14 3227.4 L 4016.55 3226.99 L 4016.75 3226.37 L 4016.75 3224.94 M 4013.28 3229.15 L 4013.07 3229.56 L 4012.46 3230.18 L 4016.75 3230.18 M 4018.19 3231.53 L 4018.19 3235.21 M 4012.46 3236.56 L 4016.75 3236.56 M 4012.46 3236.56 L 4016.75 3238.2 M 4012.46 3239.83 L 4016.75 3238.2 M 4012.46 3239.83 L 4016.75 3239.83 M 4012.46 3241.18 L 4016.75 3241.18 M 4012.46 3242.53 L 4016.75 3242.53 M 4012.46 3242.53 L 4016.75 3245.4 M 4012.46 3245.4 L 4016.75 3245.4 M 4012.46 3246.75 L 4016.75 3246.75 M 4018.19 3248.1 L 4018.19 3251.78 M 4012.46 3253.13 L 4016.75 3253.13 M 4012.46 3253.13 L 4012.46 3254.97 L 4012.66 3255.58 L 4012.87 3255.79 L 4013.28 3255.99 L 4013.89 3255.99 L 4014.3 3255.79 L 4014.5 3255.58 L 4014.71 3254.97 L 4014.71 3253.13 M 4012.46 3257.34 L 4016.75 3257.34 M 4012.46 3257.34 L 4012.46 3259.18 L 4012.66 3259.8 L 4012.87 3260 L 4013.28 3260.2 L 4013.69 3260.2 L 4014.1 3260 L 4014.3 3259.8 L 4014.5 3259.18 L 4014.5 3257.34 M 4014.5 3258.77 L 4016.75 3260.2 M 4012.46 3262.78 L 4012.66 3262.37 L 4013.07 3261.96 L 4013.48 3261.76 L 4014.1 3261.55 L 4015.12 3261.55 L 4015.73 3261.76 L 4016.14 3261.96 L 4016.55 3262.37 L 4016.75 3262.78 L 4016.75 3263.6 L 4016.55 3264.01 L 4016.14 3264.42 L 4015.73 3264.62 L 4015.12 3264.83 L 4014.1 3264.83 L 4013.48 3264.62 L 4013.07 3264.42 L 4012.66 3264.01 L 4012.46 3263.6 L 4012.46 3262.78 M 4012.46 3268.22 L 4015.32 3266.18 L 4015.32 3269.25 M 4012.46 3268.22 L 4016.75 3268.22" fill="none"  stroke-width="0.6" c_note="note_name" /></g><g c_partid="part_pcbtext" c_etype="" c_origin="4037.5,3179.1" c_rotation="90" c_mirror="1" id="gge717" locked="0" layerid="4" c_shapetype="group" ><path c_fontsize="6" c_fontfamily="" c_text="ANTENNA" d="M 4031.45 3181.28 L 4037.17 3179.1 M 4031.45 3181.28 L 4037.17 3183.46 M 4035.26 3179.92 L 4035.26 3182.65 M 4031.45 3185.26 L 4037.17 3185.26 M 4031.45 3185.26 L 4037.17 3189.08 M 4031.45 3189.08 L 4037.17 3189.08 M 4031.45 3192.79 L 4037.17 3192.79 M 4031.45 3190.88 L 4031.45 3194.7 M 4031.45 3196.5 L 4037.17 3196.5 M 4031.45 3196.5 L 4031.45 3200.05 M 4034.17 3196.5 L 4034.17 3198.68 M 4037.17 3196.5 L 4037.17 3200.05 M 4031.45 3201.85 L 4037.17 3201.85 M 4031.45 3201.85 L 4037.17 3205.66 M 4031.45 3205.66 L 4037.17 3205.66 M 4031.45 3207.46 L 4037.17 3207.46 M 4031.45 3207.46 L 4037.17 3211.28 M 4031.45 3211.28 L 4037.17 3211.28 M 4031.45 3215.26 L 4037.17 3213.08 M 4031.45 3215.26 L 4037.17 3217.45 M 4035.26 3213.9 L 4035.26 3216.63" fill="none"  stroke-width="0.48"  /></g><g c_partid="part_pcbtext" c_etype="" c_origin="4094,3175.95" c_rotation="90" c_mirror="1" id="gge723" locked="0" layerid="4" c_shapetype="group" ><path c_fontsize="7" c_fontfamily="" c_text="D1 mini" d="M 4086.94 3175.95 L 4093.62 3175.95 M 4086.94 3175.95 L 4086.94 3178.18 L 4087.25 3179.13 L 4087.89 3179.77 L 4088.53 3180.09 L 4089.48 3180.4 L 4091.07 3180.4 L 4092.03 3180.09 L 4092.66 3179.77 L 4093.3 3179.13 L 4093.62 3178.18 L 4093.62 3175.95 M 4088.21 3182.5 L 4087.89 3183.14 L 4086.94 3184.1 L 4093.62 3184.1 M 4089.16 3191.1 L 4093.62 3191.1 M 4090.44 3191.1 L 4089.48 3192.05 L 4089.16 3192.69 L 4089.16 3193.64 L 4089.48 3194.28 L 4090.44 3194.6 L 4093.62 3194.6 M 4090.44 3194.6 L 4089.48 3195.55 L 4089.16 3196.19 L 4089.16 3197.14 L 4089.48 3197.78 L 4090.44 3198.1 L 4093.62 3198.1 M 4086.94 3200.2 L 4087.25 3200.51 L 4086.94 3200.83 L 4086.62 3200.51 L 4086.94 3200.2 M 4089.16 3200.51 L 4093.62 3200.51 M 4089.16 3202.93 L 4093.62 3202.93 M 4090.44 3202.93 L 4089.48 3203.89 L 4089.16 3204.52 L 4089.16 3205.48 L 4089.48 3206.11 L 4090.44 3206.43 L 4093.62 3206.43 M 4086.94 3208.53 L 4087.25 3208.85 L 4086.94 3209.17 L 4086.62 3208.85 L 4086.94 3208.53 M 4089.16 3208.85 L 4093.62 3208.85" fill="none"  stroke-width="0.56"  /></g><g c_partid="part_pcbtext" c_etype="" c_origin="4146.5,3158" c_rotation="90" c_mirror="1" id="gge729" locked="0" layerid="4" c_shapetype="group" ><path c_fontsize="4" c_fontfamily="" c_text="RESET" d="M 4142.46 3158 L 4146.28 3158 M 4142.46 3158 L 4142.46 3159.64 L 4142.65 3160.18 L 4142.83 3160.36 L 4143.19 3160.55 L 4143.55 3160.55 L 4143.92 3160.36 L 4144.1 3160.18 L 4144.28 3159.64 L 4144.28 3158 M 4144.28 3159.27 L 4146.28 3160.55 M 4142.46 3161.75 L 4146.28 3161.75 M 4142.46 3161.75 L 4142.46 3164.11 M 4144.28 3161.75 L 4144.28 3163.2 M 4146.28 3161.75 L 4146.28 3164.11 M 4143.01 3167.85 L 4142.65 3167.49 L 4142.46 3166.95 L 4142.46 3166.22 L 4142.65 3165.67 L 4143.01 3165.31 L 4143.37 3165.31 L 4143.74 3165.49 L 4143.92 3165.67 L 4144.1 3166.04 L 4144.46 3167.13 L 4144.65 3167.49 L 4144.83 3167.67 L 4145.19 3167.85 L 4145.74 3167.85 L 4146.1 3167.49 L 4146.28 3166.95 L 4146.28 3166.22 L 4146.1 3165.67 L 4145.74 3165.31 M 4142.46 3169.05 L 4146.28 3169.05 M 4142.46 3169.05 L 4142.46 3171.42 M 4144.28 3169.05 L 4144.28 3170.51 M 4146.28 3169.05 L 4146.28 3171.42 M 4142.46 3173.89 L 4146.28 3173.89 M 4142.46 3172.62 L 4142.46 3175.16" fill="none"  stroke-width="0.32"  /></g><g c_partid="part_pcbtext" c_etype="" c_origin="4146.5,3188.75" c_rotation="90" c_mirror="1" id="gge735" locked="0" layerid="4" c_shapetype="group" ><path c_fontsize="5" c_fontfamily="" c_text="USB" d="M 4141.45 3188.75 L 4144.86 3188.75 L 4145.55 3188.98 L 4146 3189.43 L 4146.23 3190.11 L 4146.23 3190.57 L 4146 3191.25 L 4145.55 3191.7 L 4144.86 3191.93 L 4141.45 3191.93 M 4142.14 3196.61 L 4141.68 3196.16 L 4141.45 3195.48 L 4141.45 3194.57 L 4141.68 3193.89 L 4142.14 3193.43 L 4142.59 3193.43 L 4143.05 3193.66 L 4143.27 3193.89 L 4143.5 3194.34 L 4143.95 3195.7 L 4144.18 3196.16 L 4144.41 3196.39 L 4144.86 3196.61 L 4145.55 3196.61 L 4146 3196.16 L 4146.23 3195.48 L 4146.23 3194.57 L 4146 3193.89 L 4145.55 3193.43 M 4141.45 3198.11 L 4146.23 3198.11 M 4141.45 3198.11 L 4141.45 3200.16 L 4141.68 3200.84 L 4141.91 3201.07 L 4142.36 3201.3 L 4142.82 3201.3 L 4143.27 3201.07 L 4143.5 3200.84 L 4143.73 3200.16 M 4143.73 3198.11 L 4143.73 3200.16 L 4143.95 3200.84 L 4144.18 3201.07 L 4144.64 3201.3 L 4145.32 3201.3 L 4145.77 3201.07 L 4146 3200.84 L 4146.23 3200.16 L 4146.23 3198.11" fill="none"  stroke-width="0.4"  /></g><polyline points="4263.29 3257 4252.29 3268 4192.5 3268 4181.5 3257" stroke-width="2.7559"  stroke-linecap="round" fill="none" layerid="1" net="GND_BOARD" id="gge18485" locked="0" /><polyline points="4240.64 3142.07 4215.21 3167.5 4081 3167.5 4066.5 3153" stroke-width="2.7559"  stroke-linecap="round" fill="none" layerid="1" net="SOUND_SENS" id="gge18500" locked="0" /><polyline points="4246.5 3142.07 4240.642 3142.07" stroke-width="2.7559"  stroke-linecap="round" fill="none" layerid="1" net="SOUND_SENS" id="gge18497" locked="0" /><polyline points="4273.29 3257 4251.186 3234.896 4189.396 3234.896 4178.5 3224" stroke-width="2.7559"  stroke-linecap="round" fill="none" layerid="1" net="5V_BOARD" id="gge18494" locked="0" /><polyline points="4126.5 3243 4145.5 3224 4178.5 3224" stroke-width="2.7559"  stroke-linecap="round" fill="none" layerid="1" net="5V_BOARD" id="gge18491" locked="0" /><polyline points="4181.5 3257 4172.751 3248.251 4121.751 3248.251 4116.5 3243" stroke-width="2.7559"  stroke-linecap="round" fill="none" layerid="1" net="GND_BOARD" id="gge18482" locked="0" /><polyline points="4188.5 3224 4183.066 3218.566 4140.934 3218.566 4116.5 3243" stroke-width="2.7559"  stroke-linecap="round" fill="none" layerid="1" net="GND_BOARD" id="gge18476" locked="0" /><polyline points="4076.5 3243 4111.154 3208.346 4194.595 3208.346" stroke-width="2.7559"  stroke-linecap="round" fill="none" layerid="1" net="SCL" id="gge18470" locked="0" /><polyline points="4266.5 3142.07 4260.816 3136.386 4207.134 3136.386 4201.5 3142.02" stroke-width="2.7559"  stroke-linecap="round" fill="none" layerid="1" net="SENS_PWR" id="gge18446" locked="0" /><polyline points="4201.5 3142.02 4196.229 3147.291 4102.209 3147.291 4096.5 3153" stroke-width="2.7559"  stroke-linecap="round" fill="none" layerid="1" net="SENS_PWR" id="gge18443" locked="0" /><polyline points="4086.5 3243 4115.006 3214.494 4198.994 3214.494 4208.5 3224" stroke-width="2.7559"  stroke-linecap="round" fill="none" layerid="1" net="SDA" id="gge18431" locked="0" /><g c_partid="part_pad" c_etype="pinpart" c_origin="4178.5,3224" layerid="11" number="1" net="5V_BOARD" plated ="Y"  id="gge1143" locked="0" c_rotation="0" c_width="6" c_height="6" title="5V_BOARD" c_shape="ELLIPSE" pasteexpansion="0" solderexpansion="0.2"><ellipse c_etype="pad_shell" cx="4178.5" cy="3224" rx="3" ry="3" layerid="11" stroke-width="0"/><circle c_etype="pad_hole" cx="4178.5" cy="3223.9999" r="1.8" layerid="11" stroke-width="0"/></g><g c_partid="part_pad" c_etype="pinpart" c_origin="4188.5,3224" layerid="11" number="2" net="GND_BOARD" plated ="Y"  id="gge1158" locked="0" c_rotation="0" c_width="6" c_height="6" title="GND_BOARD" c_shape="ELLIPSE" pasteexpansion="0" solderexpansion="0.2"><ellipse c_etype="pad_shell" cx="4188.5" cy="3224" rx="3" ry="3" layerid="11" stroke-width="0"/><circle c_etype="pad_hole" cx="4188.5" cy="3223.9999" r="1.8" layerid="11" stroke-width="0"/></g><g c_partid="part_pad" c_etype="pinpart" c_origin="4198.5,3224" layerid="11" number="3" net="SCL" plated ="Y"  id="gge1173" locked="0" c_rotation="0" c_width="6" c_height="6" title="SCL" c_shape="ELLIPSE" pasteexpansion="0" solderexpansion="0.2"><ellipse c_etype="pad_shell" cx="4198.5" cy="3224" rx="3" ry="3" layerid="11" stroke-width="0"/><circle c_etype="pad_hole" cx="4198.5" cy="3223.9999" r="1.8" layerid="11" stroke-width="0"/></g><g c_partid="part_pad" c_etype="pinpart" c_origin="4208.5,3224" layerid="11" number="4" net="SDA" plated ="Y"  id="gge1188" locked="0" c_rotation="0" c_width="6" c_height="6" title="SDA" c_shape="ELLIPSE" pasteexpansion="0" solderexpansion="0.2"><ellipse c_etype="pad_shell" cx="4208.5" cy="3224" rx="3" ry="3" layerid="11" stroke-width="0"/><circle c_etype="pad_hole" cx="4208.5" cy="3223.9999" r="1.8" layerid="11" stroke-width="0"/></g><g c_partid="part_pad" c_etype="pinpart" c_origin="4218.5,3224" layerid="11" number="5" net="" plated ="Y"  id="gge1203" locked="0" c_rotation="0" c_width="6" c_height="6" title="" c_shape="ELLIPSE" pasteexpansion="0" solderexpansion="0.2"><ellipse c_etype="pad_shell" cx="4218.5" cy="3224" rx="3" ry="3" layerid="11" stroke-width="0"/><circle c_etype="pad_hole" cx="4218.5" cy="3223.9999" r="1.8" layerid="11" stroke-width="0"/></g><g c_partid="part_pad" c_etype="pinpart" c_origin="4228.5,3224" layerid="11" number="6" net="" plated ="Y"  id="gge1218" locked="0" c_rotation="0" c_width="6" c_height="6" title="" c_shape="ELLIPSE" pasteexpansion="0" solderexpansion="0.2"><ellipse c_etype="pad_shell" cx="4228.5" cy="3224" rx="3" ry="3" layerid="11" stroke-width="0"/><circle c_etype="pad_hole" cx="4228.5" cy="3223.9999" r="1.8" layerid="11" stroke-width="0"/></g><g c_partid="part_pad" c_etype="pinpart" c_origin="4238.5,3224" layerid="11" number="7" net="UV_SENS" plated ="Y"  id="gge1233" locked="0" c_rotation="0" c_width="6" c_height="6" title="UV_SENS" c_shape="ELLIPSE" pasteexpansion="0" solderexpansion="0.2"><ellipse c_etype="pad_shell" cx="4238.5" cy="3224" rx="3" ry="3" layerid="11" stroke-width="0"/><circle c_etype="pad_hole" cx="4238.5" cy="3223.9999" r="1.8" layerid="11" stroke-width="0"/></g><g c_partid="part_pad" c_etype="pinpart" c_origin="4248.5,3224" layerid="11" number="8" net="BAT_SENS_BOARD" plated ="Y"  id="gge1248" locked="0" c_rotation="0" c_width="6" c_height="6" title="BAT_SENS_BOARD" c_shape="ELLIPSE" pasteexpansion="0" solderexpansion="0.2"><ellipse c_etype="pad_shell" cx="4248.5" cy="3224" rx="3" ry="3" layerid="11" stroke-width="0"/><circle c_etype="pad_hole" cx="4248.5" cy="3223.9999" r="1.8" layerid="11" stroke-width="0"/></g><g c_partid="part_pad" c_etype="pinpart" c_origin="4258.5,3224" layerid="11" number="9" net="" plated ="Y"  id="gge1263" locked="0" c_rotation="0" c_width="6" c_height="6" title="" c_shape="ELLIPSE" pasteexpansion="0" solderexpansion="0.2"><ellipse c_etype="pad_shell" cx="4258.5" cy="3224" rx="3" ry="3" layerid="11" stroke-width="0"/><circle c_etype="pad_hole" cx="4258.5" cy="3223.9999" r="1.8" layerid="11" stroke-width="0"/></g><g c_partid="part_pad" c_etype="pinpart" c_origin="4268.5,3224" layerid="11" number="10" net="" plated ="Y"  id="gge1278" locked="0" c_rotation="0" c_width="6" c_height="6" title="" c_shape="ELLIPSE" pasteexpansion="0" solderexpansion="0.2"><ellipse c_etype="pad_shell" cx="4268.5" cy="3224" rx="3" ry="3" layerid="11" stroke-width="0"/><circle c_etype="pad_hole" cx="4268.5" cy="3223.9999" r="1.8" layerid="11" stroke-width="0"/></g><g c_partid="part_pad" c_etype="pinpart" c_origin="4126.5,3243" layerid="11" number="8" net="5V_BOARD" plated ="Y"  id="gge741" locked="0" c_rotation="90" c_width="5.937" c_height="5.937" title="5V_BOARD" c_shape="ELLIPSE" pasteexpansion="0" solderexpansion="0.19685"><ellipse c_etype="pad_shell" cx="4126.5" cy="3243" rx="2.9685" ry="2.9685" layerid="11" stroke-width="0"/><polyline c_etype="pad_hole" points="4126.5 3242.9995 4126.5 3243.0005" layerid="11" stroke-width="3.936"></polyline></g><g c_partid="part_pad" c_etype="pinpart" c_origin="4126.5,3153" layerid="11" number="16" net="" plated ="Y"  id="gge756" locked="0" c_rotation="90" c_width="5.937" c_height="5.937" title="" c_shape="ELLIPSE" pasteexpansion="0" solderexpansion="0.19685"><ellipse c_etype="pad_shell" cx="4126.5" cy="3153" rx="2.9685" ry="2.9685" layerid="11" stroke-width="0"/><polyline c_etype="pad_hole" points="4126.5 3152.9995 4126.5 3153.0005" layerid="11" stroke-width="3.936"></polyline></g><g c_partid="part_pad" c_etype="pinpart" c_origin="4056.5,3243" layerid="11" number="1" net="" plated ="Y"  id="gge771" locked="0" c_rotation="90" c_width="5.937" c_height="5.937" title="" c_shape="ELLIPSE" pasteexpansion="0" solderexpansion="0.19685"><ellipse c_etype="pad_shell" cx="4056.5" cy="3243" rx="2.9685" ry="2.9685" layerid="11" stroke-width="0"/><polyline c_etype="pad_hole" points="4056.5 3243.0005 4056.5 3242.9995" layerid="11" stroke-width="3.936"></polyline></g><g c_partid="part_pad" c_etype="pinpart" c_origin="4066.5,3243" layerid="11" number="2" net="" plated ="Y"  id="gge786" locked="0" c_rotation="90" c_width="5.937" c_height="5.937" title="" c_shape="ELLIPSE" pasteexpansion="0" solderexpansion="0.19685"><ellipse c_etype="pad_shell" cx="4066.5" cy="3243" rx="2.9685" ry="2.9685" layerid="11" stroke-width="0"/><polyline c_etype="pad_hole" points="4066.5 3243.0005 4066.5 3242.9995" layerid="11" stroke-width="3.936"></polyline></g><g c_partid="part_pad" c_etype="pinpart" c_origin="4076.5,3243" layerid="11" number="3" net="SCL" plated ="Y"  id="gge801" locked="0" c_rotation="90" c_width="5.937" c_height="5.937" title="SCL" c_shape="ELLIPSE" pasteexpansion="0" solderexpansion="0.19685"><ellipse c_etype="pad_shell" cx="4076.5" cy="3243" rx="2.9685" ry="2.9685" layerid="11" stroke-width="0"/><polyline c_etype="pad_hole" points="4076.5 3242.9995 4076.5 3243.0005" layerid="11" stroke-width="3.936"></polyline></g><g c_partid="part_pad" c_etype="pinpart" c_origin="4086.5,3243" layerid="11" number="4" net="SDA" plated ="Y"  id="gge816" locked="0" c_rotation="90" c_width="5.937" c_height="5.937" title="SDA" c_shape="ELLIPSE" pasteexpansion="0" solderexpansion="0.19685"><ellipse c_etype="pad_shell" cx="4086.5" cy="3243" rx="2.9685" ry="2.9685" layerid="11" stroke-width="0"/><polyline c_etype="pad_hole" points="4086.5 3242.9995 4086.5 3243.0005" layerid="11" stroke-width="3.936"></polyline></g><g c_partid="part_pad" c_etype="pinpart" c_origin="4096.5,3243" layerid="11" number="5" net="" plated ="Y"  id="gge831" locked="0" c_rotation="90" c_width="5.937" c_height="5.937" title="" c_shape="ELLIPSE" pasteexpansion="0" solderexpansion="0.19685"><ellipse c_etype="pad_shell" cx="4096.5" cy="3243" rx="2.9685" ry="2.9685" layerid="11" stroke-width="0"/><polyline c_etype="pad_hole" points="4096.5 3242.9995 4096.5 3243.0005" layerid="11" stroke-width="3.936"></polyline></g><g c_partid="part_pad" c_etype="pinpart" c_origin="4106.5,3243" layerid="11" number="6" net="" plated ="Y"  id="gge846" locked="0" c_rotation="90" c_width="5.937" c_height="5.937" title="" c_shape="ELLIPSE" pasteexpansion="0" solderexpansion="0.19685"><ellipse c_etype="pad_shell" cx="4106.5" cy="3243" rx="2.9685" ry="2.9685" layerid="11" stroke-width="0"/><polyline c_etype="pad_hole" points="4106.5 3242.9995 4106.5 3243.0005" layerid="11" stroke-width="3.936"></polyline></g><g c_partid="part_pad" c_etype="pinpart" c_origin="4116.5,3243" layerid="11" number="7" net="GND_BOARD" plated ="Y"  id="gge861" locked="0" c_rotation="90" c_width="5.937" c_height="5.937" title="GND_BOARD" c_shape="ELLIPSE" pasteexpansion="0" solderexpansion="0.19685"><ellipse c_etype="pad_shell" cx="4116.5" cy="3243" rx="2.9685" ry="2.9685" layerid="11" stroke-width="0"/><polyline c_etype="pad_hole" points="4116.5 3242.9995 4116.5 3243.0005" layerid="11" stroke-width="3.936"></polyline></g><g c_partid="part_pad" c_etype="pinpart" c_origin="4056.5,3153" layerid="11" number="9" net="U1_9" plated ="Y"  id="gge876" locked="0" c_rotation="90" c_width="5.937" c_height="5.937" title="U1_9" c_shape="ELLIPSE" pasteexpansion="0" solderexpansion="0.19685"><ellipse c_etype="pad_shell" cx="4056.5" cy="3153" rx="2.9685" ry="2.9685" layerid="11" stroke-width="0"/><polyline c_etype="pad_hole" points="4056.5 3152.9995 4056.5 3153.0005" layerid="11" stroke-width="3.936"></polyline></g><g c_partid="part_pad" c_etype="pinpart" c_origin="4066.5,3153" layerid="11" number="10" net="SOUND_SENS" plated ="Y"  id="gge891" locked="0" c_rotation="90" c_width="5.937" c_height="5.937" title="SOUND_SENS" c_shape="ELLIPSE" pasteexpansion="0" solderexpansion="0.19685"><ellipse c_etype="pad_shell" cx="4066.5" cy="3153" rx="2.9685" ry="2.9685" layerid="11" stroke-width="0"/><polyline c_etype="pad_hole" points="4066.5 3153.0005 4066.5 3152.9995" layerid="11" stroke-width="3.936"></polyline></g><g c_partid="part_pad" c_etype="pinpart" c_origin="4076.5,3153" layerid="11" number="11" net="U1_11" plated ="Y"  id="gge906" locked="0" c_rotation="90" c_width="5.937" c_height="5.937" title="U1_11" c_shape="ELLIPSE" pasteexpansion="0" solderexpansion="0.19685"><ellipse c_etype="pad_shell" cx="4076.5" cy="3153" rx="2.9685" ry="2.9685" layerid="11" stroke-width="0"/><polyline c_etype="pad_hole" points="4076.5 3153.0005 4076.5 3152.9995" layerid="11" stroke-width="3.936"></polyline></g><g c_partid="part_pad" c_etype="pinpart" c_origin="4086.5,3153" layerid="11" number="12" net="" plated ="Y"  id="gge921" locked="0" c_rotation="90" c_width="5.937" c_height="5.937" title="" c_shape="ELLIPSE" pasteexpansion="0" solderexpansion="0.19685"><ellipse c_etype="pad_shell" cx="4086.5" cy="3153" rx="2.9685" ry="2.9685" layerid="11" stroke-width="0"/><polyline c_etype="pad_hole" points="4086.5 3152.9995 4086.5 3153.0005" layerid="11" stroke-width="3.936"></polyline></g><g c_partid="part_pad" c_etype="pinpart" c_origin="4096.5,3153" layerid="11" number="13" net="SENS_PWR" plated ="Y"  id="gge936" locked="0" c_rotation="90" c_width="5.937" c_height="5.937" title="SENS_PWR" c_shape="ELLIPSE" pasteexpansion="0" solderexpansion="0.19685"><ellipse c_etype="pad_shell" cx="4096.5" cy="3153" rx="2.9685" ry="2.9685" layerid="11" stroke-width="0"/><polyline c_etype="pad_hole" points="4096.5 3153.0005 4096.5 3152.9995" layerid="11" stroke-width="3.936"></polyline></g><g c_partid="part_pad" c_etype="pinpart" c_origin="4106.5,3153" layerid="11" number="14" net="" plated ="Y"  id="gge951" locked="0" c_rotation="90" c_width="5.937" c_height="5.937" title="" c_shape="ELLIPSE" pasteexpansion="0" solderexpansion="0.19685"><ellipse c_etype="pad_shell" cx="4106.5" cy="3153" rx="2.9685" ry="2.9685" layerid="11" stroke-width="0"/><polyline c_etype="pad_hole" points="4106.5 3152.9995 4106.5 3153.0005" layerid="11" stroke-width="3.936"></polyline></g><g c_partid="part_pad" c_etype="pinpart" c_origin="4116.5,3153" layerid="11" number="15" net="" plated ="Y"  id="gge966" locked="0" c_rotation="90" c_width="5.937" c_height="5.937" title="" c_shape="ELLIPSE" pasteexpansion="0" solderexpansion="0.19685"><ellipse c_etype="pad_shell" cx="4116.5" cy="3153" rx="2.9685" ry="2.9685" layerid="11" stroke-width="0"/><polyline c_etype="pad_hole" points="4116.5 3152.9995 4116.5 3153.0005" layerid="11" stroke-width="3.936"></polyline></g><g c_partid="part_pad" c_etype="pinpart" c_origin="4170.5,3257" layerid="11" number="1" net="UV_SENS" plated ="Y"  id="gge17954" locked="0" c_rotation="0" c_width="6.2" c_height="6.2" title="UV_SENS" c_shape="RECT" pasteexpansion="0" solderexpansion="0.2"><polygon  c_etype="pad_shell" points="4167.4 3253.9 4173.6 3253.9 4173.6 3260.1 4167.4 3260.1" layerid="11" stroke-width="0" /><circle c_etype="pad_hole" cx="4170.5" cy="3257" r="1.75" layerid="11" stroke-width="0"/></g><g c_partid="part_pad" c_etype="pinpart" c_origin="4180.5,3257" layerid="11" number="2" net="GND_BOARD" plated ="Y"  id="gge17969" locked="0" c_rotation="0" c_width="6.2" c_height="6.2" title="GND_BOARD" c_shape="ELLIPSE" pasteexpansion="0" solderexpansion="0.2"><ellipse c_etype="pad_shell" cx="4180.5" cy="3257" rx="3.1" ry="3.1" layerid="11" stroke-width="0"/><circle c_etype="pad_hole" cx="4180.5" cy="3257" r="1.75" layerid="11" stroke-width="0"/></g><g c_partid="part_pad" c_etype="pinpart" c_origin="4190.5,3257" layerid="11" number="3" net="SENS_PWR" plated ="Y"  id="gge17984" locked="0" c_rotation="0" c_width="6.2" c_height="6.2" title="SENS_PWR" c_shape="ELLIPSE" pasteexpansion="0" solderexpansion="0.2"><ellipse c_etype="pad_shell" cx="4190.5" cy="3257" rx="3.1" ry="3.1" layerid="11" stroke-width="0"/><circle c_etype="pad_hole" cx="4190.5" cy="3257" r="1.8" layerid="11" stroke-width="0"/></g><g c_partid="part_pad" c_etype="pinpart" c_origin="4246.5,3142.07" layerid="11" number="1" net="SOUND_SENS" plated ="Y"  id="gge18035" locked="0" c_rotation="0" c_width="6.2" c_height="6.2" title="SOUND_SENS" c_shape="RECT" pasteexpansion="0" solderexpansion="0.2"><polygon  c_etype="pad_shell" points="4243.4 3138.97 4249.6 3138.97 4249.6 3145.17 4243.4 3145.17" layerid="11" stroke-width="0" /><circle c_etype="pad_hole" cx="4246.5" cy="3142.07" r="1.75" layerid="11" stroke-width="0"/></g><g c_partid="part_pad" c_etype="pinpart" c_origin="4256.5,3142.07" layerid="11" number="2" net="GND_BOARD" plated ="Y"  id="gge18050" locked="0" c_rotation="0" c_width="6.2" c_height="6.2" title="GND_BOARD" c_shape="ELLIPSE" pasteexpansion="0" solderexpansion="0.2"><ellipse c_etype="pad_shell" cx="4256.5" cy="3142.07" rx="3.1" ry="3.1" layerid="11" stroke-width="0"/><circle c_etype="pad_hole" cx="4256.5" cy="3142.07" r="1.75" layerid="11" stroke-width="0"/></g><g c_partid="part_pad" c_etype="pinpart" c_origin="4266.5,3142.07" layerid="11" number="3" net="SENS_PWR" plated ="Y"  id="gge18065" locked="0" c_rotation="0" c_width="6.2" c_height="6.2" title="SENS_PWR" c_shape="ELLIPSE" pasteexpansion="0" solderexpansion="0.2"><ellipse c_etype="pad_shell" cx="4266.5" cy="3142.07" rx="3.1" ry="3.1" layerid="11" stroke-width="0"/><circle c_etype="pad_hole" cx="4266.5" cy="3142.07" r="1.8" layerid="11" stroke-width="0"/></g><g c_partid="part_pad" c_etype="pinpart" c_origin="4170.5,3142.02" layerid="11" number="1" net="SDA" plated ="Y"  id="gge18122" locked="0" c_rotation="0" c_width="6.2" c_height="6.2" title="SDA" c_shape="RECT" pasteexpansion="0" solderexpansion="0.2"><polygon  c_etype="pad_shell" points="4167.4 3138.92 4173.6 3138.92 4173.6 3145.12 4167.4 3145.12" layerid="11" stroke-width="0" /><circle c_etype="pad_hole" cx="4170.5" cy="3142.02" r="1.75" layerid="11" stroke-width="0"/></g><g c_partid="part_pad" c_etype="pinpart" c_origin="4180.5,3142.02" layerid="11" number="2" net="SCL" plated ="Y"  id="gge18137" locked="0" c_rotation="0" c_width="6.2" c_height="6.2" title="SCL" c_shape="ELLIPSE" pasteexpansion="0" solderexpansion="0.2"><ellipse c_etype="pad_shell" cx="4180.5" cy="3142.02" rx="3.1" ry="3.1" layerid="11" stroke-width="0"/><circle c_etype="pad_hole" cx="4180.5" cy="3142.02" r="1.75" layerid="11" stroke-width="0"/></g><g c_partid="part_pad" c_etype="pinpart" c_origin="4190.5,3142.02" layerid="11" number="3" net="GND_BOARD" plated ="Y"  id="gge18152" locked="0" c_rotation="0" c_width="6.2" c_height="6.2" title="GND_BOARD" c_shape="ELLIPSE" pasteexpansion="0" solderexpansion="0.2"><ellipse c_etype="pad_shell" cx="4190.5" cy="3142.02" rx="3.1" ry="3.1" layerid="11" stroke-width="0"/><circle c_etype="pad_hole" cx="4190.5" cy="3142.02" r="1.75" layerid="11" stroke-width="0"/></g><g c_partid="part_pad" c_etype="pinpart" c_origin="4200.5,3142.02" layerid="11" number="4" net="SENS_PWR" plated ="Y"  id="gge18167" locked="0" c_rotation="0" c_width="6.2" c_height="6.2" title="SENS_PWR" c_shape="ELLIPSE" pasteexpansion="0" solderexpansion="0.2"><ellipse c_etype="pad_shell" cx="4200.5" cy="3142.02" rx="3.1" ry="3.1" layerid="11" stroke-width="0"/><circle c_etype="pad_hole" cx="4200.5" cy="3142.02" r="1.75" layerid="11" stroke-width="0"/></g><g c_partid="part_pad" c_etype="pinpart" c_origin="4072.5,3136" layerid="11" number="1" net="U1_11" plated ="Y"  id="gge18218" locked="0" c_rotation="90" c_width="6.2" c_height="6.2" title="U1_11" c_shape="RECT" pasteexpansion="0" solderexpansion="0.2"><polygon  c_etype="pad_shell" points="4069.4 3139.1 4069.4 3132.9 4075.6 3132.9 4075.6 3139.1" layerid="11" stroke-width="0" /><circle c_etype="pad_hole" cx="4072.5" cy="3136" r="1.75" layerid="11" stroke-width="0"/></g><g c_partid="part_pad" c_etype="pinpart" c_origin="4062.5,3136" layerid="11" number="2" net="U1_9" plated ="Y"  id="gge18233" locked="0" c_rotation="90" c_width="6.2" c_height="6.2" title="U1_9" c_shape="ELLIPSE" pasteexpansion="0" solderexpansion="0.2"><ellipse c_etype="pad_shell" cx="4062.5" cy="3136" rx="3.1" ry="3.1" layerid="11" stroke-width="0"/><circle c_etype="pad_hole" cx="4062.5" cy="3136" r="1.75" layerid="11" stroke-width="0"/></g><g c_partid="part_pad" c_etype="pinpart" c_origin="4253.29,3257" layerid="11" number="1" net="BAT_SENS_BOARD" plated ="Y"  id="gge18284" locked="0" c_rotation="0" c_width="6.2" c_height="6.2" title="BAT_SENS_BOARD" c_shape="RECT" pasteexpansion="0" solderexpansion="0.2"><polygon  c_etype="pad_shell" points="4250.19 3253.9 4256.39 3253.9 4256.39 3260.1 4250.19 3260.1" layerid="11" stroke-width="0" /><circle c_etype="pad_hole" cx="4253.29" cy="3257" r="1.75" layerid="11" stroke-width="0"/></g><g c_partid="part_pad" c_etype="pinpart" c_origin="4263.29,3257" layerid="11" number="2" net="GND_BOARD" plated ="Y"  id="gge18299" locked="0" c_rotation="0" c_width="6.2" c_height="6.2" title="GND_BOARD" c_shape="ELLIPSE" pasteexpansion="0" solderexpansion="0.2"><ellipse c_etype="pad_shell" cx="4263.29" cy="3257" rx="3.1" ry="3.1" layerid="11" stroke-width="0"/><circle c_etype="pad_hole" cx="4263.29" cy="3257" r="1.75" layerid="11" stroke-width="0"/></g><g c_partid="part_pad" c_etype="pinpart" c_origin="4273.29,3257" layerid="11" number="3" net="5V_BOARD" plated ="Y"  id="gge18314" locked="0" c_rotation="0" c_width="6.2" c_height="6.2" title="5V_BOARD" c_shape="ELLIPSE" pasteexpansion="0" solderexpansion="0.2"><ellipse c_etype="pad_shell" cx="4273.29" cy="3257" rx="3.1" ry="3.1" layerid="11" stroke-width="0"/><circle c_etype="pad_hole" cx="4273.29" cy="3257" r="1.8" layerid="11" stroke-width="0"/></g><g c_partid="part_via" c_etype="pinpart" c_shapetype="group" net="SCL" c_origin="4194.595,3208.346" layerid="11" id="gge18473" locked="0" solderexpansion=""><circle cx="4194.595" cy="3208.346" r="1.2008" stroke-width="0" c_etype="pad_shell"/><circle cx="4194.595" cy="3208.346" r="0.6004"  stroke-width="0" c_etype="pad_hole"/></g><g c_partid="part_hole" c_etype="pinpart" c_shapetype="group" c_origin="4178.5,3174" layerid="11" id="gge1116" locked="0" ><circle cx="4178.5" cy="3174" r="5"  stroke-width="0" /></g><g c_partid="part_hole" c_etype="pinpart" c_shapetype="group" c_origin="4268.5,3174" layerid="11" id="gge1128" locked="0" ><circle cx="4268.5" cy="3174" r="5"  stroke-width="0" /></g><polyline points="4168.5 3164 4278.5 3164 4278.5 3232 4168.5 3232 4168.5 3164" stroke-width="1"  stroke-linecap="round" fill="none" layerid="3" net="" id="gge1140" locked="0" /><polyline points="4185.5 3252 4195.5 3252 4195.5 3261.9 4165.5 3261.9 4165.5 3252 4185.5 3252" stroke-width="0.8"  stroke-linecap="round" fill="none" layerid="3" net="" id="gge17945" locked="0" /><polyline points="4261.5 3137.07 4271.5 3137.07 4271.5 3146.97 4241.5 3146.97 4241.5 3137.07 4261.5 3137.07" stroke-width="0.8"  stroke-linecap="round" fill="none" layerid="3" net="" id="gge18026" locked="0" /><polyline points="4205.5 3137.02 4205.5 3147.02 4165.5 3147.02 4165.5 3137.02 4173 3137.02" stroke-width="0.8"  stroke-linecap="round" fill="none" layerid="3" net="" id="gge18092" locked="0" /><polyline points="4205.5 3137.02 4173 3137.02" stroke-width="0.79921"  stroke-linecap="round" fill="none" layerid="3" net="" id="gge18095" locked="0" /><polyline points="4057.5 3141 4057.5 3131.1 4077.5 3131.1 4077.5 3141 4057.5 3141" stroke-width="0.8"  stroke-linecap="round" fill="none" layerid="3" net="" id="gge18197" locked="0" /><polyline points="4268.29 3252 4278.29 3252 4278.29 3261.9 4248.29 3261.9 4248.29 3252 4268.29 3252" stroke-width="0.8"  stroke-linecap="round" fill="none" layerid="3" net="" id="gge18275" locked="0" /><g c_partid="part_pcbtext" c_etype="" c_origin="4223,3155.5" c_rotation="0" c_mirror="0" id="gge1104" locked="0" layerid="3" c_shapetype="group" display="none"><path c_fontsize="4.5" c_fontfamily="" c_text="Adafruit ADS1115 Board" d="M 4224.64 3150.96 L 4223 3155.25 M 4224.64 3150.96 L 4226.27 3155.25 M 4223.61 3153.82 L 4225.66 3153.82 M 4230.08 3150.96 L 4230.08 3155.25 M 4230.08 3153 L 4229.67 3152.6 L 4229.26 3152.39 L 4228.65 3152.39 L 4228.24 3152.6 L 4227.83 3153 L 4227.62 3153.62 L 4227.62 3154.03 L 4227.83 3154.64 L 4228.24 3155.05 L 4228.65 3155.25 L 4229.26 3155.25 L 4229.67 3155.05 L 4230.08 3154.64 M 4233.88 3152.39 L 4233.88 3155.25 M 4233.88 3153 L 4233.47 3152.6 L 4233.06 3152.39 L 4232.45 3152.39 L 4232.04 3152.6 L 4231.63 3153 L 4231.43 3153.62 L 4231.43 3154.03 L 4231.63 3154.64 L 4232.04 3155.05 L 4232.45 3155.25 L 4233.06 3155.25 L 4233.47 3155.05 L 4233.88 3154.64 M 4236.87 3150.96 L 4236.46 3150.96 L 4236.05 3151.16 L 4235.85 3151.78 L 4235.85 3155.25 M 4235.23 3152.39 L 4236.66 3152.39 M 4238.22 3152.39 L 4238.22 3155.25 M 4238.22 3153.62 L 4238.42 3153 L 4238.83 3152.6 L 4239.24 3152.39 L 4239.85 3152.39 M 4241.2 3152.39 L 4241.2 3154.44 L 4241.41 3155.05 L 4241.82 3155.25 L 4242.43 3155.25 L 4242.84 3155.05 L 4243.45 3154.44 M 4243.45 3152.39 L 4243.45 3155.25 M 4244.8 3150.96 L 4245.01 3151.16 L 4245.21 3150.96 L 4245.01 3150.75 L 4244.8 3150.96 M 4245.01 3152.39 L 4245.01 3155.25 M 4247.18 3150.96 L 4247.18 3154.44 L 4247.38 3155.05 L 4247.79 3155.25 L 4248.2 3155.25 M 4246.56 3152.39 L 4248 3152.39 M 4254.34 3150.96 L 4252.7 3155.25 M 4254.34 3150.96 L 4255.97 3155.25 M 4253.31 3153.82 L 4255.36 3153.82 M 4257.32 3150.96 L 4257.32 3155.25 M 4257.32 3150.96 L 4258.75 3150.96 L 4259.37 3151.16 L 4259.78 3151.57 L 4259.98 3151.98 L 4260.19 3152.6 L 4260.19 3153.62 L 4259.98 3154.23 L 4259.78 3154.64 L 4259.37 3155.05 L 4258.75 3155.25 L 4257.32 3155.25 M 4264.4 3151.57 L 4263.99 3151.16 L 4263.38 3150.96 L 4262.56 3150.96 L 4261.95 3151.16 L 4261.54 3151.57 L 4261.54 3151.98 L 4261.74 3152.39 L 4261.95 3152.6 L 4262.35 3152.8 L 4263.58 3153.21 L 4263.99 3153.41 L 4264.2 3153.62 L 4264.4 3154.03 L 4264.4 3154.64 L 4263.99 3155.05 L 4263.38 3155.25 L 4262.56 3155.25 L 4261.95 3155.05 L 4261.54 3154.64 M 4265.75 3151.78 L 4266.16 3151.57 L 4266.77 3150.96 L 4266.77 3155.25 M 4268.12 3151.78 L 4268.53 3151.57 L 4269.15 3150.96 L 4269.15 3155.25 M 4270.5 3151.78 L 4270.9 3151.57 L 4271.52 3150.96 L 4271.52 3155.25 M 4275.32 3150.96 L 4273.28 3150.96 L 4273.07 3152.8 L 4273.28 3152.6 L 4273.89 3152.39 L 4274.5 3152.39 L 4275.12 3152.6 L 4275.53 3153 L 4275.73 3153.62 L 4275.73 3154.03 L 4275.53 3154.64 L 4275.12 3155.05 L 4274.5 3155.25 L 4273.89 3155.25 L 4273.28 3155.05 L 4273.07 3154.85 L 4272.87 3154.44 M 4280.23 3150.96 L 4280.23 3155.25 M 4280.23 3150.96 L 4282.07 3150.96 L 4282.69 3151.16 L 4282.89 3151.37 L 4283.1 3151.78 L 4283.1 3152.19 L 4282.89 3152.6 L 4282.69 3152.8 L 4282.07 3153 M 4280.23 3153 L 4282.07 3153 L 4282.69 3153.21 L 4282.89 3153.41 L 4283.1 3153.82 L 4283.1 3154.44 L 4282.89 3154.85 L 4282.69 3155.05 L 4282.07 3155.25 L 4280.23 3155.25 M 4285.47 3152.39 L 4285.06 3152.6 L 4284.65 3153 L 4284.45 3153.62 L 4284.45 3154.03 L 4284.65 3154.64 L 4285.06 3155.05 L 4285.47 3155.25 L 4286.08 3155.25 L 4286.49 3155.05 L 4286.9 3154.64 L 4287.1 3154.03 L 4287.1 3153.62 L 4286.9 3153 L 4286.49 3152.6 L 4286.08 3152.39 L 4285.47 3152.39 M 4290.91 3152.39 L 4290.91 3155.25 M 4290.91 3153 L 4290.5 3152.6 L 4290.09 3152.39 L 4289.48 3152.39 L 4289.07 3152.6 L 4288.66 3153 L 4288.45 3153.62 L 4288.45 3154.03 L 4288.66 3154.64 L 4289.07 3155.05 L 4289.48 3155.25 L 4290.09 3155.25 L 4290.5 3155.05 L 4290.91 3154.64 M 4292.26 3152.39 L 4292.26 3155.25 M 4292.26 3153.62 L 4292.46 3153 L 4292.87 3152.6 L 4293.28 3152.39 L 4293.9 3152.39 M 4297.7 3150.96 L 4297.7 3155.25 M 4297.7 3153 L 4297.29 3152.6 L 4296.88 3152.39 L 4296.27 3152.39 L 4295.86 3152.6 L 4295.45 3153 L 4295.25 3153.62 L 4295.25 3154.03 L 4295.45 3154.64 L 4295.86 3155.05 L 4296.27 3155.25 L 4296.88 3155.25 L 4297.29 3155.05 L 4297.7 3154.64" fill="none"  stroke-width="0.6" c_note="note_name" /></g><g c_partid="part_pcbtext" c_etype="" c_origin="4227.84,3180.397" c_rotation="0" c_mirror="0" id="gge1110" locked="0" layerid="3" c_shapetype="group" display="none"><path c_fontsize="4.5" c_fontfamily="" c_text="U4" d="M 4227.8401 3175.857 L 4227.8401 3178.927 L 4228.0401 3179.537 L 4228.4501 3179.947 L 4229.0701 3180.147 L 4229.4801 3180.147 L 4230.0901 3179.947 L 4230.5001 3179.537 L 4230.7001 3178.927 L 4230.7001 3175.857 M 4234.1001 3175.857 L 4232.0501 3178.717 L 4235.1201 3178.717 M 4234.1001 3175.857 L 4234.1001 3180.147" fill="none"  stroke-width="0.6" c_note="note_pre" /></g><g c_partid="part_pcbtext" c_etype="pinpart" c_origin="4203,3200.5" c_rotation="0" c_mirror="0" id="gge1293" locked="0" layerid="3" c_shapetype="group" ><path c_fontsize="8" c_fontfamily="" c_text="ADS1115" d="M 4205.91 3192.43 L 4203 3200.06 M 4205.91 3192.43 L 4208.82 3200.06 M 4204.09 3197.52 L 4207.73 3197.52 M 4211.22 3192.43 L 4211.22 3200.06 M 4211.22 3192.43 L 4213.76 3192.43 L 4214.85 3192.79 L 4215.58 3193.52 L 4215.95 3194.25 L 4216.31 3195.34 L 4216.31 3197.15 L 4215.95 3198.25 L 4215.58 3198.97 L 4214.85 3199.7 L 4213.76 3200.06 L 4211.22 3200.06 M 4223.8 3193.52 L 4223.07 3192.79 L 4221.98 3192.43 L 4220.53 3192.43 L 4219.44 3192.79 L 4218.71 3193.52 L 4218.71 3194.25 L 4219.07 3194.97 L 4219.44 3195.34 L 4220.16 3195.7 L 4222.35 3196.43 L 4223.07 3196.79 L 4223.44 3197.15 L 4223.8 3197.88 L 4223.8 3198.97 L 4223.07 3199.7 L 4221.98 3200.06 L 4220.53 3200.06 L 4219.44 3199.7 L 4218.71 3198.97 M 4226.2 3193.88 L 4226.93 3193.52 L 4228.02 3192.43 L 4228.02 3200.06 M 4230.42 3193.88 L 4231.15 3193.52 L 4232.24 3192.43 L 4232.24 3200.06 M 4234.64 3193.88 L 4235.36 3193.52 L 4236.45 3192.43 L 4236.45 3200.06 M 4243.22 3192.43 L 4239.58 3192.43 L 4239.22 3195.7 L 4239.58 3195.34 L 4240.67 3194.97 L 4241.76 3194.97 L 4242.85 3195.34 L 4243.58 3196.06 L 4243.95 3197.15 L 4243.95 3197.88 L 4243.58 3198.97 L 4242.85 3199.7 L 4241.76 3200.06 L 4240.67 3200.06 L 4239.58 3199.7 L 4239.22 3199.34 L 4238.85 3198.61" fill="none"  stroke-width="0.8"  /></g><g c_partid="part_pcbtext" c_etype="pinpart" c_origin="4176,3230" c_rotation="0" c_mirror="0" id="gge1299" locked="0" layerid="3" c_shapetype="group" ><path c_fontsize="2" c_fontfamily="" c_text="VDD" d="M 4176 3227.98 L 4176.73 3229.89 M 4177.45 3227.98 L 4176.73 3229.89 M 4178.05 3227.98 L 4178.05 3229.89 M 4178.05 3227.98 L 4178.69 3227.98 L 4178.96 3228.07 L 4179.15 3228.25 L 4179.24 3228.44 L 4179.33 3228.71 L 4179.33 3229.16 L 4179.24 3229.44 L 4179.15 3229.62 L 4178.96 3229.8 L 4178.69 3229.89 L 4178.05 3229.89 M 4179.93 3227.98 L 4179.93 3229.89 M 4179.93 3227.98 L 4180.56 3227.98 L 4180.84 3228.07 L 4181.02 3228.25 L 4181.11 3228.44 L 4181.2 3228.71 L 4181.2 3229.16 L 4181.11 3229.44 L 4181.02 3229.62 L 4180.84 3229.8 L 4180.56 3229.89 L 4179.93 3229.89" fill="none"  stroke-width="0.4"  /></g><g c_partid="part_pcbtext" c_etype="pinpart" c_origin="4186,3230" c_rotation="0" c_mirror="0" id="gge1305" locked="0" layerid="3" c_shapetype="group" ><path c_fontsize="2" c_fontfamily="" c_text="GND" d="M 4187.36 3228.44 L 4187.27 3228.25 L 4187.09 3228.07 L 4186.91 3227.98 L 4186.55 3227.98 L 4186.36 3228.07 L 4186.18 3228.25 L 4186.09 3228.44 L 4186 3228.71 L 4186 3229.16 L 4186.09 3229.44 L 4186.18 3229.62 L 4186.36 3229.8 L 4186.55 3229.89 L 4186.91 3229.89 L 4187.09 3229.8 L 4187.27 3229.62 L 4187.36 3229.44 L 4187.36 3229.16 M 4186.91 3229.16 L 4187.36 3229.16 M 4187.96 3227.98 L 4187.96 3229.89 M 4187.96 3227.98 L 4189.24 3229.89 M 4189.24 3227.98 L 4189.24 3229.89 M 4189.84 3227.98 L 4189.84 3229.89 M 4189.84 3227.98 L 4190.47 3227.98 L 4190.75 3228.07 L 4190.93 3228.25 L 4191.02 3228.44 L 4191.11 3228.71 L 4191.11 3229.16 L 4191.02 3229.44 L 4190.93 3229.62 L 4190.75 3229.8 L 4190.47 3229.89 L 4189.84 3229.89" fill="none"  stroke-width="0.4"  /></g><g c_partid="part_pcbtext" c_etype="pinpart" c_origin="4196,3230" c_rotation="0" c_mirror="0" id="gge1311" locked="0" layerid="3" c_shapetype="group" ><path c_fontsize="2" c_fontfamily="" c_text="SCL" d="M 4197.27 3228.25 L 4197.09 3228.07 L 4196.82 3227.98 L 4196.45 3227.98 L 4196.18 3228.07 L 4196 3228.25 L 4196 3228.44 L 4196.09 3228.62 L 4196.18 3228.71 L 4196.36 3228.8 L 4196.91 3228.98 L 4197.09 3229.07 L 4197.18 3229.16 L 4197.27 3229.35 L 4197.27 3229.62 L 4197.09 3229.8 L 4196.82 3229.89 L 4196.45 3229.89 L 4196.18 3229.8 L 4196 3229.62 M 4199.24 3228.44 L 4199.15 3228.25 L 4198.96 3228.07 L 4198.78 3227.98 L 4198.42 3227.98 L 4198.24 3228.07 L 4198.05 3228.25 L 4197.96 3228.44 L 4197.87 3228.71 L 4197.87 3229.16 L 4197.96 3229.44 L 4198.05 3229.62 L 4198.24 3229.8 L 4198.42 3229.89 L 4198.78 3229.89 L 4198.96 3229.8 L 4199.15 3229.62 L 4199.24 3229.44 M 4199.84 3227.98 L 4199.84 3229.89 M 4199.84 3229.89 L 4200.93 3229.89" fill="none"  stroke-width="0.4"  /></g><g c_partid="part_pcbtext" c_etype="pinpart" c_origin="4206,3230" c_rotation="0" c_mirror="0" id="gge1317" locked="0" layerid="3" c_shapetype="group" ><path c_fontsize="2" c_fontfamily="" c_text="SDA" d="M 4207.27 3228.25 L 4207.09 3228.07 L 4206.82 3227.98 L 4206.45 3227.98 L 4206.18 3228.07 L 4206 3228.25 L 4206 3228.44 L 4206.09 3228.62 L 4206.18 3228.71 L 4206.36 3228.8 L 4206.91 3228.98 L 4207.09 3229.07 L 4207.18 3229.16 L 4207.27 3229.35 L 4207.27 3229.62 L 4207.09 3229.8 L 4206.82 3229.89 L 4206.45 3229.89 L 4206.18 3229.8 L 4206 3229.62 M 4207.87 3227.98 L 4207.87 3229.89 M 4207.87 3227.98 L 4208.51 3227.98 L 4208.78 3228.07 L 4208.96 3228.25 L 4209.05 3228.44 L 4209.15 3228.71 L 4209.15 3229.16 L 4209.05 3229.44 L 4208.96 3229.62 L 4208.78 3229.8 L 4208.51 3229.89 L 4207.87 3229.89 M 4210.47 3227.98 L 4209.75 3229.89 M 4210.47 3227.98 L 4211.2 3229.89 M 4210.02 3229.25 L 4210.93 3229.25" fill="none"  stroke-width="0.4"  /></g><g c_partid="part_pcbtext" c_etype="pinpart" c_origin="4215,3230" c_rotation="0" c_mirror="0" id="gge1323" locked="0" layerid="3" c_shapetype="group" ><path c_fontsize="2" c_fontfamily="" c_text="ADDR" d="M 4215.73 3227.98 L 4215 3229.89 M 4215.73 3227.98 L 4216.45 3229.89 M 4215.27 3229.25 L 4216.18 3229.25 M 4217.05 3227.98 L 4217.05 3229.89 M 4217.05 3227.98 L 4217.69 3227.98 L 4217.96 3228.07 L 4218.15 3228.25 L 4218.24 3228.44 L 4218.33 3228.71 L 4218.33 3229.16 L 4218.24 3229.44 L 4218.15 3229.62 L 4217.96 3229.8 L 4217.69 3229.89 L 4217.05 3229.89 M 4218.93 3227.98 L 4218.93 3229.89 M 4218.93 3227.98 L 4219.56 3227.98 L 4219.84 3228.07 L 4220.02 3228.25 L 4220.11 3228.44 L 4220.2 3228.71 L 4220.2 3229.16 L 4220.11 3229.44 L 4220.02 3229.62 L 4219.84 3229.8 L 4219.56 3229.89 L 4218.93 3229.89 M 4220.8 3227.98 L 4220.8 3229.89 M 4220.8 3227.98 L 4221.62 3227.98 L 4221.89 3228.07 L 4221.98 3228.16 L 4222.07 3228.35 L 4222.07 3228.53 L 4221.98 3228.71 L 4221.89 3228.8 L 4221.62 3228.89 L 4220.8 3228.89 M 4221.44 3228.89 L 4222.07 3229.89" fill="none"  stroke-width="0.4"  /></g><g c_partid="part_pcbtext" c_etype="pinpart" c_origin="4225,3230" c_rotation="0" c_mirror="0" id="gge1329" locked="0" layerid="3" c_shapetype="group" ><path c_fontsize="2" c_fontfamily="" c_text="ALRT" d="M 4225.73 3227.98 L 4225 3229.89 M 4225.73 3227.98 L 4226.45 3229.89 M 4225.27 3229.25 L 4226.18 3229.25 M 4227.05 3227.98 L 4227.05 3229.89 M 4227.05 3229.89 L 4228.15 3229.89 M 4228.75 3227.98 L 4228.75 3229.89 M 4228.75 3227.98 L 4229.56 3227.98 L 4229.84 3228.07 L 4229.93 3228.16 L 4230.02 3228.35 L 4230.02 3228.53 L 4229.93 3228.71 L 4229.84 3228.8 L 4229.56 3228.89 L 4228.75 3228.89 M 4229.38 3228.89 L 4230.02 3229.89 M 4231.25 3227.98 L 4231.25 3229.89 M 4230.62 3227.98 L 4231.89 3227.98" fill="none"  stroke-width="0.4"  /></g><g c_partid="part_pcbtext" c_etype="pinpart" c_origin="4237,3230" c_rotation="0" c_mirror="0" id="gge1335" locked="0" layerid="3" c_shapetype="group" ><path c_fontsize="2" c_fontfamily="" c_text="A0" d="M 4237.73 3227.98 L 4237 3229.89 M 4237.73 3227.98 L 4238.45 3229.89 M 4237.27 3229.25 L 4238.18 3229.25 M 4239.6 3227.98 L 4239.33 3228.07 L 4239.15 3228.35 L 4239.05 3228.8 L 4239.05 3229.07 L 4239.15 3229.53 L 4239.33 3229.8 L 4239.6 3229.89 L 4239.78 3229.89 L 4240.05 3229.8 L 4240.24 3229.53 L 4240.33 3229.07 L 4240.33 3228.8 L 4240.24 3228.35 L 4240.05 3228.07 L 4239.78 3227.98 L 4239.6 3227.98" fill="none"  stroke-width="0.4"  /></g><g c_partid="part_pcbtext" c_etype="pinpart" c_origin="4247,3230" c_rotation="0" c_mirror="0" id="gge1341" locked="0" layerid="3" c_shapetype="group" ><path c_fontsize="2" c_fontfamily="" c_text="A1" d="M 4247.73 3227.98 L 4247 3229.89 M 4247.73 3227.98 L 4248.45 3229.89 M 4247.27 3229.25 L 4248.18 3229.25 M 4249.05 3228.35 L 4249.24 3228.25 L 4249.51 3227.98 L 4249.51 3229.89" fill="none"  stroke-width="0.4"  /></g><g c_partid="part_pcbtext" c_etype="pinpart" c_origin="4257,3230" c_rotation="0" c_mirror="0" id="gge1347" locked="0" layerid="3" c_shapetype="group" ><path c_fontsize="2" c_fontfamily="" c_text="A2" d="M 4257.73 3227.98 L 4257 3229.89 M 4257.73 3227.98 L 4258.45 3229.89 M 4257.27 3229.25 L 4258.18 3229.25 M 4259.15 3228.44 L 4259.15 3228.35 L 4259.24 3228.16 L 4259.33 3228.07 L 4259.51 3227.98 L 4259.87 3227.98 L 4260.05 3228.07 L 4260.15 3228.16 L 4260.24 3228.35 L 4260.24 3228.53 L 4260.15 3228.71 L 4259.96 3228.98 L 4259.05 3229.89 L 4260.33 3229.89" fill="none"  stroke-width="0.4"  /></g><g c_partid="part_pcbtext" c_etype="pinpart" c_origin="4267,3230" c_rotation="0" c_mirror="0" id="gge1353" locked="0" layerid="3" c_shapetype="group" ><path c_fontsize="2" c_fontfamily="" c_text="A3" d="M 4267.73 3227.98 L 4267 3229.89 M 4267.73 3227.98 L 4268.45 3229.89 M 4267.27 3229.25 L 4268.18 3229.25 M 4269.24 3227.98 L 4270.24 3227.98 L 4269.69 3228.71 L 4269.96 3228.71 L 4270.15 3228.8 L 4270.24 3228.89 L 4270.33 3229.16 L 4270.33 3229.35 L 4270.24 3229.62 L 4270.05 3229.8 L 4269.78 3229.89 L 4269.51 3229.89 L 4269.24 3229.8 L 4269.15 3229.71 L 4269.05 3229.53" fill="none"  stroke-width="0.4"  /></g><g c_partid="part_pcbtext" c_etype="" c_origin="4179.5,3243.995" c_rotation="0" c_mirror="0" id="gge117" locked="0" layerid="3" c_shapetype="group" display="none"><path c_fontsize="4.5" c_fontfamily="" c_text="UV" d="M 4179.5 3239.45 L 4179.5 3242.52 L 4179.7 3243.14 L 4180.11 3243.55 L 4180.73 3243.75 L 4181.14 3243.75 L 4181.75 3243.55 L 4182.16 3243.14 L 4182.36 3242.52 L 4182.36 3239.45 M 4183.71 3239.45 L 4185.35 3243.75 M 4186.99 3239.45 L 4185.35 3243.75" fill="none"  stroke-width="0.6" c_note="note_name" /></g><g c_partid="part_pcbtext" c_etype="" c_origin="4164.5,3269.5" c_rotation="0" c_mirror="0" id="gge123" locked="0" layerid="3" c_shapetype="group" ><path c_fontsize="4.5" c_fontfamily="" c_text="UV" d="M 4164.5 3264.96 L 4164.5 3268.03 L 4164.7 3268.64 L 4165.11 3269.05 L 4165.73 3269.25 L 4166.14 3269.25 L 4166.75 3269.05 L 4167.16 3268.64 L 4167.36 3268.03 L 4167.36 3264.96 M 4168.71 3264.96 L 4170.35 3269.25 M 4171.99 3264.96 L 4170.35 3269.25" fill="none"  stroke-width="0.6" c_note="note_pre" /></g><g c_partid="part_pcbtext" c_etype="" c_origin="4255.495,3129.0651" c_rotation="0" c_mirror="0" id="gge204" locked="0" layerid="3" c_shapetype="group" display="none"><path c_fontsize="4.5" c_fontfamily="" c_text="Sound" d="M 4258.36 3125.14L4257.95 3124.73 L4257.34 3124.52 L4256.52 3124.52 L4255.9 3124.73 L4255.5 3125.14 L4255.5 3125.55 L4255.7 3125.96 L4255.9 3126.16 L4256.31 3126.37 L4257.54 3126.77 L4257.95 3126.98 L4258.15 3127.18 L4258.36 3127.59 L4258.36 3128.21 L4257.95 3128.62 L4257.34 3128.82 L4256.52 3128.82 L4255.9 3128.62 L4255.5 3128.21 M 4260.73 3125.96L4260.32 3126.16 L4259.91 3126.57 L4259.71 3127.18 L4259.71 3127.59 L4259.91 3128.21 L4260.32 3128.62 L4260.73 3128.82 L4261.35 3128.82 L4261.75 3128.62 L4262.16 3128.21 L4262.37 3127.59 L4262.37 3127.18 L4262.16 3126.57 L4261.75 3126.16 L4261.35 3125.96 L4260.73 3125.96 M 4263.72 3125.96L4263.72 3128 L4263.92 3128.62 L4264.33 3128.82 L4264.95 3128.82 L4265.35 3128.62 L4265.97 3128 M 4265.97 3125.96L4265.97 3128.82 M 4267.32 3125.96L4267.32 3128.82 M 4267.32 3126.77L4267.93 3126.16 L4268.34 3125.96 L4268.95 3125.96 L4269.36 3126.16 L4269.57 3126.77 L4269.57 3128.82 M 4273.37 3124.52L4273.37 3128.82 M 4273.37 3126.57L4272.96 3126.16 L4272.55 3125.96 L4271.94 3125.96 L4271.53 3126.16 L4271.12 3126.57 L4270.92 3127.18 L4270.92 3127.59 L4271.12 3128.21 L4271.53 3128.62 L4271.94 3128.82 L4272.55 3128.82 L4272.96 3128.62 L4273.37 3128.21 " fill="none"  stroke-width="0.6" c_note="note_name" /></g><g c_partid="part_pcbtext" c_etype="" c_origin="4260.21,3133.0651" c_rotation="0" c_mirror="0" id="gge210" locked="0" layerid="3" c_shapetype="group" ><path c_fontsize="4.5" c_fontfamily="" c_text="SND" d="M 4263.07 3129.14L4262.66 3128.73 L4262.05 3128.52 L4261.23 3128.52 L4260.62 3128.73 L4260.21 3129.14 L4260.21 3129.55 L4260.41 3129.96 L4260.62 3130.16 L4261.03 3130.37 L4262.26 3130.77 L4262.66 3130.98 L4262.87 3131.18 L4263.07 3131.59 L4263.07 3132.21 L4262.66 3132.62 L4262.05 3132.82 L4261.23 3132.82 L4260.62 3132.62 L4260.21 3132.21 M 4264.42 3128.52L4264.42 3132.82 M 4264.42 3128.52L4267.29 3132.82 M 4267.29 3128.52L4267.29 3132.82 M 4268.64 3128.52L4268.64 3132.82 M 4268.64 3128.52L4270.07 3128.52 L4270.68 3128.73 L4271.09 3129.14 L4271.3 3129.55 L4271.5 3130.16 L4271.5 3131.18 L4271.3 3131.8 L4271.09 3132.21 L4270.68 3132.62 L4270.07 3132.82 L4268.64 3132.82 " fill="none"  stroke-width="0.6" c_note="note_pre" /></g><g c_partid="part_pcbtext" c_etype="" c_origin="4184.495,3129.01" c_rotation="0" c_mirror="0" id="gge291" locked="0" layerid="3" c_shapetype="group" display="none"><path c_fontsize="4.5" c_fontfamily="" c_text="BME280" d="M 4184.5 3124.47 L 4184.5 3128.76 M 4184.5 3124.47 L 4186.34 3124.47 L 4186.95 3124.67 L 4187.15 3124.88 L 4187.36 3125.29 L 4187.36 3125.7 L 4187.15 3126.11 L 4186.95 3126.31 L 4186.34 3126.51 M 4184.5 3126.51 L 4186.34 3126.51 L 4186.95 3126.72 L 4187.15 3126.92 L 4187.36 3127.33 L 4187.36 3127.95 L 4187.15 3128.36 L 4186.95 3128.56 L 4186.34 3128.76 L 4184.5 3128.76 M 4188.71 3124.47 L 4188.71 3128.76 M 4188.71 3124.47 L 4190.35 3128.76 M 4191.98 3124.47 L 4190.35 3128.76 M 4191.98 3124.47 L 4191.98 3128.76 M 4193.33 3124.47 L 4193.33 3128.76 M 4193.33 3124.47 L 4195.99 3124.47 M 4193.33 3126.51 L 4194.97 3126.51 M 4193.33 3128.76 L 4195.99 3128.76 M 4197.55 3125.49 L 4197.55 3125.29 L 4197.75 3124.88 L 4197.95 3124.67 L 4198.36 3124.47 L 4199.18 3124.47 L 4199.59 3124.67 L 4199.8 3124.88 L 4200 3125.29 L 4200 3125.7 L 4199.8 3126.11 L 4199.39 3126.72 L 4197.34 3128.76 L 4200.2 3128.76 M 4202.58 3124.47 L 4201.96 3124.67 L 4201.76 3125.08 L 4201.76 3125.49 L 4201.96 3125.9 L 4202.37 3126.11 L 4203.19 3126.31 L 4203.8 3126.51 L 4204.21 3126.92 L 4204.42 3127.33 L 4204.42 3127.95 L 4204.21 3128.36 L 4204.01 3128.56 L 4203.4 3128.76 L 4202.58 3128.76 L 4201.96 3128.56 L 4201.76 3128.36 L 4201.55 3127.95 L 4201.55 3127.33 L 4201.76 3126.92 L 4202.17 3126.51 L 4202.78 3126.31 L 4203.6 3126.11 L 4204.01 3125.9 L 4204.21 3125.49 L 4204.21 3125.08 L 4204.01 3124.67 L 4203.4 3124.47 L 4202.58 3124.47 M 4207 3124.47 L 4206.38 3124.67 L 4205.97 3125.29 L 4205.77 3126.31 L 4205.77 3126.92 L 4205.97 3127.95 L 4206.38 3128.56 L 4207 3128.76 L 4207.4 3128.76 L 4208.02 3128.56 L 4208.43 3127.95 L 4208.63 3126.92 L 4208.63 3126.31 L 4208.43 3125.29 L 4208.02 3124.67 L 4207.4 3124.47 L 4207 3124.47" fill="none"  stroke-width="0.6" c_note="note_name" /></g><g c_partid="part_pcbtext" c_etype="" c_origin="4164.5,3133.0651" c_rotation="0" c_mirror="0" id="gge297" locked="0" layerid="3" c_shapetype="group" ><path c_fontsize="4.5" c_fontfamily="" c_text="BME280" d="M 4164.5 3128.52 L 4164.5 3132.82 M 4164.5 3128.52 L 4166.34 3128.52 L 4166.95 3128.73 L 4167.16 3128.93 L 4167.36 3129.34 L 4167.36 3129.75 L 4167.16 3130.16 L 4166.95 3130.37 L 4166.34 3130.57 M 4164.5 3130.57 L 4166.34 3130.57 L 4166.95 3130.77 L 4167.16 3130.98 L 4167.36 3131.39 L 4167.36 3132 L 4167.16 3132.41 L 4166.95 3132.62 L 4166.34 3132.82 L 4164.5 3132.82 M 4168.71 3128.52 L 4168.71 3132.82 M 4168.71 3128.52 L 4170.35 3132.82 M 4171.99 3128.52 L 4170.35 3132.82 M 4171.99 3128.52 L 4171.99 3132.82 M 4173.34 3128.52 L 4173.34 3132.82 M 4173.34 3128.52 L 4176 3128.52 M 4173.34 3130.57 L 4174.97 3130.57 M 4173.34 3132.82 L 4176 3132.82 M 4177.55 3129.55 L 4177.55 3129.34 L 4177.75 3128.93 L 4177.96 3128.73 L 4178.37 3128.52 L 4179.19 3128.52 L 4179.6 3128.73 L 4179.8 3128.93 L 4180 3129.34 L 4180 3129.75 L 4179.8 3130.16 L 4179.39 3130.77 L 4177.35 3132.82 L 4180.21 3132.82 M 4182.58 3128.52 L 4181.97 3128.73 L 4181.76 3129.14 L 4181.76 3129.55 L 4181.97 3129.96 L 4182.38 3130.16 L 4183.2 3130.37 L 4183.81 3130.57 L 4184.22 3130.98 L 4184.42 3131.39 L 4184.42 3132 L 4184.22 3132.41 L 4184.01 3132.62 L 4183.4 3132.82 L 4182.58 3132.82 L 4181.97 3132.62 L 4181.76 3132.41 L 4181.56 3132 L 4181.56 3131.39 L 4181.76 3130.98 L 4182.17 3130.57 L 4182.79 3130.37 L 4183.6 3130.16 L 4184.01 3129.96 L 4184.22 3129.55 L 4184.22 3129.14 L 4184.01 3128.73 L 4183.4 3128.52 L 4182.58 3128.52 M 4187 3128.52 L 4186.39 3128.73 L 4185.98 3129.34 L 4185.77 3130.37 L 4185.77 3130.98 L 4185.98 3132 L 4186.39 3132.62 L 4187 3132.82 L 4187.41 3132.82 L 4188.02 3132.62 L 4188.43 3132 L 4188.64 3130.98 L 4188.64 3130.37 L 4188.43 3129.34 L 4188.02 3128.73 L 4187.41 3128.52 L 4187 3128.52" fill="none"  stroke-width="0.6" c_note="note_pre" /></g><g c_partid="part_pcbtext" c_etype="" c_origin="4013.31,3152.35" c_rotation="0" c_mirror="0" id="gge13501" locked="0" layerid="3" c_shapetype="group" display="none"><path c_fontsize="4.5" c_fontfamily="" c_text="HDR-F-2.54_1x2" d="M 4013.31 3147.81L4013.31 3152.1 M 4016.17 3147.81L4016.17 3152.1 M 4013.31 3149.85L4016.17 3149.85 M 4017.52 3147.81L4017.52 3152.1 M 4017.52 3147.81L4018.96 3147.81 L4019.57 3148.01 L4019.98 3148.42 L4020.18 3148.83 L4020.39 3149.45 L4020.39 3150.47 L4020.18 3151.08 L4019.98 3151.49 L4019.57 3151.9 L4018.96 3152.1 L4017.52 3152.1 M 4021.74 3147.81L4021.74 3152.1 M 4021.74 3147.81L4023.58 3147.81 L4024.19 3148.01 L4024.4 3148.22 L4024.6 3148.63 L4024.6 3149.04 L4024.4 3149.45 L4024.19 3149.65 L4023.58 3149.85 L4021.74 3149.85 M 4023.17 3149.85L4024.6 3152.1 M 4025.95 3150.26L4029.63 3150.26 M 4030.98 3147.81L4030.98 3152.1 M 4030.98 3147.81L4033.64 3147.81 M 4030.98 3149.85L4032.62 3149.85 M 4034.99 3150.26L4038.67 3150.26 M 4040.23 3148.83L4040.23 3148.63 L4040.43 3148.22 L4040.64 3148.01 L4041.05 3147.81 L4041.86 3147.81 L4042.27 3148.01 L4042.48 3148.22 L4042.68 3148.63 L4042.68 3149.04 L4042.48 3149.45 L4042.07 3150.06 L4040.02 3152.1 L4042.89 3152.1 M 4044.44 3151.08L4044.24 3151.29 L4044.44 3151.49 L4044.65 3151.29 L4044.44 3151.08 M 4048.45 3147.81L4046.41 3147.81 L4046.2 3149.65 L4046.41 3149.45 L4047.02 3149.24 L4047.63 3149.24 L4048.25 3149.45 L4048.66 3149.85 L4048.86 3150.47 L4048.86 3150.88 L4048.66 3151.49 L4048.25 3151.9 L4047.63 3152.1 L4047.02 3152.1 L4046.41 3151.9 L4046.2 3151.7 L4046 3151.29 M 4052.26 3147.81L4050.21 3150.67 L4053.28 3150.67 M 4052.26 3147.81L4052.26 3152.1 M 4054.63 3153.54L4058.31 3153.54 M 4059.66 3148.63L4060.07 3148.42 L4060.68 3147.81 L4060.68 3152.1 M 4062.03 3149.24L4064.28 3152.1 M 4064.28 3149.24L4062.03 3152.1 M 4065.84 3148.83L4065.84 3148.63 L4066.04 3148.22 L4066.25 3148.01 L4066.66 3147.81 L4067.47 3147.81 L4067.88 3148.01 L4068.09 3148.22 L4068.29 3148.63 L4068.29 3149.04 L4068.09 3149.45 L4067.68 3150.06 L4065.63 3152.1 L4068.5 3152.1 " fill="none"  stroke-width="0.6" c_note="note_name" /></g><g c_partid="part_pcbtext" c_etype="" c_origin="4080.5,3138.445" c_rotation="0" c_mirror="0" id="gge13507" locked="0" layerid="3" c_shapetype="group" ><path c_fontsize="4.5" c_fontfamily="" c_text="H4" d="M 4080.5 3133.9L4080.5 3138.2 M 4083.36 3133.9L4083.36 3138.2 M 4080.5 3135.95L4083.36 3135.95 M 4086.76 3133.9L4084.71 3136.77 L4087.78 3136.77 M 4086.76 3133.9L4086.76 3138.2 " fill="none"  stroke-width="0.6" c_note="note_pre" /></g><g c_partid="part_pcbtext" c_etype="" c_origin="4262.29,3244" c_rotation="0" c_mirror="0" id="gge3488" locked="0" layerid="3" c_shapetype="group" display="none"><path c_fontsize="4.5" c_fontfamily="" c_text="HDR-F-2.54_1x3" d="M 4262.29 3239.46L4262.29 3243.75 M 4265.15 3239.46L4265.15 3243.75 M 4262.29 3241.5L4265.15 3241.5 M 4266.5 3239.46L4266.5 3243.75 M 4266.5 3239.46L4267.94 3239.46 L4268.55 3239.66 L4268.96 3240.07 L4269.16 3240.48 L4269.37 3241.1 L4269.37 3242.12 L4269.16 3242.73 L4268.96 3243.14 L4268.55 3243.55 L4267.94 3243.75 L4266.5 3243.75 M 4270.72 3239.46L4270.72 3243.75 M 4270.72 3239.46L4272.56 3239.46 L4273.17 3239.66 L4273.38 3239.87 L4273.58 3240.28 L4273.58 3240.69 L4273.38 3241.1 L4273.17 3241.3 L4272.56 3241.5 L4270.72 3241.5 M 4272.15 3241.5L4273.58 3243.75 M 4274.93 3241.91L4278.61 3241.91 M 4279.96 3239.46L4279.96 3243.75 M 4279.96 3239.46L4282.62 3239.46 M 4279.96 3241.5L4281.6 3241.5 M 4283.97 3241.91L4287.65 3241.91 M 4289.21 3240.48L4289.21 3240.28 L4289.41 3239.87 L4289.62 3239.66 L4290.03 3239.46 L4290.84 3239.46 L4291.25 3239.66 L4291.46 3239.87 L4291.66 3240.28 L4291.66 3240.69 L4291.46 3241.1 L4291.05 3241.71 L4289 3243.75 L4291.87 3243.75 M 4293.42 3242.73L4293.22 3242.94 L4293.42 3243.14 L4293.63 3242.94 L4293.42 3242.73 M 4297.43 3239.46L4295.39 3239.46 L4295.18 3241.3 L4295.39 3241.1 L4296 3240.89 L4296.61 3240.89 L4297.23 3241.1 L4297.64 3241.5 L4297.84 3242.12 L4297.84 3242.53 L4297.64 3243.14 L4297.23 3243.55 L4296.61 3243.75 L4296 3243.75 L4295.39 3243.55 L4295.18 3243.35 L4294.98 3242.94 M 4301.24 3239.46L4299.19 3242.32 L4302.26 3242.32 M 4301.24 3239.46L4301.24 3243.75 M 4303.61 3245.19L4307.29 3245.19 M 4308.64 3240.28L4309.05 3240.07 L4309.66 3239.46 L4309.66 3243.75 M 4311.01 3240.89L4313.26 3243.75 M 4313.26 3240.89L4311.01 3243.75 M 4315.02 3239.46L4317.27 3239.46 L4316.04 3241.1 L4316.66 3241.1 L4317.07 3241.3 L4317.27 3241.5 L4317.48 3242.12 L4317.48 3242.53 L4317.27 3243.14 L4316.86 3243.55 L4316.25 3243.75 L4315.64 3243.75 L4315.02 3243.55 L4314.82 3243.35 L4314.61 3242.94 " fill="none"  stroke-width="0.6" c_note="note_name" /></g><g c_partid="part_pcbtext" c_etype="" c_origin="4265.79,3269.45" c_rotation="0" c_mirror="0" id="gge3494" locked="0" layerid="3" c_shapetype="group" ><path c_fontsize="4.5" c_fontfamily="" c_text="PWR" d="M 4265.79 3264.91L4265.79 3269.2 M 4265.79 3264.91L4267.63 3264.91 L4268.24 3265.11 L4268.45 3265.32 L4268.65 3265.73 L4268.65 3266.34 L4268.45 3266.75 L4268.24 3266.95 L4267.63 3267.16 L4265.79 3267.16 M 4270 3264.91L4271.03 3269.2 M 4272.05 3264.91L4271.03 3269.2 M 4272.05 3264.91L4273.07 3269.2 M 4274.09 3264.91L4273.07 3269.2 M 4275.44 3264.91L4275.44 3269.2 M 4275.44 3264.91L4277.29 3264.91 L4277.9 3265.11 L4278.1 3265.32 L4278.31 3265.73 L4278.31 3266.14 L4278.1 3266.55 L4277.9 3266.75 L4277.29 3266.95 L4275.44 3266.95 M 4276.88 3266.95L4278.31 3269.2 " fill="none"  stroke-width="0.6" c_note="note_pre" /></g><polyline points="4047.5 3133 4047.5 3123 4287.5 3123 4287.5 3272.5 4047.5 3272.5 4047.5 3132.5" stroke-width="1"  stroke-linecap="round" fill="none" layerid="10" net="" id="gge1545" locked="0" /></svg>