<svg xmlns="http://www.w3.org/2000/svg" xmlns:xlink="http://www.w3.org/1999/xlink" width="77.216mm" height="48.895mm" viewBox="4009.5 3103.5 304 192.5"><title></title><style type="text/css">
*[layerid="1"] {stroke:#FF0000;fill:#FF0000;}
*[layerid="2"] {stroke:#0000FF;fill:#0000FF;}
*[layerid="3"] {stroke:#FFCC00;fill:#FFCC00;}
*[layerid="4"] {stroke:#66CC33;fill:#66CC33;}
*[layerid="5"] {stroke:#808080;fill:#808080;}
*[layerid="6"] {stroke:#800000;fill:#800000;}
*[layerid="7"] {stroke:#800080;fill:#800080;stroke-opacity:0.7;fill-opacity:0.7;}
*[layerid="8"] {stroke:#AA00FF;fill:#AA00FF;stroke-opacity:0.7;fill-opacity:0.7;}
*[layerid="9"] {stroke:#6464FF;fill:#6464FF;}
*[layerid="10"] {stroke:#FF00FF;fill:#FF00FF;}
*[layerid="11"] {stroke:#C0C0C0;fill:#C0C0C0;}
*[layerid="12"] {stroke:#FFFFFF;fill:#FFFFFF;}
*[layerid="13"] {stroke:#33CC99;fill:#33CC99;}
*[layerid="14"] {stroke:#5555FF;fill:#5555FF;}
*[layerid="15"] {stroke:#F022F0;fill:#F022F0;}
*[layerid="19"] {stroke:#66CCFF;fill:#66CCFF;}
*[layerid="21"] {stroke:#999966;fill:#999966;}
*[layerid="22"] {stroke:#008000;fill:#008000;}
*[layerid="23"] {stroke:#00FF00;fill:#00FF00;}
*[layerid="24"] {stroke:#BC8E00;fill:#BC8E00;}
*[layerid="25"] {stroke:#70DBFA;fill:#70DBFA;}
*[layerid="26"] {stroke:#00CC66;fill:#00CC66;}
*[layerid="27"] {stroke:#9966FF;fill:#9966FF;}
*[layerid="28"] {stroke:#800080;fill:#800080;}
*[layerid="29"] {stroke:#008080;fill:#008080;}
*[layerid="30"] {stroke:#15935F;fill:#15935F;}
*[layerid="31"] {stroke:#000080;fill:#000080;}
*[layerid="32"] {stroke:#00B400;fill:#00B400;}
*[layerid="33"] {stroke:#2E4756;fill:#2E4756;}
*[layerid="34"] {stroke:#99842F;fill:#99842F;}
*[layerid="35"] {stroke:#FFFFAA;fill:#FFFFAA;}
*[layerid="36"] {stroke:#99842F;fill:#99842F;}
*[layerid="37"] {stroke:#2E4756;fill:#2E4756;}
*[layerid="38"] {stroke:#3535FF;fill:#3535FF;}
*[layerid="39"] {stroke:#8000BC;fill:#8000BC;}
*[layerid="40"] {stroke:#43AE5F;fill:#43AE5F;}
*[layerid="41"] {stroke:#C3ECCE;fill:#C3ECCE;}
*[layerid="42"] {stroke:#728978;fill:#728978;}
*[layerid="43"] {stroke:#39503F;fill:#39503F;}
*[layerid="44"] {stroke:#0C715D;fill:#0C715D;}
*[layerid="45"] {stroke:#5A8A80;fill:#5A8A80;}
*[layerid="46"] {stroke:#2B937E;fill:#2B937E;}
*[layerid="47"] {stroke:#23999D;fill:#23999D;}
*[layerid="48"] {stroke:#45B4E3;fill:#45B4E3;}
*[layerid="49"] {stroke:#215DA1;fill:#215DA1;}
*[layerid="50"] {stroke:#4564D7;fill:#4564D7;}
*[layerid="51"] {stroke:#6969E9;fill:#6969E9;}
*[layerid="52"] {stroke:#9069E9;fill:#9069E9;}
*[layerid="99"] {stroke:#00CCCC;fill:#00CCCC;stroke-opacity:0.6;fill-opacity:0.6;}
*[layerid="100"] {stroke:#CC9999;fill:#CC9999;}
*[layerid="101"] {stroke:#66FFCC;fill:#66FFCC;}
*[layerid="Hole"] {stroke:#222222;fill:#222222;}
*[layerid="DRCError"] {stroke:#FAD609;fill:#FAD609;}
*[fill="none"] {fill: none;}
*[stroke="none"] {stroke: none;}
path, polyline, polygon, line {stroke-linecap:round;}
g[c_partid="part_pad"][layerid="1"] ellipse:not([c_etype="pad_outer"]) {fill:#FF0000;}
g[c_partid="part_pad"][layerid="1"] polygon:not([c_etype="pad_outer"]) {fill:#FF0000;}
g[c_partid="part_pad"][layerid="1"] polyline:not([c_etype="pad_outer"]) {stroke:#FF0000;}
g[c_partid="part_pad"][layerid="2"] ellipse:not([c_etype="pad_outer"]) {fill:#0000FF;}
g[c_partid="part_pad"][layerid="2"] polygon:not([c_etype="pad_outer"]) {fill:#0000FF;}
g[c_partid="part_pad"][layerid="2"] polyline:not([c_etype="pad_outer"]) {stroke:#0000FF;}
g[c_partid="part_pad"][layerid="11"] ellipse:not([c_etype="pad_outer"]) {fill:#C0C0C0;}
g[c_partid="part_pad"][layerid="11"] polygon:not([c_etype="pad_outer"]) {fill:#C0C0C0;}
g[c_partid="part_pad"][layerid="11"] polyline:not([c_etype="pad_outer"]) {stroke:#C0C0C0;}
g[c_partid="part_pad"][layerid="11"] circle {fill:#222222;}
g[c_partid="part_pad"][layerid="11"] > polyline:nth-of-type(2) {stroke:#222222;}
g[c_partid="part_pad"][layerid="11"][c_shape="ELLIPSE"]  polyline:nth-last-of-type(1) {stroke:#222222;}
g[c_partid="part_pad"][layerid="11"][c_shape="RECT"]  polyline:nth-last-of-type(1) {stroke:#222222;}
g[c_partid="part_pad"][layerid="11"][c_shape="POLYGON"]  polyline:nth-last-of-type(1) {stroke:#222222;}
g[c_partid="part_via"] > * + circle, #gCurParts g[c_partid="part_via"] > * + circle {fill:#222222;}
g[c_partid="part_pad"] > polygon[c_etype="pad_outer"], #gCurParts g[c_partid="part_pad"] > polygon[c_etype="pad_outer"] {stroke-linejoin: round;stroke-miterlimit: 100;}
g[c_partid="part_hole"] > circle {fill: #222222;}path, polyline, polygon {stroke-linejoin:round;}
rect, circle, ellipse, polyline, line, polygon, path {shape-rendering:crispEdges;}
</style>
<rect x="4009.5" y="3103.5" width="304" height="192.5" fill="#000000" stroke="none"/><polyline points="4273.5 3142.08 4280.5 3149.08 4280.5 3245.62 4271.12 3255 4203.66 3255 4194.21 3245.55" stroke-width="2.7559"  stroke-linecap="round" fill="none" layerid="2" net="SENS_PWR" id="gge12396" locked="0" /><polyline points="4184.21 3245.55 4184.21 3219.553 4187.16 3216.603" stroke-width="2.7559"  stroke-linecap="round" fill="none" layerid="2" net="GND_BOARD" id="gge12429" locked="0" /><polyline points="4263 3245.55 4263 3228.075 4263.001 3228.075 4272.331 3218.745 4272.331 3214.461 4259.954 3202.084 4259.954 3145.626 4263.5 3142.08" stroke-width="2.7559"  stroke-linecap="round" fill="none" layerid="2" net="GND_BOARD" id="gge12423" locked="0" /><polyline points="4177.16 3216.603 4152.897 3216.603 4126.5 3243" stroke-width="2.7559"  stroke-linecap="round" fill="none" layerid="2" net="5V_BOARD" id="gge12417" locked="0" /><polyline points="4253.5 3142.08 4253.5 3200.263 4237.16 3216.603" stroke-width="2.7559"  stroke-linecap="round" fill="none" layerid="2" net="UV_SENS" id="gge12414" locked="0" /><polyline points="4253 3239.692 4247.16 3233.852 4247.16 3216.603" stroke-width="2.7559"  stroke-linecap="round" fill="none" layerid="2" net="BAT_SENS_BOARD" id="gge12411" locked="0" /><polyline points="4253 3245.55 4253 3239.692" stroke-width="2.7559"  stroke-linecap="round" fill="none" layerid="2" net="BAT_SENS_BOARD" id="gge12408" locked="0" /><polyline points="4174.71 3142.03 4188.024 3128.716 4201.363 3128.716 4210.041 3137.394 4210.041 3213.722 4207.16 3216.603" stroke-width="2.7559"  stroke-linecap="round" fill="none" layerid="2" net="SDA" id="gge12390" locked="0" /><polyline points="4197.16 3216.603 4197.16 3154.48 4184.71 3142.03" stroke-width="2.7559"  stroke-linecap="round" fill="none" layerid="2" net="SCL" id="gge12384" locked="0" /><polyline points="4174.21 3239.692 4178.444 3235.458 4178.444 3232.222" stroke-width="2.7559"  stroke-linecap="round" fill="none" layerid="2" net="SOUND_SENS" id="gge12378" locked="0" /><polyline points="4174.21 3245.55 4174.21 3239.692" stroke-width="2.7559"  stroke-linecap="round" fill="none" layerid="2" net="SOUND_SENS" id="gge12372" locked="0" /><polyline points="4049 3167 4119 3167 4119 3221" stroke-width="0.5"  stroke-linecap="round" fill="none" layerid="4" net="" id="gge708" locked="0" /><polyline points="4084 3148 4081.5 3150.5 4079 3148 4074 3148 4071.5 3150.5 4069 3148 4064 3148 4061.5 3150.5 4059 3148 4054 3148 4051.5 3150.5 4051.5 3155.5 4054 3158 4059 3158 4061.5 3155.5 4064 3158 4069 3158 4071.5 3155.5 4074 3158 4079 3158 4081.5 3155.5 4084 3158 4089 3158 4091.5 3155.5 4094 3158 4099 3158 4101.5 3155.5 4104 3158 4109 3158 4111.5 3155.5 4114 3158 4119 3158 4121.5 3155.5 4124 3158 4129 3158 4131.5 3155.5 4131.5 3150.5 4129 3148" stroke-width="0.5"  stroke-linecap="round" fill="none" layerid="4" net="" id="gge606" locked="0" /><polyline points="4089 3148 4091.5 3150.5 4094 3148" stroke-width="0.5"  stroke-linecap="round" fill="none" layerid="4" net="" id="gge609" locked="0" /><polyline points="4099 3148 4101.5 3150.5 4104 3148" stroke-width="0.5"  stroke-linecap="round" fill="none" layerid="4" net="" id="gge612" locked="0" /><polyline points="4109 3148 4111.5 3150.5 4114 3148" stroke-width="0.5"  stroke-linecap="round" fill="none" layerid="4" net="" id="gge615" locked="0" /><polyline points="4119 3148 4121.5 3150.5 4124 3148" stroke-width="0.5"  stroke-linecap="round" fill="none" layerid="4" net="" id="gge618" locked="0" /><polyline points="4054 3148 4026.5 3148 4026.5 3167 4049 3167 4049 3229 4112 3229" stroke-width="0.5"  stroke-linecap="round" fill="none" layerid="4" net="" id="gge621" locked="0" /><polyline points="4049 3229 4026.5 3229 4026.5 3248 4054 3248 4059 3248 4064 3248 4069 3248 4074 3248 4079 3248 4161.5 3248 4161.5 3213 4155.5 3213 4155.5 3210.5 4154 3210.5" stroke-width="0.5"  stroke-linecap="round" fill="none" layerid="4" net="" id="gge624" locked="0" /><polyline points="4074 3148 4069 3148" stroke-width="0.5"  stroke-linecap="round" fill="none" layerid="4" net="" id="gge627" locked="0" /><polyline points="4064 3148 4059 3148" stroke-width="0.5"  stroke-linecap="round" fill="none" layerid="4" net="" id="gge630" locked="0" /><polyline points="4079 3248 4081.5 3245.5 4084 3248" stroke-width="0.5"  stroke-linecap="round" fill="none" layerid="4" net="" id="gge633" locked="0" /><polyline points="4089 3248 4091.5 3245.5 4094 3248" stroke-width="0.5"  stroke-linecap="round" fill="none" layerid="4" net="" id="gge636" locked="0" /><polyline points="4099 3248 4101.5 3245.5 4104 3248" stroke-width="0.5"  stroke-linecap="round" fill="none" layerid="4" net="" id="gge639" locked="0" /><polyline points="4109 3248 4111.5 3245.5 4114 3248" stroke-width="0.5"  stroke-linecap="round" fill="none" layerid="4" net="" id="gge642" locked="0" /><polyline points="4119 3248 4121.5 3245.5 4124 3248" stroke-width="0.5"  stroke-linecap="round" fill="none" layerid="4" net="" id="gge645" locked="0" /><polyline points="4129 3248 4131.5 3245.5 4131.5 3240.5 4129 3238 4124 3238 4121.5 3240.5 4119 3238 4114 3238 4111.5 3240.5 4109 3238 4104 3238 4101.5 3240.5 4099 3238 4094 3238 4091.5 3240.5 4089 3238 4084 3238 4081.5 3240.5 4079 3238 4074 3238 4071.5 3240.5 4069 3238 4064 3238 4061.5 3240.5 4059 3238 4054 3238 4051.5 3240.5 4051.5 3245.5 4054 3248" stroke-width="0.5"  stroke-linecap="round" fill="none" layerid="4" net="" id="gge648" locked="0" /><polyline points="4059 3248 4061.5 3245.5 4064 3248" stroke-width="0.5"  stroke-linecap="round" fill="none" layerid="4" net="" id="gge651" locked="0" /><polyline points="4069 3248 4071.5 3245.5 4074 3248" stroke-width="0.5"  stroke-linecap="round" fill="none" layerid="4" net="" id="gge654" locked="0" /><polyline points="4079 3148 4134 3148 4134 3155.5 4141.5 3155.5 4151.5 3155.5 4161.5 3155.5 4161.5 3178 4155.5 3178 4155.5 3180.5 4154 3180.5" stroke-width="0.5"  stroke-linecap="round" fill="none" layerid="4" net="" id="gge657" locked="0" /><polyline points="4141.5 3155.5 4141.5 3150.5 4151.5 3150.5 4151.5 3155.5" stroke-width="0.5"  stroke-linecap="round" fill="none" layerid="4" net="" id="gge660" locked="0" /><polyline points="4155.5 3180.5 4159 3180.5 4159 3210.5 4155.5 3210.5" stroke-width="0.5"  stroke-linecap="round" fill="none" layerid="4" net="" id="gge663" locked="0" /><polyline points="4134 3183 4134 3180.5 4136.5 3180.5" stroke-width="0.5"  stroke-linecap="round" fill="none" layerid="4" net="" id="gge666" locked="0" /><polyline points="4139 3180.5 4141.5 3180.5" stroke-width="0.5"  stroke-linecap="round" fill="none" layerid="4" net="" id="gge669" locked="0" /><polyline points="4144 3180.5 4146.5 3180.5" stroke-width="0.5"  stroke-linecap="round" fill="none" layerid="4" net="" id="gge672" locked="0" /><polyline points="4149 3180.5 4151.5 3180.5" stroke-width="0.5"  stroke-linecap="round" fill="none" layerid="4" net="" id="gge675" locked="0" /><polyline points="4134 3185.5 4134 3188" stroke-width="0.5"  stroke-linecap="round" fill="none" layerid="4" net="" id="gge678" locked="0" /><polyline points="4134 3190.5 4134 3193" stroke-width="0.5"  stroke-linecap="round" fill="none" layerid="4" net="" id="gge681" locked="0" /><polyline points="4134 3195.5 4134 3198" stroke-width="0.5"  stroke-linecap="round" fill="none" layerid="4" net="" id="gge684" locked="0" /><polyline points="4134 3200.5 4134 3203" stroke-width="0.5"  stroke-linecap="round" fill="none" layerid="4" net="" id="gge687" locked="0" /><polyline points="4134 3205.5 4134 3208" stroke-width="0.5"  stroke-linecap="round" fill="none" layerid="4" net="" id="gge690" locked="0" /><polyline points="4134 3210.5 4136.5 3210.5" stroke-width="0.5"  stroke-linecap="round" fill="none" layerid="4" net="" id="gge693" locked="0" /><polyline points="4139 3210.5 4141.5 3210.5" stroke-width="0.5"  stroke-linecap="round" fill="none" layerid="4" net="" id="gge696" locked="0" /><polyline points="4144 3210.5 4146.5 3210.5" stroke-width="0.5"  stroke-linecap="round" fill="none" layerid="4" net="" id="gge699" locked="0" /><polyline points="4149 3210.5 4151.5 3210.5" stroke-width="0.5"  stroke-linecap="round" fill="none" layerid="4" net="" id="gge702" locked="0" /><polyline points="4026.5 3167 4025.5 3167 4025.5 3229 4026.5 3229" stroke-width="0.5"  stroke-linecap="round" fill="none" layerid="4" net="" id="gge705" locked="0" /><g c_partid="part_pcbtext" c_etype="" c_origin="4024,3197" c_rotation="90" c_mirror="1" id="gge543" locked="0" layerid="4" c_shapetype="group" ><path c_fontsize="4.5" c_fontfamily="" c_text="U1" d="M 4019.46 3197 L 4022.53 3197 L 4023.14 3197.2 L 4023.55 3197.61 L 4023.75 3198.23 L 4023.75 3198.64 L 4023.55 3199.25 L 4023.14 3199.66 L 4022.53 3199.86 L 4019.46 3199.86 M 4020.28 3201.21 L 4020.07 3201.62 L 4019.46 3202.24 L 4023.75 3202.24" fill="none"  stroke-width="0.6" c_note="note_pre" /></g><g c_partid="part_pcbtext" c_etype="" c_origin="4017,3197" c_rotation="90" c_mirror="1" id="gge537" locked="0" layerid="4" c_shapetype="group" display="none"><path c_fontsize="4.5" c_fontfamily="" c_text="WEMOS_D1_MINI_PRO4" d="M 4012.46 3197 L 4016.75 3198.02 M 4012.46 3199.05 L 4016.75 3198.02 M 4012.46 3199.05 L 4016.75 3200.07 M 4012.46 3201.09 L 4016.75 3200.07 M 4012.46 3202.44 L 4016.75 3202.44 M 4012.46 3202.44 L 4012.46 3205.1 M 4014.5 3202.44 L 4014.5 3204.08 M 4016.75 3202.44 L 4016.75 3205.1 M 4012.46 3206.45 L 4016.75 3206.45 M 4012.46 3206.45 L 4016.75 3208.09 M 4012.46 3209.72 L 4016.75 3208.09 M 4012.46 3209.72 L 4016.75 3209.72 M 4012.46 3212.3 L 4012.66 3211.89 L 4013.07 3211.48 L 4013.48 3211.28 L 4014.1 3211.07 L 4015.12 3211.07 L 4015.73 3211.28 L 4016.14 3211.48 L 4016.55 3211.89 L 4016.75 3212.3 L 4016.75 3213.12 L 4016.55 3213.53 L 4016.14 3213.94 L 4015.73 3214.14 L 4015.12 3214.35 L 4014.1 3214.35 L 4013.48 3214.14 L 4013.07 3213.94 L 4012.66 3213.53 L 4012.46 3213.12 L 4012.46 3212.3 M 4013.07 3218.56 L 4012.66 3218.15 L 4012.46 3217.54 L 4012.46 3216.72 L 4012.66 3216.1 L 4013.07 3215.7 L 4013.48 3215.7 L 4013.89 3215.9 L 4014.1 3216.1 L 4014.3 3216.51 L 4014.71 3217.74 L 4014.91 3218.15 L 4015.12 3218.35 L 4015.53 3218.56 L 4016.14 3218.56 L 4016.55 3218.15 L 4016.75 3217.54 L 4016.75 3216.72 L 4016.55 3216.1 L 4016.14 3215.7 M 4018.19 3219.91 L 4018.19 3223.59 M 4012.46 3224.94 L 4016.75 3224.94 M 4012.46 3224.94 L 4012.46 3226.37 L 4012.66 3226.99 L 4013.07 3227.4 L 4013.48 3227.6 L 4014.1 3227.8 L 4015.12 3227.8 L 4015.73 3227.6 L 4016.14 3227.4 L 4016.55 3226.99 L 4016.75 3226.37 L 4016.75 3224.94 M 4013.28 3229.15 L 4013.07 3229.56 L 4012.46 3230.18 L 4016.75 3230.18 M 4018.19 3231.53 L 4018.19 3235.21 M 4012.46 3236.56 L 4016.75 3236.56 M 4012.46 3236.56 L 4016.75 3238.2 M 4012.46 3239.83 L 4016.75 3238.2 M 4012.46 3239.83 L 4016.75 3239.83 M 4012.46 3241.18 L 4016.75 3241.18 M 4012.46 3242.53 L 4016.75 3242.53 M 4012.46 3242.53 L 4016.75 3245.4 M 4012.46 3245.4 L 4016.75 3245.4 M 4012.46 3246.75 L 4016.75 3246.75 M 4018.19 3248.1 L 4018.19 3251.78 M 4012.46 3253.13 L 4016.75 3253.13 M 4012.46 3253.13 L 4012.46 3254.97 L 4012.66 3255.58 L 4012.87 3255.79 L 4013.28 3255.99 L 4013.89 3255.99 L 4014.3 3255.79 L 4014.5 3255.58 L 4014.71 3254.97 L 4014.71 3253.13 M 4012.46 3257.34 L 4016.75 3257.34 M 4012.46 3257.34 L 4012.46 3259.18 L 4012.66 3259.8 L 4012.87 3260 L 4013.28 3260.2 L 4013.69 3260.2 L 4014.1 3260 L 4014.3 3259.8 L 4014.5 3259.18 L 4014.5 3257.34 M 4014.5 3258.77 L 4016.75 3260.2 M 4012.46 3262.78 L 4012.66 3262.37 L 4013.07 3261.96 L 4013.48 3261.76 L 4014.1 3261.55 L 4015.12 3261.55 L 4015.73 3261.76 L 4016.14 3261.96 L 4016.55 3262.37 L 4016.75 3262.78 L 4016.75 3263.6 L 4016.55 3264.01 L 4016.14 3264.42 L 4015.73 3264.62 L 4015.12 3264.83 L 4014.1 3264.83 L 4013.48 3264.62 L 4013.07 3264.42 L 4012.66 3264.01 L 4012.46 3263.6 L 4012.46 3262.78 M 4012.46 3268.22 L 4015.32 3266.18 L 4015.32 3269.25 M 4012.46 3268.22 L 4016.75 3268.22" fill="none"  stroke-width="0.6" c_note="note_name" /></g><g c_partid="part_pcbtext" c_etype="" c_origin="4037.5,3179.1" c_rotation="90" c_mirror="1" id="gge717" locked="0" layerid="4" c_shapetype="group" ><path c_fontsize="6" c_fontfamily="" c_text="ANTENNA" d="M 4031.45 3181.28 L 4037.17 3179.1 M 4031.45 3181.28 L 4037.17 3183.46 M 4035.26 3179.92 L 4035.26 3182.65 M 4031.45 3185.26 L 4037.17 3185.26 M 4031.45 3185.26 L 4037.17 3189.08 M 4031.45 3189.08 L 4037.17 3189.08 M 4031.45 3192.79 L 4037.17 3192.79 M 4031.45 3190.88 L 4031.45 3194.7 M 4031.45 3196.5 L 4037.17 3196.5 M 4031.45 3196.5 L 4031.45 3200.05 M 4034.17 3196.5 L 4034.17 3198.68 M 4037.17 3196.5 L 4037.17 3200.05 M 4031.45 3201.85 L 4037.17 3201.85 M 4031.45 3201.85 L 4037.17 3205.66 M 4031.45 3205.66 L 4037.17 3205.66 M 4031.45 3207.46 L 4037.17 3207.46 M 4031.45 3207.46 L 4037.17 3211.28 M 4031.45 3211.28 L 4037.17 3211.28 M 4031.45 3215.26 L 4037.17 3213.08 M 4031.45 3215.26 L 4037.17 3217.45 M 4035.26 3213.9 L 4035.26 3216.63" fill="none"  stroke-width="0.48"  /></g><g c_partid="part_pcbtext" c_etype="" c_origin="4094,3175.95" c_rotation="90" c_mirror="1" id="gge723" locked="0" layerid="4" c_shapetype="group" ><path c_fontsize="7" c_fontfamily="" c_text="D1 mini" d="M 4086.94 3175.95 L 4093.62 3175.95 M 4086.94 3175.95 L 4086.94 3178.18 L 4087.25 3179.13 L 4087.89 3179.77 L 4088.53 3180.09 L 4089.48 3180.4 L 4091.07 3180.4 L 4092.03 3180.09 L 4092.66 3179.77 L 4093.3 3179.13 L 4093.62 3178.18 L 4093.62 3175.95 M 4088.21 3182.5 L 4087.89 3183.14 L 4086.94 3184.1 L 4093.62 3184.1 M 4089.16 3191.1 L 4093.62 3191.1 M 4090.44 3191.1 L 4089.48 3192.05 L 4089.16 3192.69 L 4089.16 3193.64 L 4089.48 3194.28 L 4090.44 3194.6 L 4093.62 3194.6 M 4090.44 3194.6 L 4089.48 3195.55 L 4089.16 3196.19 L 4089.16 3197.14 L 4089.48 3197.78 L 4090.44 3198.1 L 4093.62 3198.1 M 4086.94 3200.2 L 4087.25 3200.51 L 4086.94 3200.83 L 4086.62 3200.51 L 4086.94 3200.2 M 4089.16 3200.51 L 4093.62 3200.51 M 4089.16 3202.93 L 4093.62 3202.93 M 4090.44 3202.93 L 4089.48 3203.89 L 4089.16 3204.52 L 4089.16 3205.48 L 4089.48 3206.11 L 4090.44 3206.43 L 4093.62 3206.43 M 4086.94 3208.53 L 4087.25 3208.85 L 4086.94 3209.17 L 4086.62 3208.85 L 4086.94 3208.53 M 4089.16 3208.85 L 4093.62 3208.85" fill="none"  stroke-width="0.56"  /></g><g c_partid="part_pcbtext" c_etype="" c_origin="4146.5,3158" c_rotation="90" c_mirror="1" id="gge729" locked="0" layerid="4" c_shapetype="group" ><path c_fontsize="4" c_fontfamily="" c_text="RESET" d="M 4142.46 3158 L 4146.28 3158 M 4142.46 3158 L 4142.46 3159.64 L 4142.65 3160.18 L 4142.83 3160.36 L 4143.19 3160.55 L 4143.55 3160.55 L 4143.92 3160.36 L 4144.1 3160.18 L 4144.28 3159.64 L 4144.28 3158 M 4144.28 3159.27 L 4146.28 3160.55 M 4142.46 3161.75 L 4146.28 3161.75 M 4142.46 3161.75 L 4142.46 3164.11 M 4144.28 3161.75 L 4144.28 3163.2 M 4146.28 3161.75 L 4146.28 3164.11 M 4143.01 3167.85 L 4142.65 3167.49 L 4142.46 3166.95 L 4142.46 3166.22 L 4142.65 3165.67 L 4143.01 3165.31 L 4143.37 3165.31 L 4143.74 3165.49 L 4143.92 3165.67 L 4144.1 3166.04 L 4144.46 3167.13 L 4144.65 3167.49 L 4144.83 3167.67 L 4145.19 3167.85 L 4145.74 3167.85 L 4146.1 3167.49 L 4146.28 3166.95 L 4146.28 3166.22 L 4146.1 3165.67 L 4145.74 3165.31 M 4142.46 3169.05 L 4146.28 3169.05 M 4142.46 3169.05 L 4142.46 3171.42 M 4144.28 3169.05 L 4144.28 3170.51 M 4146.28 3169.05 L 4146.28 3171.42 M 4142.46 3173.89 L 4146.28 3173.89 M 4142.46 3172.62 L 4142.46 3175.16" fill="none"  stroke-width="0.32"  /></g><g c_partid="part_pcbtext" c_etype="" c_origin="4146.5,3188.75" c_rotation="90" c_mirror="1" id="gge735" locked="0" layerid="4" c_shapetype="group" ><path c_fontsize="5" c_fontfamily="" c_text="USB" d="M 4141.45 3188.75 L 4144.86 3188.75 L 4145.55 3188.98 L 4146 3189.43 L 4146.23 3190.11 L 4146.23 3190.57 L 4146 3191.25 L 4145.55 3191.7 L 4144.86 3191.93 L 4141.45 3191.93 M 4142.14 3196.61 L 4141.68 3196.16 L 4141.45 3195.48 L 4141.45 3194.57 L 4141.68 3193.89 L 4142.14 3193.43 L 4142.59 3193.43 L 4143.05 3193.66 L 4143.27 3193.89 L 4143.5 3194.34 L 4143.95 3195.7 L 4144.18 3196.16 L 4144.41 3196.39 L 4144.86 3196.61 L 4145.55 3196.61 L 4146 3196.16 L 4146.23 3195.48 L 4146.23 3194.57 L 4146 3193.89 L 4145.55 3193.43 M 4141.45 3198.11 L 4146.23 3198.11 M 4141.45 3198.11 L 4141.45 3200.16 L 4141.68 3200.84 L 4141.91 3201.07 L 4142.36 3201.3 L 4142.82 3201.3 L 4143.27 3201.07 L 4143.5 3200.84 L 4143.73 3200.16 M 4143.73 3198.11 L 4143.73 3200.16 L 4143.95 3200.84 L 4144.18 3201.07 L 4144.64 3201.3 L 4145.32 3201.3 L 4145.77 3201.07 L 4146 3200.84 L 4146.23 3200.16 L 4146.23 3198.11" fill="none"  stroke-width="0.4"  /></g><polyline points="4263 3245.55 4248.05 3260.5 4199.16 3260.5 4184.21 3245.55" stroke-width="2.7559"  stroke-linecap="round" fill="none" layerid="1" net="GND_BOARD" id="gge12432" locked="0" /><polyline points="4263.5 3142.08 4250.92 3129.5 4207.24 3129.5 4194.71 3142.03" stroke-width="2.7559"  stroke-linecap="round" fill="none" layerid="1" net="GND_BOARD" id="gge12426" locked="0" /><polyline points="4076.5 3153 4067.5 3144 4065.5 3144 4056.5 3153" stroke-width="2.7559"  stroke-linecap="round" fill="none" layerid="1" net="U1_9" id="gge12438" locked="0" /><polyline points="4116.5 3243 4124.322 3250.822 4178.938 3250.822 4184.21 3245.55" stroke-width="2.7559"  stroke-linecap="round" fill="none" layerid="1" net="GND_BOARD" id="gge12435" locked="0" /><polyline points="4273 3245.55 4267.728 3240.278 4129.222 3240.278 4126.5 3243" stroke-width="2.7559"  stroke-linecap="round" fill="none" layerid="1" net="5V_BOARD" id="gge12420" locked="0" /><polyline points="4204.71 3147.717 4267.863 3147.717 4273.5 3142.08" stroke-width="2.7559"  stroke-linecap="round" fill="none" layerid="1" net="SENS_PWR" id="gge12405" locked="0" /><polyline points="4096.5 3153 4102.126 3158.626 4193.801 3158.626 4204.71 3147.717" stroke-width="2.7559"  stroke-linecap="round" fill="none" layerid="1" net="SENS_PWR" id="gge12402" locked="0" /><polyline points="4204.71 3147.717 4204.71 3142.03" stroke-width="2.7559"  stroke-linecap="round" fill="none" layerid="1" net="SENS_PWR" id="gge12399" locked="0" /><polyline points="4086.5 3243 4102.278 3227.222 4196.541 3227.222 4207.16 3216.603" stroke-width="2.7559"  stroke-linecap="round" fill="none" layerid="1" net="SDA" id="gge12393" locked="0" /><polyline points="4076.5 3243 4095.828 3223.672 4190.091 3223.672 4197.16 3216.603" stroke-width="2.7559"  stroke-linecap="round" fill="none" layerid="1" net="SCL" id="gge12387" locked="0" /><polyline points="4178.444 3232.222 4241.541 3232.222 4257.16 3216.603" stroke-width="2.7559"  stroke-linecap="round" fill="none" layerid="1" net="SOUND_SENS" id="gge12375" locked="0" /><g c_partid="part_pad" c_etype="pinpart" c_origin="4177.16,3216.603" layerid="11" number="1" net="5V_BOARD" plated ="Y"  id="gge1143" locked="0" c_rotation="0" c_width="6" c_height="6" title="5V_BOARD" c_shape="ELLIPSE" pasteexpansion="0" solderexpansion="0.2"><ellipse c_etype="pad_shell" cx="4177.16" cy="3216.603" rx="3" ry="3" layerid="11" stroke-width="0"/><circle c_etype="pad_hole" cx="4177.1599" cy="3216.6028" r="1.8" layerid="11" stroke-width="0"/></g><g c_partid="part_pad" c_etype="pinpart" c_origin="4187.16,3216.603" layerid="11" number="2" net="GND_BOARD" plated ="Y"  id="gge1158" locked="0" c_rotation="0" c_width="6" c_height="6" title="GND_BOARD" c_shape="ELLIPSE" pasteexpansion="0" solderexpansion="0.2"><ellipse c_etype="pad_shell" cx="4187.16" cy="3216.603" rx="3" ry="3" layerid="11" stroke-width="0"/><circle c_etype="pad_hole" cx="4187.1599" cy="3216.6028" r="1.8" layerid="11" stroke-width="0"/></g><g c_partid="part_pad" c_etype="pinpart" c_origin="4197.16,3216.603" layerid="11" number="3" net="SCL" plated ="Y"  id="gge1173" locked="0" c_rotation="0" c_width="6" c_height="6" title="SCL" c_shape="ELLIPSE" pasteexpansion="0" solderexpansion="0.2"><ellipse c_etype="pad_shell" cx="4197.16" cy="3216.603" rx="3" ry="3" layerid="11" stroke-width="0"/><circle c_etype="pad_hole" cx="4197.1599" cy="3216.6028" r="1.8" layerid="11" stroke-width="0"/></g><g c_partid="part_pad" c_etype="pinpart" c_origin="4207.16,3216.603" layerid="11" number="4" net="SDA" plated ="Y"  id="gge1188" locked="0" c_rotation="0" c_width="6" c_height="6" title="SDA" c_shape="ELLIPSE" pasteexpansion="0" solderexpansion="0.2"><ellipse c_etype="pad_shell" cx="4207.16" cy="3216.603" rx="3" ry="3" layerid="11" stroke-width="0"/><circle c_etype="pad_hole" cx="4207.1599" cy="3216.6028" r="1.8" layerid="11" stroke-width="0"/></g><g c_partid="part_pad" c_etype="pinpart" c_origin="4217.16,3216.603" layerid="11" number="5" net="" plated ="Y"  id="gge1203" locked="0" c_rotation="0" c_width="6" c_height="6" title="" c_shape="ELLIPSE" pasteexpansion="0" solderexpansion="0.2"><ellipse c_etype="pad_shell" cx="4217.16" cy="3216.603" rx="3" ry="3" layerid="11" stroke-width="0"/><circle c_etype="pad_hole" cx="4217.1599" cy="3216.6028" r="1.8" layerid="11" stroke-width="0"/></g><g c_partid="part_pad" c_etype="pinpart" c_origin="4227.16,3216.603" layerid="11" number="6" net="" plated ="Y"  id="gge1218" locked="0" c_rotation="0" c_width="6" c_height="6" title="" c_shape="ELLIPSE" pasteexpansion="0" solderexpansion="0.2"><ellipse c_etype="pad_shell" cx="4227.16" cy="3216.603" rx="3" ry="3" layerid="11" stroke-width="0"/><circle c_etype="pad_hole" cx="4227.1599" cy="3216.6028" r="1.8" layerid="11" stroke-width="0"/></g><g c_partid="part_pad" c_etype="pinpart" c_origin="4237.16,3216.603" layerid="11" number="7" net="UV_SENS" plated ="Y"  id="gge1233" locked="0" c_rotation="0" c_width="6" c_height="6" title="UV_SENS" c_shape="ELLIPSE" pasteexpansion="0" solderexpansion="0.2"><ellipse c_etype="pad_shell" cx="4237.16" cy="3216.603" rx="3" ry="3" layerid="11" stroke-width="0"/><circle c_etype="pad_hole" cx="4237.1599" cy="3216.6028" r="1.8" layerid="11" stroke-width="0"/></g><g c_partid="part_pad" c_etype="pinpart" c_origin="4247.16,3216.603" layerid="11" number="8" net="BAT_SENS_BOARD" plated ="Y"  id="gge1248" locked="0" c_rotation="0" c_width="6" c_height="6" title="BAT_SENS_BOARD" c_shape="ELLIPSE" pasteexpansion="0" solderexpansion="0.2"><ellipse c_etype="pad_shell" cx="4247.16" cy="3216.603" rx="3" ry="3" layerid="11" stroke-width="0"/><circle c_etype="pad_hole" cx="4247.1599" cy="3216.6028" r="1.8" layerid="11" stroke-width="0"/></g><g c_partid="part_pad" c_etype="pinpart" c_origin="4257.16,3216.603" layerid="11" number="9" net="SOUND_SENS" plated ="Y"  id="gge1263" locked="0" c_rotation="0" c_width="6" c_height="6" title="SOUND_SENS" c_shape="ELLIPSE" pasteexpansion="0" solderexpansion="0.2"><ellipse c_etype="pad_shell" cx="4257.16" cy="3216.603" rx="3" ry="3" layerid="11" stroke-width="0"/><circle c_etype="pad_hole" cx="4257.1599" cy="3216.6028" r="1.8" layerid="11" stroke-width="0"/></g><g c_partid="part_pad" c_etype="pinpart" c_origin="4267.16,3216.603" layerid="11" number="10" net="" plated ="Y"  id="gge1278" locked="0" c_rotation="0" c_width="6" c_height="6" title="" c_shape="ELLIPSE" pasteexpansion="0" solderexpansion="0.2"><ellipse c_etype="pad_shell" cx="4267.16" cy="3216.603" rx="3" ry="3" layerid="11" stroke-width="0"/><circle c_etype="pad_hole" cx="4267.1599" cy="3216.6028" r="1.8" layerid="11" stroke-width="0"/></g><g c_partid="part_pad" c_etype="pinpart" c_origin="4253.5,3142.08" layerid="11" number="1" net="UV_SENS" plated ="Y"  id="gge10747" locked="0" c_rotation="0" c_width="6.2" c_height="6.2" title="UV_SENS" c_shape="RECT" pasteexpansion="0" solderexpansion="0.2"><polygon  c_etype="pad_shell" points="4250.4 3138.98 4256.6 3138.98 4256.6 3145.18 4250.4 3145.18" layerid="11" stroke-width="0" /><circle c_etype="pad_hole" cx="4253.5" cy="3142.08" r="1.75" layerid="11" stroke-width="0"/></g><g c_partid="part_pad" c_etype="pinpart" c_origin="4263.5,3142.08" layerid="11" number="2" net="GND_BOARD" plated ="Y"  id="gge10762" locked="0" c_rotation="0" c_width="6.2" c_height="6.2" title="GND_BOARD" c_shape="ELLIPSE" pasteexpansion="0" solderexpansion="0.2"><ellipse c_etype="pad_shell" cx="4263.5" cy="3142.08" rx="3.1" ry="3.1" layerid="11" stroke-width="0"/><circle c_etype="pad_hole" cx="4263.5" cy="3142.08" r="1.75" layerid="11" stroke-width="0"/></g><g c_partid="part_pad" c_etype="pinpart" c_origin="4273.5,3142.08" layerid="11" number="3" net="SENS_PWR" plated ="Y"  id="gge10777" locked="0" c_rotation="0" c_width="6.2" c_height="6.2" title="SENS_PWR" c_shape="ELLIPSE" pasteexpansion="0" solderexpansion="0.2"><ellipse c_etype="pad_shell" cx="4273.5" cy="3142.08" rx="3.1" ry="3.1" layerid="11" stroke-width="0"/><circle c_etype="pad_hole" cx="4273.5" cy="3142.08" r="1.8" layerid="11" stroke-width="0"/></g><g c_partid="part_pad" c_etype="pinpart" c_origin="4174.21,3245.55" layerid="11" number="1" net="SOUND_SENS" plated ="Y"  id="gge10828" locked="0" c_rotation="0" c_width="6.2" c_height="6.2" title="SOUND_SENS" c_shape="RECT" pasteexpansion="0" solderexpansion="0.2"><polygon  c_etype="pad_shell" points="4171.11 3242.45 4177.31 3242.45 4177.31 3248.65 4171.11 3248.65" layerid="11" stroke-width="0" /><circle c_etype="pad_hole" cx="4174.21" cy="3245.55" r="1.75" layerid="11" stroke-width="0"/></g><g c_partid="part_pad" c_etype="pinpart" c_origin="4184.21,3245.55" layerid="11" number="2" net="GND_BOARD" plated ="Y"  id="gge10843" locked="0" c_rotation="0" c_width="6.2" c_height="6.2" title="GND_BOARD" c_shape="ELLIPSE" pasteexpansion="0" solderexpansion="0.2"><ellipse c_etype="pad_shell" cx="4184.21" cy="3245.55" rx="3.1" ry="3.1" layerid="11" stroke-width="0"/><circle c_etype="pad_hole" cx="4184.21" cy="3245.55" r="1.75" layerid="11" stroke-width="0"/></g><g c_partid="part_pad" c_etype="pinpart" c_origin="4194.21,3245.55" layerid="11" number="3" net="SENS_PWR" plated ="Y"  id="gge10858" locked="0" c_rotation="0" c_width="6.2" c_height="6.2" title="SENS_PWR" c_shape="ELLIPSE" pasteexpansion="0" solderexpansion="0.2"><ellipse c_etype="pad_shell" cx="4194.21" cy="3245.55" rx="3.1" ry="3.1" layerid="11" stroke-width="0"/><circle c_etype="pad_hole" cx="4194.21" cy="3245.55" r="1.8" layerid="11" stroke-width="0"/></g><g c_partid="part_pad" c_etype="pinpart" c_origin="4174.71,3142.03" layerid="11" number="1" net="SDA" plated ="Y"  id="gge10918" locked="0" c_rotation="0" c_width="6.2" c_height="6.2" title="SDA" c_shape="RECT" pasteexpansion="0" solderexpansion="0.2"><polygon  c_etype="pad_shell" points="4171.61 3138.93 4177.81 3138.93 4177.81 3145.13 4171.61 3145.13" layerid="11" stroke-width="0" /><circle c_etype="pad_hole" cx="4174.71" cy="3142.03" r="1.75" layerid="11" stroke-width="0"/></g><g c_partid="part_pad" c_etype="pinpart" c_origin="4184.71,3142.03" layerid="11" number="2" net="SCL" plated ="Y"  id="gge10933" locked="0" c_rotation="0" c_width="6.2" c_height="6.2" title="SCL" c_shape="ELLIPSE" pasteexpansion="0" solderexpansion="0.2"><ellipse c_etype="pad_shell" cx="4184.71" cy="3142.03" rx="3.1" ry="3.1" layerid="11" stroke-width="0"/><circle c_etype="pad_hole" cx="4184.71" cy="3142.03" r="1.75" layerid="11" stroke-width="0"/></g><g c_partid="part_pad" c_etype="pinpart" c_origin="4194.71,3142.03" layerid="11" number="3" net="GND_BOARD" plated ="Y"  id="gge10948" locked="0" c_rotation="0" c_width="6.2" c_height="6.2" title="GND_BOARD" c_shape="ELLIPSE" pasteexpansion="0" solderexpansion="0.2"><ellipse c_etype="pad_shell" cx="4194.71" cy="3142.03" rx="3.1" ry="3.1" layerid="11" stroke-width="0"/><circle c_etype="pad_hole" cx="4194.71" cy="3142.03" r="1.75" layerid="11" stroke-width="0"/></g><g c_partid="part_pad" c_etype="pinpart" c_origin="4204.71,3142.03" layerid="11" number="4" net="SENS_PWR" plated ="Y"  id="gge10963" locked="0" c_rotation="0" c_width="6.2" c_height="6.2" title="SENS_PWR" c_shape="ELLIPSE" pasteexpansion="0" solderexpansion="0.2"><ellipse c_etype="pad_shell" cx="4204.71" cy="3142.03" rx="3.1" ry="3.1" layerid="11" stroke-width="0"/><circle c_etype="pad_hole" cx="4204.71" cy="3142.03" r="1.75" layerid="11" stroke-width="0"/></g><g c_partid="part_pad" c_etype="pinpart" c_origin="4253,3245.55" layerid="11" number="1" net="BAT_SENS_BOARD" plated ="Y"  id="gge11017" locked="0" c_rotation="0" c_width="6.2" c_height="6.2" title="BAT_SENS_BOARD" c_shape="RECT" pasteexpansion="0" solderexpansion="0.2"><polygon  c_etype="pad_shell" points="4249.9 3242.45 4256.1 3242.45 4256.1 3248.65 4249.9 3248.65" layerid="11" stroke-width="0" /><circle c_etype="pad_hole" cx="4253" cy="3245.55" r="1.75" layerid="11" stroke-width="0"/></g><g c_partid="part_pad" c_etype="pinpart" c_origin="4263,3245.55" layerid="11" number="2" net="GND_BOARD" plated ="Y"  id="gge11032" locked="0" c_rotation="0" c_width="6.2" c_height="6.2" title="GND_BOARD" c_shape="ELLIPSE" pasteexpansion="0" solderexpansion="0.2"><ellipse c_etype="pad_shell" cx="4263" cy="3245.55" rx="3.1" ry="3.1" layerid="11" stroke-width="0"/><circle c_etype="pad_hole" cx="4263" cy="3245.55" r="1.75" layerid="11" stroke-width="0"/></g><g c_partid="part_pad" c_etype="pinpart" c_origin="4273,3245.55" layerid="11" number="3" net="5V_BOARD" plated ="Y"  id="gge11047" locked="0" c_rotation="0" c_width="6.2" c_height="6.2" title="5V_BOARD" c_shape="ELLIPSE" pasteexpansion="0" solderexpansion="0.2"><ellipse c_etype="pad_shell" cx="4273" cy="3245.55" rx="3.1" ry="3.1" layerid="11" stroke-width="0"/><circle c_etype="pad_hole" cx="4273" cy="3245.55" r="1.8" layerid="11" stroke-width="0"/></g><g c_partid="part_pad" c_etype="pinpart" c_origin="4126.5,3243" layerid="11" number="8" net="5V_BOARD" plated ="Y"  id="gge741" locked="0" c_rotation="90" c_width="5.937" c_height="5.937" title="5V_BOARD" c_shape="ELLIPSE" pasteexpansion="0" solderexpansion="0.19685"><ellipse c_etype="pad_shell" cx="4126.5" cy="3243" rx="2.9685" ry="2.9685" layerid="11" stroke-width="0"/><polyline c_etype="pad_hole" points="4126.5 3242.9995 4126.5 3243.0005" layerid="11" stroke-width="3.936"></polyline></g><g c_partid="part_pad" c_etype="pinpart" c_origin="4126.5,3153" layerid="11" number="16" net="" plated ="Y"  id="gge756" locked="0" c_rotation="90" c_width="5.937" c_height="5.937" title="" c_shape="ELLIPSE" pasteexpansion="0" solderexpansion="0.19685"><ellipse c_etype="pad_shell" cx="4126.5" cy="3153" rx="2.9685" ry="2.9685" layerid="11" stroke-width="0"/><polyline c_etype="pad_hole" points="4126.5 3152.9995 4126.5 3153.0005" layerid="11" stroke-width="3.936"></polyline></g><g c_partid="part_pad" c_etype="pinpart" c_origin="4056.5,3243" layerid="11" number="1" net="" plated ="Y"  id="gge771" locked="0" c_rotation="90" c_width="5.937" c_height="5.937" title="" c_shape="ELLIPSE" pasteexpansion="0" solderexpansion="0.19685"><ellipse c_etype="pad_shell" cx="4056.5" cy="3243" rx="2.9685" ry="2.9685" layerid="11" stroke-width="0"/><polyline c_etype="pad_hole" points="4056.5 3243.0005 4056.5 3242.9995" layerid="11" stroke-width="3.936"></polyline></g><g c_partid="part_pad" c_etype="pinpart" c_origin="4066.5,3243" layerid="11" number="2" net="" plated ="Y"  id="gge786" locked="0" c_rotation="90" c_width="5.937" c_height="5.937" title="" c_shape="ELLIPSE" pasteexpansion="0" solderexpansion="0.19685"><ellipse c_etype="pad_shell" cx="4066.5" cy="3243" rx="2.9685" ry="2.9685" layerid="11" stroke-width="0"/><polyline c_etype="pad_hole" points="4066.5 3243.0005 4066.5 3242.9995" layerid="11" stroke-width="3.936"></polyline></g><g c_partid="part_pad" c_etype="pinpart" c_origin="4076.5,3243" layerid="11" number="3" net="SCL" plated ="Y"  id="gge801" locked="0" c_rotation="90" c_width="5.937" c_height="5.937" title="SCL" c_shape="ELLIPSE" pasteexpansion="0" solderexpansion="0.19685"><ellipse c_etype="pad_shell" cx="4076.5" cy="3243" rx="2.9685" ry="2.9685" layerid="11" stroke-width="0"/><polyline c_etype="pad_hole" points="4076.5 3242.9995 4076.5 3243.0005" layerid="11" stroke-width="3.936"></polyline></g><g c_partid="part_pad" c_etype="pinpart" c_origin="4086.5,3243" layerid="11" number="4" net="SDA" plated ="Y"  id="gge816" locked="0" c_rotation="90" c_width="5.937" c_height="5.937" title="SDA" c_shape="ELLIPSE" pasteexpansion="0" solderexpansion="0.19685"><ellipse c_etype="pad_shell" cx="4086.5" cy="3243" rx="2.9685" ry="2.9685" layerid="11" stroke-width="0"/><polyline c_etype="pad_hole" points="4086.5 3242.9995 4086.5 3243.0005" layerid="11" stroke-width="3.936"></polyline></g><g c_partid="part_pad" c_etype="pinpart" c_origin="4096.5,3243" layerid="11" number="5" net="" plated ="Y"  id="gge831" locked="0" c_rotation="90" c_width="5.937" c_height="5.937" title="" c_shape="ELLIPSE" pasteexpansion="0" solderexpansion="0.19685"><ellipse c_etype="pad_shell" cx="4096.5" cy="3243" rx="2.9685" ry="2.9685" layerid="11" stroke-width="0"/><polyline c_etype="pad_hole" points="4096.5 3242.9995 4096.5 3243.0005" layerid="11" stroke-width="3.936"></polyline></g><g c_partid="part_pad" c_etype="pinpart" c_origin="4106.5,3243" layerid="11" number="6" net="" plated ="Y"  id="gge846" locked="0" c_rotation="90" c_width="5.937" c_height="5.937" title="" c_shape="ELLIPSE" pasteexpansion="0" solderexpansion="0.19685"><ellipse c_etype="pad_shell" cx="4106.5" cy="3243" rx="2.9685" ry="2.9685" layerid="11" stroke-width="0"/><polyline c_etype="pad_hole" points="4106.5 3242.9995 4106.5 3243.0005" layerid="11" stroke-width="3.936"></polyline></g><g c_partid="part_pad" c_etype="pinpart" c_origin="4116.5,3243" layerid="11" number="7" net="GND_BOARD" plated ="Y"  id="gge861" locked="0" c_rotation="90" c_width="5.937" c_height="5.937" title="GND_BOARD" c_shape="ELLIPSE" pasteexpansion="0" solderexpansion="0.19685"><ellipse c_etype="pad_shell" cx="4116.5" cy="3243" rx="2.9685" ry="2.9685" layerid="11" stroke-width="0"/><polyline c_etype="pad_hole" points="4116.5 3242.9995 4116.5 3243.0005" layerid="11" stroke-width="3.936"></polyline></g><g c_partid="part_pad" c_etype="pinpart" c_origin="4056.5,3153" layerid="11" number="9" net="U1_9" plated ="Y"  id="gge876" locked="0" c_rotation="90" c_width="5.937" c_height="5.937" title="U1_9" c_shape="ELLIPSE" pasteexpansion="0" solderexpansion="0.19685"><ellipse c_etype="pad_shell" cx="4056.5" cy="3153" rx="2.9685" ry="2.9685" layerid="11" stroke-width="0"/><polyline c_etype="pad_hole" points="4056.5 3152.9995 4056.5 3153.0005" layerid="11" stroke-width="3.936"></polyline></g><g c_partid="part_pad" c_etype="pinpart" c_origin="4066.5,3153" layerid="11" number="10" net="" plated ="Y"  id="gge891" locked="0" c_rotation="90" c_width="5.937" c_height="5.937" title="" c_shape="ELLIPSE" pasteexpansion="0" solderexpansion="0.19685"><ellipse c_etype="pad_shell" cx="4066.5" cy="3153" rx="2.9685" ry="2.9685" layerid="11" stroke-width="0"/><polyline c_etype="pad_hole" points="4066.5 3152.9995 4066.5 3153.0005" layerid="11" stroke-width="3.936"></polyline></g><g c_partid="part_pad" c_etype="pinpart" c_origin="4076.5,3153" layerid="11" number="11" net="U1_9" plated ="Y"  id="gge906" locked="0" c_rotation="90" c_width="5.937" c_height="5.937" title="U1_9" c_shape="ELLIPSE" pasteexpansion="0" solderexpansion="0.19685"><ellipse c_etype="pad_shell" cx="4076.5" cy="3153" rx="2.9685" ry="2.9685" layerid="11" stroke-width="0"/><polyline c_etype="pad_hole" points="4076.5 3153.0005 4076.5 3152.9995" layerid="11" stroke-width="3.936"></polyline></g><g c_partid="part_pad" c_etype="pinpart" c_origin="4086.5,3153" layerid="11" number="12" net="" plated ="Y"  id="gge921" locked="0" c_rotation="90" c_width="5.937" c_height="5.937" title="" c_shape="ELLIPSE" pasteexpansion="0" solderexpansion="0.19685"><ellipse c_etype="pad_shell" cx="4086.5" cy="3153" rx="2.9685" ry="2.9685" layerid="11" stroke-width="0"/><polyline c_etype="pad_hole" points="4086.5 3152.9995 4086.5 3153.0005" layerid="11" stroke-width="3.936"></polyline></g><g c_partid="part_pad" c_etype="pinpart" c_origin="4096.5,3153" layerid="11" number="13" net="SENS_PWR" plated ="Y"  id="gge936" locked="0" c_rotation="90" c_width="5.937" c_height="5.937" title="SENS_PWR" c_shape="ELLIPSE" pasteexpansion="0" solderexpansion="0.19685"><ellipse c_etype="pad_shell" cx="4096.5" cy="3153" rx="2.9685" ry="2.9685" layerid="11" stroke-width="0"/><polyline c_etype="pad_hole" points="4096.5 3153.0005 4096.5 3152.9995" layerid="11" stroke-width="3.936"></polyline></g><g c_partid="part_pad" c_etype="pinpart" c_origin="4106.5,3153" layerid="11" number="14" net="" plated ="Y"  id="gge951" locked="0" c_rotation="90" c_width="5.937" c_height="5.937" title="" c_shape="ELLIPSE" pasteexpansion="0" solderexpansion="0.19685"><ellipse c_etype="pad_shell" cx="4106.5" cy="3153" rx="2.9685" ry="2.9685" layerid="11" stroke-width="0"/><polyline c_etype="pad_hole" points="4106.5 3152.9995 4106.5 3153.0005" layerid="11" stroke-width="3.936"></polyline></g><g c_partid="part_pad" c_etype="pinpart" c_origin="4116.5,3153" layerid="11" number="15" net="" plated ="Y"  id="gge966" locked="0" c_rotation="90" c_width="5.937" c_height="5.937" title="" c_shape="ELLIPSE" pasteexpansion="0" solderexpansion="0.19685"><ellipse c_etype="pad_shell" cx="4116.5" cy="3153" rx="2.9685" ry="2.9685" layerid="11" stroke-width="0"/><polyline c_etype="pad_hole" points="4116.5 3152.9995 4116.5 3153.0005" layerid="11" stroke-width="3.936"></polyline></g><g c_partid="part_via" c_etype="pinpart" c_shapetype="group" net="SOUND_SENS" c_origin="4178.444,3232.222" layerid="11" id="gge12381" locked="0" solderexpansion=""><circle cx="4178.444" cy="3232.222" r="1.2008" stroke-width="0" c_etype="pad_shell"/><circle cx="4178.444" cy="3232.222" r="0.6004"  stroke-width="0" c_etype="pad_hole"/></g><g c_partid="part_hole" c_etype="pinpart" c_shapetype="group" c_origin="4177.16,3166.603" layerid="11" id="gge1116" locked="0" ><circle cx="4177.16" cy="3166.603" r="5"  stroke-width="0" /></g><g c_partid="part_hole" c_etype="pinpart" c_shapetype="group" c_origin="4267.16,3166.603" layerid="11" id="gge1128" locked="0" ><circle cx="4267.16" cy="3166.603" r="5"  stroke-width="0" /></g><polyline points="4167.1599 3156.6029 4277.1599 3156.6029 4277.1599 3224.6029 4167.1599 3224.6029 4167.1599 3156.6029" stroke-width="1"  stroke-linecap="round" fill="none" layerid="3" net="" id="gge1140" locked="0" /><polyline points="4268.5 3137.08 4278.5 3137.08 4278.5 3146.98 4248.5 3146.98 4248.5 3137.08 4268.5 3137.08" stroke-width="0.8"  stroke-linecap="round" fill="none" layerid="3" net="" id="gge10738" locked="0" /><polyline points="4189.21 3240.55 4199.21 3240.55 4199.21 3250.45 4169.21 3250.45 4169.21 3240.55 4189.21 3240.55" stroke-width="0.8"  stroke-linecap="round" fill="none" layerid="3" net="" id="gge10819" locked="0" /><polyline points="4209.71 3137.03 4209.71 3147.03 4169.71 3147.03 4169.71 3137.03 4177.21 3137.03" stroke-width="0.8"  stroke-linecap="round" fill="none" layerid="3" net="" id="gge10888" locked="0" /><polyline points="4209.71 3137.03 4177.21 3137.03" stroke-width="0.79921"  stroke-linecap="round" fill="none" layerid="3" net="" id="gge10891" locked="0" /><polyline points="4268 3240.55 4278 3240.55 4278 3250.45 4248 3250.45 4248 3240.55 4268 3240.55" stroke-width="0.8"  stroke-linecap="round" fill="none" layerid="3" net="" id="gge11008" locked="0" /><g c_partid="part_pcbtext" c_etype="" c_origin="4221.66,3148.103" c_rotation="0" c_mirror="0" id="gge1104" locked="0" layerid="3" c_shapetype="group" display="none"><path c_fontsize="4.5" c_fontfamily="" c_text="Adafruit ADS1115 Board" d="M 4223.2999 3143.5629 L 4221.6599 3147.8529 M 4223.2999 3143.5629 L 4224.9299 3147.8529 M 4222.2699 3146.4229 L 4224.3199 3146.4229 M 4228.7399 3143.5629 L 4228.7399 3147.8529 M 4228.7399 3145.6029 L 4228.3299 3145.2029 L 4227.9199 3144.9929 L 4227.3099 3144.9929 L 4226.8999 3145.2029 L 4226.4899 3145.6029 L 4226.2799 3146.2229 L 4226.2799 3146.6329 L 4226.4899 3147.2429 L 4226.8999 3147.6529 L 4227.3099 3147.8529 L 4227.9199 3147.8529 L 4228.3299 3147.6529 L 4228.7399 3147.2429 M 4232.5399 3144.9929 L 4232.5399 3147.8529 M 4232.5399 3145.6029 L 4232.1299 3145.2029 L 4231.7199 3144.9929 L 4231.1099 3144.9929 L 4230.6999 3145.2029 L 4230.2899 3145.6029 L 4230.0899 3146.2229 L 4230.0899 3146.6329 L 4230.2899 3147.2429 L 4230.6999 3147.6529 L 4231.1099 3147.8529 L 4231.7199 3147.8529 L 4232.1299 3147.6529 L 4232.5399 3147.2429 M 4235.5299 3143.5629 L 4235.1199 3143.5629 L 4234.7099 3143.7629 L 4234.5099 3144.3829 L 4234.5099 3147.8529 M 4233.8899 3144.9929 L 4235.3199 3144.9929 M 4236.8799 3144.9929 L 4236.8799 3147.8529 M 4236.8799 3146.2229 L 4237.0799 3145.6029 L 4237.4899 3145.2029 L 4237.8999 3144.9929 L 4238.5099 3144.9929 M 4239.8599 3144.9929 L 4239.8599 3147.0429 L 4240.0699 3147.6529 L 4240.4799 3147.8529 L 4241.0899 3147.8529 L 4241.4999 3147.6529 L 4242.1099 3147.0429 M 4242.1099 3144.9929 L 4242.1099 3147.8529 M 4243.4599 3143.5629 L 4243.6699 3143.7629 L 4243.8699 3143.5629 L 4243.6699 3143.3529 L 4243.4599 3143.5629 M 4243.6699 3144.9929 L 4243.6699 3147.8529 M 4245.8399 3143.5629 L 4245.8399 3147.0429 L 4246.0399 3147.6529 L 4246.4499 3147.8529 L 4246.8599 3147.8529 M 4245.2199 3144.9929 L 4246.6599 3144.9929 M 4252.9999 3143.5629 L 4251.3599 3147.8529 M 4252.9999 3143.5629 L 4254.6299 3147.8529 M 4251.9699 3146.4229 L 4254.0199 3146.4229 M 4255.9799 3143.5629 L 4255.9799 3147.8529 M 4255.9799 3143.5629 L 4257.4099 3143.5629 L 4258.0299 3143.7629 L 4258.4399 3144.1729 L 4258.6399 3144.5829 L 4258.8499 3145.2029 L 4258.8499 3146.2229 L 4258.6399 3146.8329 L 4258.4399 3147.2429 L 4258.0299 3147.6529 L 4257.4099 3147.8529 L 4255.9799 3147.8529 M 4263.0599 3144.1729 L 4262.6499 3143.7629 L 4262.0399 3143.5629 L 4261.2199 3143.5629 L 4260.6099 3143.7629 L 4260.1999 3144.1729 L 4260.1999 3144.5829 L 4260.3999 3144.9929 L 4260.6099 3145.2029 L 4261.0099 3145.4029 L 4262.2399 3145.8129 L 4262.6499 3146.0129 L 4262.8599 3146.2229 L 4263.0599 3146.6329 L 4263.0599 3147.2429 L 4262.6499 3147.6529 L 4262.0399 3147.8529 L 4261.2199 3147.8529 L 4260.6099 3147.6529 L 4260.1999 3147.2429 M 4264.4099 3144.3829 L 4264.8199 3144.1729 L 4265.4299 3143.5629 L 4265.4299 3147.8529 M 4266.7799 3144.3829 L 4267.1899 3144.1729 L 4267.8099 3143.5629 L 4267.8099 3147.8529 M 4269.1599 3144.3829 L 4269.5599 3144.1729 L 4270.1799 3143.5629 L 4270.1799 3147.8529 M 4273.9799 3143.5629 L 4271.9399 3143.5629 L 4271.7299 3145.4029 L 4271.9399 3145.2029 L 4272.5499 3144.9929 L 4273.1599 3144.9929 L 4273.7799 3145.2029 L 4274.1899 3145.6029 L 4274.3899 3146.2229 L 4274.3899 3146.6329 L 4274.1899 3147.2429 L 4273.7799 3147.6529 L 4273.1599 3147.8529 L 4272.5499 3147.8529 L 4271.9399 3147.6529 L 4271.7299 3147.4529 L 4271.5299 3147.0429 M 4278.8899 3143.5629 L 4278.8899 3147.8529 M 4278.8899 3143.5629 L 4280.7299 3143.5629 L 4281.3499 3143.7629 L 4281.5499 3143.9729 L 4281.7599 3144.3829 L 4281.7599 3144.7929 L 4281.5499 3145.2029 L 4281.3499 3145.4029 L 4280.7299 3145.6029 M 4278.8899 3145.6029 L 4280.7299 3145.6029 L 4281.3499 3145.8129 L 4281.5499 3146.0129 L 4281.7599 3146.4229 L 4281.7599 3147.0429 L 4281.5499 3147.4529 L 4281.3499 3147.6529 L 4280.7299 3147.8529 L 4278.8899 3147.8529 M 4284.1299 3144.9929 L 4283.7199 3145.2029 L 4283.3099 3145.6029 L 4283.1099 3146.2229 L 4283.1099 3146.6329 L 4283.3099 3147.2429 L 4283.7199 3147.6529 L 4284.1299 3147.8529 L 4284.7399 3147.8529 L 4285.1499 3147.6529 L 4285.5599 3147.2429 L 4285.7599 3146.6329 L 4285.7599 3146.2229 L 4285.5599 3145.6029 L 4285.1499 3145.2029 L 4284.7399 3144.9929 L 4284.1299 3144.9929 M 4289.5699 3144.9929 L 4289.5699 3147.8529 M 4289.5699 3145.6029 L 4289.1599 3145.2029 L 4288.7499 3144.9929 L 4288.1399 3144.9929 L 4287.7299 3145.2029 L 4287.3199 3145.6029 L 4287.1099 3146.2229 L 4287.1099 3146.6329 L 4287.3199 3147.2429 L 4287.7299 3147.6529 L 4288.1399 3147.8529 L 4288.7499 3147.8529 L 4289.1599 3147.6529 L 4289.5699 3147.2429 M 4290.9199 3144.9929 L 4290.9199 3147.8529 M 4290.9199 3146.2229 L 4291.1199 3145.6029 L 4291.5299 3145.2029 L 4291.9399 3144.9929 L 4292.5599 3144.9929 M 4296.3599 3143.5629 L 4296.3599 3147.8529 M 4296.3599 3145.6029 L 4295.9499 3145.2029 L 4295.5399 3144.9929 L 4294.9299 3144.9929 L 4294.5199 3145.2029 L 4294.1099 3145.6029 L 4293.9099 3146.2229 L 4293.9099 3146.6329 L 4294.1099 3147.2429 L 4294.5199 3147.6529 L 4294.9299 3147.8529 L 4295.5399 3147.8529 L 4295.9499 3147.6529 L 4296.3599 3147.2429" fill="none"  stroke-width="0.6" c_note="note_name" /></g><g c_partid="part_pcbtext" c_etype="" c_origin="4226.5,3173" c_rotation="0" c_mirror="0" id="gge1110" locked="0" layerid="3" c_shapetype="group" display="none"><path c_fontsize="4.5" c_fontfamily="" c_text="U4" d="M 4226.5 3168.4599 L 4226.5 3171.5299 L 4226.7 3172.1399 L 4227.11 3172.5499 L 4227.73 3172.7499 L 4228.14 3172.7499 L 4228.75 3172.5499 L 4229.16 3172.1399 L 4229.36 3171.5299 L 4229.36 3168.4599 M 4232.76 3168.4599 L 4230.71 3171.3199 L 4233.78 3171.3199 M 4232.76 3168.4599 L 4232.76 3172.7499" fill="none"  stroke-width="0.6" c_note="note_pre" /></g><g c_partid="part_pcbtext" c_etype="pinpart" c_origin="4201.66,3193.103" c_rotation="0" c_mirror="0" id="gge1293" locked="0" layerid="3" c_shapetype="group" ><path c_fontsize="8" c_fontfamily="" c_text="ADS1115" d="M 4204.5699 3185.0329 L 4201.6599 3192.6629 M 4204.5699 3185.0329 L 4207.4799 3192.6629 M 4202.7499 3190.1229 L 4206.3899 3190.1229 M 4209.8799 3185.0329 L 4209.8799 3192.6629 M 4209.8799 3185.0329 L 4212.4199 3185.0329 L 4213.5099 3185.3929 L 4214.2399 3186.1229 L 4214.6099 3186.8529 L 4214.9699 3187.9429 L 4214.9699 3189.7529 L 4214.6099 3190.8529 L 4214.2399 3191.5729 L 4213.5099 3192.3029 L 4212.4199 3192.6629 L 4209.8799 3192.6629 M 4222.4599 3186.1229 L 4221.7299 3185.3929 L 4220.6399 3185.0329 L 4219.1899 3185.0329 L 4218.0999 3185.3929 L 4217.3699 3186.1229 L 4217.3699 3186.8529 L 4217.7299 3187.5729 L 4218.0999 3187.9429 L 4218.8199 3188.3029 L 4221.0099 3189.0329 L 4221.7299 3189.3929 L 4222.0999 3189.7529 L 4222.4599 3190.4829 L 4222.4599 3191.5729 L 4221.7299 3192.3029 L 4220.6399 3192.6629 L 4219.1899 3192.6629 L 4218.0999 3192.3029 L 4217.3699 3191.5729 M 4224.8599 3186.4829 L 4225.5899 3186.1229 L 4226.6799 3185.0329 L 4226.6799 3192.6629 M 4229.0799 3186.4829 L 4229.8099 3186.1229 L 4230.8999 3185.0329 L 4230.8999 3192.6629 M 4233.2999 3186.4829 L 4234.0199 3186.1229 L 4235.1099 3185.0329 L 4235.1099 3192.6629 M 4241.8799 3185.0329 L 4238.2399 3185.0329 L 4237.8799 3188.3029 L 4238.2399 3187.9429 L 4239.3299 3187.5729 L 4240.4199 3187.5729 L 4241.5099 3187.9429 L 4242.2399 3188.6629 L 4242.6099 3189.7529 L 4242.6099 3190.4829 L 4242.2399 3191.5729 L 4241.5099 3192.3029 L 4240.4199 3192.6629 L 4239.3299 3192.6629 L 4238.2399 3192.3029 L 4237.8799 3191.9429 L 4237.5099 3191.2129" fill="none"  stroke-width="0.8"  /></g><g c_partid="part_pcbtext" c_etype="pinpart" c_origin="4174.66,3222.603" c_rotation="0" c_mirror="0" id="gge1299" locked="0" layerid="3" c_shapetype="group" ><path c_fontsize="2" c_fontfamily="" c_text="VDD" d="M 4174.6599 3220.5829 L 4175.3899 3222.4929 M 4176.1099 3220.5829 L 4175.3899 3222.4929 M 4176.7099 3220.5829 L 4176.7099 3222.4929 M 4176.7099 3220.5829 L 4177.3499 3220.5829 L 4177.6199 3220.6729 L 4177.8099 3220.8529 L 4177.8999 3221.0429 L 4177.9899 3221.3129 L 4177.9899 3221.7629 L 4177.8999 3222.0429 L 4177.8099 3222.2229 L 4177.6199 3222.4029 L 4177.3499 3222.4929 L 4176.7099 3222.4929 M 4178.5899 3220.5829 L 4178.5899 3222.4929 M 4178.5899 3220.5829 L 4179.2199 3220.5829 L 4179.4999 3220.6729 L 4179.6799 3220.8529 L 4179.7699 3221.0429 L 4179.8599 3221.3129 L 4179.8599 3221.7629 L 4179.7699 3222.0429 L 4179.6799 3222.2229 L 4179.4999 3222.4029 L 4179.2199 3222.4929 L 4178.5899 3222.4929" fill="none"  stroke-width="0.4"  /></g><g c_partid="part_pcbtext" c_etype="pinpart" c_origin="4184.66,3222.603" c_rotation="0" c_mirror="0" id="gge1305" locked="0" layerid="3" c_shapetype="group" ><path c_fontsize="2" c_fontfamily="" c_text="GND" d="M 4186.0199 3221.0429 L 4185.9299 3220.8529 L 4185.7499 3220.6729 L 4185.5699 3220.5829 L 4185.2099 3220.5829 L 4185.0199 3220.6729 L 4184.8399 3220.8529 L 4184.7499 3221.0429 L 4184.6599 3221.3129 L 4184.6599 3221.7629 L 4184.7499 3222.0429 L 4184.8399 3222.2229 L 4185.0199 3222.4029 L 4185.2099 3222.4929 L 4185.5699 3222.4929 L 4185.7499 3222.4029 L 4185.9299 3222.2229 L 4186.0199 3222.0429 L 4186.0199 3221.7629 M 4185.5699 3221.7629 L 4186.0199 3221.7629 M 4186.6199 3220.5829 L 4186.6199 3222.4929 M 4186.6199 3220.5829 L 4187.8999 3222.4929 M 4187.8999 3220.5829 L 4187.8999 3222.4929 M 4188.4999 3220.5829 L 4188.4999 3222.4929 M 4188.4999 3220.5829 L 4189.1299 3220.5829 L 4189.4099 3220.6729 L 4189.5899 3220.8529 L 4189.6799 3221.0429 L 4189.7699 3221.3129 L 4189.7699 3221.7629 L 4189.6799 3222.0429 L 4189.5899 3222.2229 L 4189.4099 3222.4029 L 4189.1299 3222.4929 L 4188.4999 3222.4929" fill="none"  stroke-width="0.4"  /></g><g c_partid="part_pcbtext" c_etype="pinpart" c_origin="4194.66,3222.603" c_rotation="0" c_mirror="0" id="gge1311" locked="0" layerid="3" c_shapetype="group" ><path c_fontsize="2" c_fontfamily="" c_text="SCL" d="M 4195.9299 3220.8529 L 4195.7499 3220.6729 L 4195.4799 3220.5829 L 4195.1099 3220.5829 L 4194.8399 3220.6729 L 4194.6599 3220.8529 L 4194.6599 3221.0429 L 4194.7499 3221.2229 L 4194.8399 3221.3129 L 4195.0199 3221.4029 L 4195.5699 3221.5829 L 4195.7499 3221.6729 L 4195.8399 3221.7629 L 4195.9299 3221.9529 L 4195.9299 3222.2229 L 4195.7499 3222.4029 L 4195.4799 3222.4929 L 4195.1099 3222.4929 L 4194.8399 3222.4029 L 4194.6599 3222.2229 M 4197.8999 3221.0429 L 4197.8099 3220.8529 L 4197.6199 3220.6729 L 4197.4399 3220.5829 L 4197.0799 3220.5829 L 4196.8999 3220.6729 L 4196.7099 3220.8529 L 4196.6199 3221.0429 L 4196.5299 3221.3129 L 4196.5299 3221.7629 L 4196.6199 3222.0429 L 4196.7099 3222.2229 L 4196.8999 3222.4029 L 4197.0799 3222.4929 L 4197.4399 3222.4929 L 4197.6199 3222.4029 L 4197.8099 3222.2229 L 4197.8999 3222.0429 M 4198.4999 3220.5829 L 4198.4999 3222.4929 M 4198.4999 3222.4929 L 4199.5899 3222.4929" fill="none"  stroke-width="0.4"  /></g><g c_partid="part_pcbtext" c_etype="pinpart" c_origin="4204.66,3222.603" c_rotation="0" c_mirror="0" id="gge1317" locked="0" layerid="3" c_shapetype="group" ><path c_fontsize="2" c_fontfamily="" c_text="SDA" d="M 4205.9299 3220.8529 L 4205.7499 3220.6729 L 4205.4799 3220.5829 L 4205.1099 3220.5829 L 4204.8399 3220.6729 L 4204.6599 3220.8529 L 4204.6599 3221.0429 L 4204.7499 3221.2229 L 4204.8399 3221.3129 L 4205.0199 3221.4029 L 4205.5699 3221.5829 L 4205.7499 3221.6729 L 4205.8399 3221.7629 L 4205.9299 3221.9529 L 4205.9299 3222.2229 L 4205.7499 3222.4029 L 4205.4799 3222.4929 L 4205.1099 3222.4929 L 4204.8399 3222.4029 L 4204.6599 3222.2229 M 4206.5299 3220.5829 L 4206.5299 3222.4929 M 4206.5299 3220.5829 L 4207.1699 3220.5829 L 4207.4399 3220.6729 L 4207.6199 3220.8529 L 4207.7099 3221.0429 L 4207.8099 3221.3129 L 4207.8099 3221.7629 L 4207.7099 3222.0429 L 4207.6199 3222.2229 L 4207.4399 3222.4029 L 4207.1699 3222.4929 L 4206.5299 3222.4929 M 4209.1299 3220.5829 L 4208.4099 3222.4929 M 4209.1299 3220.5829 L 4209.8599 3222.4929 M 4208.6799 3221.8529 L 4209.5899 3221.8529" fill="none"  stroke-width="0.4"  /></g><g c_partid="part_pcbtext" c_etype="pinpart" c_origin="4213.66,3222.603" c_rotation="0" c_mirror="0" id="gge1323" locked="0" layerid="3" c_shapetype="group" ><path c_fontsize="2" c_fontfamily="" c_text="ADDR" d="M 4214.3899 3220.5829 L 4213.6599 3222.4929 M 4214.3899 3220.5829 L 4215.1099 3222.4929 M 4213.9299 3221.8529 L 4214.8399 3221.8529 M 4215.7099 3220.5829 L 4215.7099 3222.4929 M 4215.7099 3220.5829 L 4216.3499 3220.5829 L 4216.6199 3220.6729 L 4216.8099 3220.8529 L 4216.8999 3221.0429 L 4216.9899 3221.3129 L 4216.9899 3221.7629 L 4216.8999 3222.0429 L 4216.8099 3222.2229 L 4216.6199 3222.4029 L 4216.3499 3222.4929 L 4215.7099 3222.4929 M 4217.5899 3220.5829 L 4217.5899 3222.4929 M 4217.5899 3220.5829 L 4218.2199 3220.5829 L 4218.4999 3220.6729 L 4218.6799 3220.8529 L 4218.7699 3221.0429 L 4218.8599 3221.3129 L 4218.8599 3221.7629 L 4218.7699 3222.0429 L 4218.6799 3222.2229 L 4218.4999 3222.4029 L 4218.2199 3222.4929 L 4217.5899 3222.4929 M 4219.4599 3220.5829 L 4219.4599 3222.4929 M 4219.4599 3220.5829 L 4220.2799 3220.5829 L 4220.5499 3220.6729 L 4220.6399 3220.7629 L 4220.7299 3220.9529 L 4220.7299 3221.1329 L 4220.6399 3221.3129 L 4220.5499 3221.4029 L 4220.2799 3221.4929 L 4219.4599 3221.4929 M 4220.0999 3221.4929 L 4220.7299 3222.4929" fill="none"  stroke-width="0.4"  /></g><g c_partid="part_pcbtext" c_etype="pinpart" c_origin="4223.66,3222.603" c_rotation="0" c_mirror="0" id="gge1329" locked="0" layerid="3" c_shapetype="group" ><path c_fontsize="2" c_fontfamily="" c_text="ALRT" d="M 4224.3899 3220.5829 L 4223.6599 3222.4929 M 4224.3899 3220.5829 L 4225.1099 3222.4929 M 4223.9299 3221.8529 L 4224.8399 3221.8529 M 4225.7099 3220.5829 L 4225.7099 3222.4929 M 4225.7099 3222.4929 L 4226.8099 3222.4929 M 4227.4099 3220.5829 L 4227.4099 3222.4929 M 4227.4099 3220.5829 L 4228.2199 3220.5829 L 4228.4999 3220.6729 L 4228.5899 3220.7629 L 4228.6799 3220.9529 L 4228.6799 3221.1329 L 4228.5899 3221.3129 L 4228.4999 3221.4029 L 4228.2199 3221.4929 L 4227.4099 3221.4929 M 4228.0399 3221.4929 L 4228.6799 3222.4929 M 4229.9099 3220.5829 L 4229.9099 3222.4929 M 4229.2799 3220.5829 L 4230.5499 3220.5829" fill="none"  stroke-width="0.4"  /></g><g c_partid="part_pcbtext" c_etype="pinpart" c_origin="4235.66,3222.603" c_rotation="0" c_mirror="0" id="gge1335" locked="0" layerid="3" c_shapetype="group" ><path c_fontsize="2" c_fontfamily="" c_text="A0" d="M 4236.3899 3220.5829 L 4235.6599 3222.4929 M 4236.3899 3220.5829 L 4237.1099 3222.4929 M 4235.9299 3221.8529 L 4236.8399 3221.8529 M 4238.2599 3220.5829 L 4237.9899 3220.6729 L 4237.8099 3220.9529 L 4237.7099 3221.4029 L 4237.7099 3221.6729 L 4237.8099 3222.1329 L 4237.9899 3222.4029 L 4238.2599 3222.4929 L 4238.4399 3222.4929 L 4238.7099 3222.4029 L 4238.8999 3222.1329 L 4238.9899 3221.6729 L 4238.9899 3221.4029 L 4238.8999 3220.9529 L 4238.7099 3220.6729 L 4238.4399 3220.5829 L 4238.2599 3220.5829" fill="none"  stroke-width="0.4"  /></g><g c_partid="part_pcbtext" c_etype="pinpart" c_origin="4245.66,3222.603" c_rotation="0" c_mirror="0" id="gge1341" locked="0" layerid="3" c_shapetype="group" ><path c_fontsize="2" c_fontfamily="" c_text="A1" d="M 4246.3899 3220.5829 L 4245.6599 3222.4929 M 4246.3899 3220.5829 L 4247.1099 3222.4929 M 4245.9299 3221.8529 L 4246.8399 3221.8529 M 4247.7099 3220.9529 L 4247.8999 3220.8529 L 4248.1699 3220.5829 L 4248.1699 3222.4929" fill="none"  stroke-width="0.4"  /></g><g c_partid="part_pcbtext" c_etype="pinpart" c_origin="4255.66,3222.603" c_rotation="0" c_mirror="0" id="gge1347" locked="0" layerid="3" c_shapetype="group" ><path c_fontsize="2" c_fontfamily="" c_text="A2" d="M 4256.3899 3220.5829 L 4255.6599 3222.4929 M 4256.3899 3220.5829 L 4257.1099 3222.4929 M 4255.9299 3221.8529 L 4256.8399 3221.8529 M 4257.8099 3221.0429 L 4257.8099 3220.9529 L 4257.8999 3220.7629 L 4257.9899 3220.6729 L 4258.1699 3220.5829 L 4258.5299 3220.5829 L 4258.7099 3220.6729 L 4258.8099 3220.7629 L 4258.8999 3220.9529 L 4258.8999 3221.1329 L 4258.8099 3221.3129 L 4258.6199 3221.5829 L 4257.7099 3222.4929 L 4258.9899 3222.4929" fill="none"  stroke-width="0.4"  /></g><g c_partid="part_pcbtext" c_etype="pinpart" c_origin="4265.66,3222.603" c_rotation="0" c_mirror="0" id="gge1353" locked="0" layerid="3" c_shapetype="group" ><path c_fontsize="2" c_fontfamily="" c_text="A3" d="M 4266.3899 3220.5829 L 4265.6599 3222.4929 M 4266.3899 3220.5829 L 4267.1099 3222.4929 M 4265.9299 3221.8529 L 4266.8399 3221.8529 M 4267.8999 3220.5829 L 4268.8999 3220.5829 L 4268.3499 3221.3129 L 4268.6199 3221.3129 L 4268.8099 3221.4029 L 4268.8999 3221.4929 L 4268.9899 3221.7629 L 4268.9899 3221.9529 L 4268.8999 3222.2229 L 4268.7099 3222.4029 L 4268.4399 3222.4929 L 4268.1699 3222.4929 L 4267.8999 3222.4029 L 4267.8099 3222.3129 L 4267.7099 3222.1329" fill="none"  stroke-width="0.4"  /></g><g c_partid="part_pcbtext" c_etype="" c_origin="4262.5,3129.075" c_rotation="0" c_mirror="0" id="gge117" locked="0" layerid="3" c_shapetype="group" display="none"><path c_fontsize="4.5" c_fontfamily="" c_text="UV" d="M 4262.5 3124.53L4262.5 3127.6 L4262.7 3128.22 L4263.11 3128.63 L4263.73 3128.83 L4264.14 3128.83 L4264.75 3128.63 L4265.16 3128.22 L4265.36 3127.6 L4265.36 3124.53 M 4266.71 3124.53L4268.35 3128.83 M 4269.99 3124.53L4268.35 3128.83 " fill="none"  stroke-width="0.6" c_note="note_name" /></g><g c_partid="part_pcbtext" c_etype="" c_origin="4267,3132.5" c_rotation="0" c_mirror="0" id="gge123" locked="0" layerid="3" c_shapetype="group" ><path c_fontsize="4.5" c_fontfamily="" c_text="SND" d="M 4269.86 3128.57 L 4269.45 3128.16 L 4268.84 3127.96 L 4268.02 3127.96 L 4267.41 3128.16 L 4267 3128.57 L 4267 3128.98 L 4267.2 3129.39 L 4267.41 3129.6 L 4267.82 3129.8 L 4269.05 3130.21 L 4269.45 3130.41 L 4269.66 3130.62 L 4269.86 3131.03 L 4269.86 3131.64 L 4269.45 3132.05 L 4268.84 3132.25 L 4268.02 3132.25 L 4267.41 3132.05 L 4267 3131.64 M 4271.21 3127.96 L 4271.21 3132.25 M 4271.21 3127.96 L 4274.08 3132.25 M 4274.08 3127.96 L 4274.08 3132.25 M 4275.43 3127.96 L 4275.43 3132.25 M 4275.43 3127.96 L 4276.86 3127.96 L 4277.47 3128.16 L 4277.88 3128.57 L 4278.09 3128.98 L 4278.29 3129.6 L 4278.29 3130.62 L 4278.09 3131.23 L 4277.88 3131.64 L 4277.47 3132.05 L 4276.86 3132.25 L 4275.43 3132.25" fill="none"  stroke-width="0.6" c_note="note_pre" /></g><g c_partid="part_pcbtext" c_etype="" c_origin="4183.205,3232.55" c_rotation="0" c_mirror="0" id="gge204" locked="0" layerid="3" c_shapetype="group" display="none"><path c_fontsize="4.5" c_fontfamily="" c_text="Sound" d="M 4186.07 3228.62L4185.66 3228.21 L4185.05 3228.01 L4184.23 3228.01 L4183.61 3228.21 L4183.21 3228.62 L4183.21 3229.03 L4183.41 3229.44 L4183.61 3229.65 L4184.02 3229.85 L4185.25 3230.26 L4185.66 3230.46 L4185.86 3230.67 L4186.07 3231.08 L4186.07 3231.69 L4185.66 3232.1 L4185.05 3232.3 L4184.23 3232.3 L4183.61 3232.1 L4183.21 3231.69 M 4188.44 3229.44L4188.03 3229.65 L4187.62 3230.05 L4187.42 3230.67 L4187.42 3231.08 L4187.62 3231.69 L4188.03 3232.1 L4188.44 3232.3 L4189.06 3232.3 L4189.46 3232.1 L4189.87 3231.69 L4190.08 3231.08 L4190.08 3230.67 L4189.87 3230.05 L4189.46 3229.65 L4189.06 3229.44 L4188.44 3229.44 M 4191.43 3229.44L4191.43 3231.49 L4191.63 3232.1 L4192.04 3232.3 L4192.66 3232.3 L4193.06 3232.1 L4193.68 3231.49 M 4193.68 3229.44L4193.68 3232.3 M 4195.03 3229.44L4195.03 3232.3 M 4195.03 3230.26L4195.64 3229.65 L4196.05 3229.44 L4196.66 3229.44 L4197.07 3229.65 L4197.28 3230.26 L4197.28 3232.3 M 4201.08 3228.01L4201.08 3232.3 M 4201.08 3230.05L4200.67 3229.65 L4200.26 3229.44 L4199.65 3229.44 L4199.24 3229.65 L4198.83 3230.05 L4198.63 3230.67 L4198.63 3231.08 L4198.83 3231.69 L4199.24 3232.1 L4199.65 3232.3 L4200.26 3232.3 L4200.67 3232.1 L4201.08 3231.69 " fill="none"  stroke-width="0.6" c_note="note_name" /></g><g c_partid="part_pcbtext" c_etype="" c_origin="4169.21,3258" c_rotation="0" c_mirror="0" id="gge210" locked="0" layerid="3" c_shapetype="group" ><path c_fontsize="4.5" c_fontfamily="" c_text="UV" d="M 4169.21 3253.46 L 4169.21 3256.53 L 4169.41 3257.14 L 4169.82 3257.55 L 4170.44 3257.75 L 4170.85 3257.75 L 4171.46 3257.55 L 4171.87 3257.14 L 4172.07 3256.53 L 4172.07 3253.46 M 4173.42 3253.46 L 4175.06 3257.75 M 4176.7 3253.46 L 4175.06 3257.75" fill="none"  stroke-width="0.6" c_note="note_pre" /></g><g c_partid="part_pcbtext" c_etype="" c_origin="4188.705,3129.025" c_rotation="0" c_mirror="0" id="gge291" locked="0" layerid="3" c_shapetype="group" display="none"><path c_fontsize="4.5" c_fontfamily="" c_text="BME280" d="M 4188.71 3124.48L4188.71 3128.78 M 4188.71 3124.48L4190.55 3124.48 L4191.16 3124.69 L4191.36 3124.89 L4191.57 3125.3 L4191.57 3125.71 L4191.36 3126.12 L4191.16 3126.33 L4190.55 3126.53 M 4188.71 3126.53L4190.55 3126.53 L4191.16 3126.73 L4191.36 3126.94 L4191.57 3127.35 L4191.57 3127.96 L4191.36 3128.37 L4191.16 3128.58 L4190.55 3128.78 L4188.71 3128.78 M 4192.92 3124.48L4192.92 3128.78 M 4192.92 3124.48L4194.56 3128.78 M 4196.19 3124.48L4194.56 3128.78 M 4196.19 3124.48L4196.19 3128.78 M 4197.54 3124.48L4197.54 3128.78 M 4197.54 3124.48L4200.2 3124.48 M 4197.54 3126.53L4199.18 3126.53 M 4197.54 3128.78L4200.2 3128.78 M 4201.76 3125.51L4201.76 3125.3 L4201.96 3124.89 L4202.16 3124.69 L4202.57 3124.48 L4203.39 3124.48 L4203.8 3124.69 L4204.01 3124.89 L4204.21 3125.3 L4204.21 3125.71 L4204.01 3126.12 L4203.6 3126.73 L4201.55 3128.78 L4204.41 3128.78 M 4206.79 3124.48L4206.17 3124.69 L4205.97 3125.1 L4205.97 3125.51 L4206.17 3125.92 L4206.58 3126.12 L4207.4 3126.33 L4208.01 3126.53 L4208.42 3126.94 L4208.63 3127.35 L4208.63 3127.96 L4208.42 3128.37 L4208.22 3128.58 L4207.61 3128.78 L4206.79 3128.78 L4206.17 3128.58 L4205.97 3128.37 L4205.76 3127.96 L4205.76 3127.35 L4205.97 3126.94 L4206.38 3126.53 L4206.99 3126.33 L4207.81 3126.12 L4208.22 3125.92 L4208.42 3125.51 L4208.42 3125.1 L4208.22 3124.69 L4207.61 3124.48 L4206.79 3124.48 M 4211.21 3124.48L4210.59 3124.69 L4210.18 3125.3 L4209.98 3126.33 L4209.98 3126.94 L4210.18 3127.96 L4210.59 3128.58 L4211.21 3128.78 L4211.61 3128.78 L4212.23 3128.58 L4212.64 3127.96 L4212.84 3126.94 L4212.84 3126.33 L4212.64 3125.3 L4212.23 3124.69 L4211.61 3124.48 L4211.21 3124.48 " fill="none"  stroke-width="0.6" c_note="note_name" /></g><g c_partid="part_pcbtext" c_etype="" c_origin="4169.5,3132.5" c_rotation="0" c_mirror="0" id="gge297" locked="0" layerid="3" c_shapetype="group" ><path c_fontsize="4.5" c_fontfamily="" c_text="BME280" d="M 4169.5 3127.96 L 4169.5 3132.25 M 4169.5 3127.96 L 4171.34 3127.96 L 4171.95 3128.16 L 4172.16 3128.37 L 4172.36 3128.78 L 4172.36 3129.19 L 4172.16 3129.6 L 4171.95 3129.8 L 4171.34 3130 M 4169.5 3130 L 4171.34 3130 L 4171.95 3130.21 L 4172.16 3130.41 L 4172.36 3130.82 L 4172.36 3131.44 L 4172.16 3131.85 L 4171.95 3132.05 L 4171.34 3132.25 L 4169.5 3132.25 M 4173.71 3127.96 L 4173.71 3132.25 M 4173.71 3127.96 L 4175.35 3132.25 M 4176.99 3127.96 L 4175.35 3132.25 M 4176.99 3127.96 L 4176.99 3132.25 M 4178.34 3127.96 L 4178.34 3132.25 M 4178.34 3127.96 L 4181 3127.96 M 4178.34 3130 L 4179.97 3130 M 4178.34 3132.25 L 4181 3132.25 M 4182.55 3128.98 L 4182.55 3128.78 L 4182.75 3128.37 L 4182.96 3128.16 L 4183.37 3127.96 L 4184.19 3127.96 L 4184.6 3128.16 L 4184.8 3128.37 L 4185 3128.78 L 4185 3129.19 L 4184.8 3129.6 L 4184.39 3130.21 L 4182.35 3132.25 L 4185.21 3132.25 M 4187.58 3127.96 L 4186.97 3128.16 L 4186.76 3128.57 L 4186.76 3128.98 L 4186.97 3129.39 L 4187.38 3129.6 L 4188.2 3129.8 L 4188.81 3130 L 4189.22 3130.41 L 4189.42 3130.82 L 4189.42 3131.44 L 4189.22 3131.85 L 4189.01 3132.05 L 4188.4 3132.25 L 4187.58 3132.25 L 4186.97 3132.05 L 4186.76 3131.85 L 4186.56 3131.44 L 4186.56 3130.82 L 4186.76 3130.41 L 4187.17 3130 L 4187.79 3129.8 L 4188.6 3129.6 L 4189.01 3129.39 L 4189.22 3128.98 L 4189.22 3128.57 L 4189.01 3128.16 L 4188.4 3127.96 L 4187.58 3127.96 M 4192 3127.96 L 4191.39 3128.16 L 4190.98 3128.78 L 4190.77 3129.8 L 4190.77 3130.41 L 4190.98 3131.44 L 4191.39 3132.05 L 4192 3132.25 L 4192.41 3132.25 L 4193.02 3132.05 L 4193.43 3131.44 L 4193.64 3130.41 L 4193.64 3129.8 L 4193.43 3128.78 L 4193.02 3128.16 L 4192.41 3127.96 L 4192 3127.96" fill="none"  stroke-width="0.6" c_note="note_pre" /></g><g c_partid="part_pcbtext" c_etype="" c_origin="4262,3232.55" c_rotation="0" c_mirror="0" id="gge3488" locked="0" layerid="3" c_shapetype="group" display="none"><path c_fontsize="4.5" c_fontfamily="" c_text="HDR-F-2.54_1x3" d="M 4262 3228.01L4262 3232.3 M 4264.86 3228.01L4264.86 3232.3 M 4262 3230.05L4264.86 3230.05 M 4266.21 3228.01L4266.21 3232.3 M 4266.21 3228.01L4267.65 3228.01 L4268.26 3228.21 L4268.67 3228.62 L4268.87 3229.03 L4269.08 3229.65 L4269.08 3230.67 L4268.87 3231.28 L4268.67 3231.69 L4268.26 3232.1 L4267.65 3232.3 L4266.21 3232.3 M 4270.43 3228.01L4270.43 3232.3 M 4270.43 3228.01L4272.27 3228.01 L4272.88 3228.21 L4273.09 3228.42 L4273.29 3228.83 L4273.29 3229.24 L4273.09 3229.65 L4272.88 3229.85 L4272.27 3230.05 L4270.43 3230.05 M 4271.86 3230.05L4273.29 3232.3 M 4274.64 3230.46L4278.32 3230.46 M 4279.67 3228.01L4279.67 3232.3 M 4279.67 3228.01L4282.33 3228.01 M 4279.67 3230.05L4281.31 3230.05 M 4283.68 3230.46L4287.36 3230.46 M 4288.92 3229.03L4288.92 3228.83 L4289.12 3228.42 L4289.33 3228.21 L4289.74 3228.01 L4290.55 3228.01 L4290.96 3228.21 L4291.17 3228.42 L4291.37 3228.83 L4291.37 3229.24 L4291.17 3229.65 L4290.76 3230.26 L4288.71 3232.3 L4291.58 3232.3 M 4293.13 3231.28L4292.93 3231.49 L4293.13 3231.69 L4293.34 3231.49 L4293.13 3231.28 M 4297.14 3228.01L4295.1 3228.01 L4294.89 3229.85 L4295.1 3229.65 L4295.71 3229.44 L4296.32 3229.44 L4296.94 3229.65 L4297.35 3230.05 L4297.55 3230.67 L4297.55 3231.08 L4297.35 3231.69 L4296.94 3232.1 L4296.32 3232.3 L4295.71 3232.3 L4295.1 3232.1 L4294.89 3231.9 L4294.69 3231.49 M 4300.95 3228.01L4298.9 3230.87 L4301.97 3230.87 M 4300.95 3228.01L4300.95 3232.3 M 4303.32 3233.74L4307 3233.74 M 4308.35 3228.83L4308.76 3228.62 L4309.37 3228.01 L4309.37 3232.3 M 4310.72 3229.44L4312.97 3232.3 M 4312.97 3229.44L4310.72 3232.3 M 4314.73 3228.01L4316.98 3228.01 L4315.75 3229.65 L4316.37 3229.65 L4316.78 3229.85 L4316.98 3230.05 L4317.19 3230.67 L4317.19 3231.08 L4316.98 3231.69 L4316.57 3232.1 L4315.96 3232.3 L4315.35 3232.3 L4314.73 3232.1 L4314.53 3231.9 L4314.32 3231.49 " fill="none"  stroke-width="0.6" c_note="note_name" /></g><g c_partid="part_pcbtext" c_etype="" c_origin="4265.5,3258" c_rotation="0" c_mirror="0" id="gge3494" locked="0" layerid="3" c_shapetype="group" ><path c_fontsize="4.5" c_fontfamily="" c_text="PWR" d="M 4265.5 3253.46 L 4265.5 3257.75 M 4265.5 3253.46 L 4267.34 3253.46 L 4267.95 3253.66 L 4268.16 3253.87 L 4268.36 3254.28 L 4268.36 3254.89 L 4268.16 3255.3 L 4267.95 3255.5 L 4267.34 3255.71 L 4265.5 3255.71 M 4269.71 3253.46 L 4270.74 3257.75 M 4271.76 3253.46 L 4270.74 3257.75 M 4271.76 3253.46 L 4272.78 3257.75 M 4273.8 3253.46 L 4272.78 3257.75 M 4275.15 3253.46 L 4275.15 3257.75 M 4275.15 3253.46 L 4277 3253.46 L 4277.61 3253.66 L 4277.81 3253.87 L 4278.02 3254.28 L 4278.02 3254.69 L 4277.81 3255.1 L 4277.61 3255.3 L 4277 3255.5 L 4275.15 3255.5 M 4276.59 3255.5 L 4278.02 3257.75" fill="none"  stroke-width="0.6" c_note="note_pre" /></g><polyline points="4047.5 3133 4047.5 3123 4289 3123 4289 3269 4047.5 3269 4047.5 3132.5" stroke-width="1"  stroke-linecap="round" fill="none" layerid="10" net="" id="gge1545" locked="0" /></svg>