M48
METRIC,LZ,000.000
;FILE_FORMAT=3:3
;TYPE=PLATED
;Layer: PTH_Through
;EasyEDA v6.5.34, 2023-08-29 10:19:29
;49c1189aaea244c0bf5c0b9dc7b8a4ca,07f4848b7c094117bb63b494a1dfdd33,10
;Gerber Generator version 0.2
;Holesize 1 = 0.306 mm
T01C0.306
;Holesize 2 = 0.889 mm
T02C0.889
;Holesize 3 = 0.915 mm
T03C0.915
;Holesize 4 = 1.000 mm
T04C1.000
%
G05
G90
T01
X044220Y039427
T02
X038227Y027051
X040767Y027051
X057531Y056243
X060071Y056243
X038227Y056256
X040767Y056256
X043307Y056256
X045847Y056256
X059256Y027051
X061796Y027051
T03
X040259Y035433
X042799Y035433
X045339Y035433
X047879Y035433
X050419Y035433
X052959Y035433
X055499Y035433
X058039Y035433
X060579Y035433
X063119Y035433
X043307Y027051
X062611Y056243
X064336Y027051
T04
X027051Y030607G85X027051Y030607
X027051Y053467G85X027051Y053467
X009271Y030607G85X009271Y030607
X011811Y030607G85X011811Y030607
X014351Y030607G85X014351Y030607
X016891Y030607G85X016891Y030607
X019431Y030607G85X019431Y030607
X021971Y030607G85X021971Y030607
X024511Y030607G85X024511Y030607
X009271Y053467G85X009271Y053467
X011811Y053467G85X011811Y053467
X014351Y053467G85X014351Y053467
X016891Y053467G85X016891Y053467
X019431Y053467G85X019431Y053467
X021971Y053467G85X021971Y053467
X024511Y053467G85X024511Y053467
M30
