G04 Layer: BottomLayer*
G04 EasyEDA v6.5.34, 2023-08-29 10:19:29*
G04 49c1189aaea244c0bf5c0b9dc7b8a4ca,07f4848b7c094117bb63b494a1dfdd33,10*
G04 Gerber Generator version 0.2*
G04 Scale: 100 percent, Rotated: No, Reflected: No *
G04 Dimensions in millimeters *
G04 leading zeros omitted , absolute positions ,4 integer and 5 decimal *
%FSLAX45Y45*%
%MOMM*%

%ADD10C,0.7000*%
%ADD11C,1.5240*%
%ADD12R,1.5748X1.5748*%
%ADD13C,1.5748*%
%ADD14C,1.5080*%
%ADD15C,0.6100*%

%LPD*%
D10*
X4330700Y2705100D02*
G01*
X1943100Y5092700D01*
X1943100Y5346700D01*
X5925565Y2705100D02*
G01*
X5925565Y2853893D01*
X5925565Y2853893D02*
G01*
X5803900Y2975559D01*
X5803900Y3543300D01*
X4422013Y3942714D02*
G01*
X4422013Y3655187D01*
X4533900Y3543300D01*
X6007100Y5624321D02*
G01*
X6500266Y5131155D01*
X6500266Y3025800D01*
X6179565Y2705100D01*
X4330700Y5625592D02*
G01*
X4330700Y3594100D01*
X4279900Y3543300D01*
X3822700Y2705100D02*
G01*
X4051300Y2476500D01*
X4483100Y2476500D01*
X5549900Y3543300D01*
X4076700Y5625592D02*
G01*
X4216400Y5765292D01*
X4660138Y5765292D01*
X4826000Y5599429D01*
X4826000Y3835400D01*
X4533900Y3543300D01*
X3822700Y5625592D02*
G01*
X3822700Y3530600D01*
X4203700Y3149600D01*
X4394200Y3149600D01*
X4787900Y3543300D01*
D11*
G01*
X4025900Y3543300D03*
G01*
X4279900Y3543300D03*
G01*
X4533900Y3543300D03*
G01*
X4787900Y3543300D03*
G01*
X5041900Y3543300D03*
G01*
X5295900Y3543300D03*
G01*
X5549900Y3543300D03*
G01*
X5803900Y3543300D03*
G01*
X6057900Y3543300D03*
G01*
X6311900Y3543300D03*
D12*
G01*
X3822700Y2705100D03*
D13*
G01*
X4076700Y2705100D03*
G01*
X4330700Y2705100D03*
D12*
G01*
X5753100Y5624321D03*
D13*
G01*
X6007100Y5624321D03*
G01*
X6261100Y5624321D03*
D12*
G01*
X3822700Y5625592D03*
D13*
G01*
X4076700Y5625592D03*
G01*
X4330700Y5625592D03*
G01*
X4584700Y5625592D03*
D12*
G01*
X5925565Y2705100D03*
D13*
G01*
X6179565Y2705100D03*
G01*
X6433565Y2705100D03*
D14*
G01*
X2705100Y3060700D03*
G01*
X2705100Y5346700D03*
G01*
X927100Y3060700D03*
G01*
X1181100Y3060700D03*
G01*
X1435100Y3060700D03*
G01*
X1689100Y3060700D03*
G01*
X1943100Y3060700D03*
G01*
X2197100Y3060700D03*
G01*
X2451100Y3060700D03*
G01*
X927100Y5346700D03*
G01*
X1181100Y5346700D03*
G01*
X1435100Y5346700D03*
G01*
X1689100Y5346700D03*
G01*
X1943100Y5346700D03*
G01*
X2197100Y5346700D03*
G01*
X2451100Y5346700D03*
D15*
G01*
X4422013Y3942714D03*
M02*
