M48
METRIC,LZ,000.000
;FILE_FORMAT=3:3
;TYPE=PLATED
;Layer: PTH_Through
;EasyEDA v6.5.38, 2023-12-02 23:49:31
;f3335789055e47b3961c9cef71cec245,07f4848b7c094117bb63b494a1dfdd33,10
;Gerber Generator version 0.2
;Holesize 1 = 0.306 mm
T01C0.306
;Holesize 2 = 0.889 mm
T02C0.889
;Holesize 3 = 0.915 mm
T03C0.915
;Holesize 4 = 1.000 mm
T04C1.000
%
G05
G90
T01
X052974Y038422
X070759Y033114
X038460Y054595
T02
X065960Y027000
X068500Y027000
X038460Y027000
X041000Y027000
X065460Y056000
X068000Y056000
X037190Y056000
X039730Y056000
X042270Y056000
X044810Y056000
X051325Y056000
X053865Y056000
X056405Y056000
X058945Y056000
T03
X071040Y027000
X043540Y027000
X070540Y056000
X046570Y035500
X049110Y035500
X051650Y035500
X054190Y035500
X056730Y035500
X059270Y035500
X061810Y035500
X064350Y035500
X066890Y035500
X069430Y035500
T04
X024890Y030570G85X024890Y030570
X024890Y053430G85X024890Y053430
X007110Y030570G85X007110Y030570
X009650Y030570G85X009650Y030570
X012190Y030570G85X012190Y030570
X014730Y030570G85X014730Y030570
X017270Y030570G85X017270Y030570
X019810Y030570G85X019810Y030570
X022350Y030570G85X022350Y030570
X007110Y053430G85X007110Y053430
X009650Y053430G85X009650Y053430
X012190Y053430G85X012190Y053430
X014730Y053430G85X014730Y053430
X017270Y053430G85X017270Y053430
X019810Y053430G85X019810Y053430
X022350Y053430G85X022350Y053430
M30
