G04 Layer: BottomSolderMaskLayer*
G04 EasyEDA v6.5.38, 2023-12-02 23:49:31*
G04 f3335789055e47b3961c9cef71cec245,07f4848b7c094117bb63b494a1dfdd33,10*
G04 Gerber Generator version 0.2*
G04 Scale: 100 percent, Rotated: No, Reflected: No *
G04 Dimensions in millimeters *
G04 leading zeros omitted , absolute positions ,4 integer and 5 decimal *
%FSLAX45Y45*%
%MOMM*%

%AMMACRO1*1,1,$1,$2,$3*1,1,$1,$4,$5*1,1,$1,0-$2,0-$3*1,1,$1,0-$4,0-$5*20,1,$1,$2,$3,$4,$5,0*20,1,$1,$4,$5,0-$2,0-$3,0*20,1,$1,0-$2,0-$3,0-$4,0-$5,0*20,1,$1,0-$4,0-$5,$2,$3,0*4,1,4,$2,$3,$4,$5,0-$2,0-$3,0-$4,0-$5,$2,$3,0*%
%ADD10C,1.6080*%
%ADD11MACRO1,0.1016X-0.7874X0.7874X0.7874X0.7874*%
%ADD12C,1.6764*%
%ADD13C,1.6256*%

%LPD*%
D10*
G01*
X2488996Y3056991D03*
G01*
X2488996Y5342991D03*
G01*
X710996Y3056991D03*
G01*
X964996Y3056991D03*
G01*
X1218996Y3056991D03*
G01*
X1472996Y3056991D03*
G01*
X1726996Y3056991D03*
G01*
X1980996Y3056991D03*
G01*
X2234996Y3056991D03*
G01*
X710996Y5342991D03*
G01*
X964996Y5342991D03*
G01*
X1218996Y5342991D03*
G01*
X1472996Y5342991D03*
G01*
X1726996Y5342991D03*
G01*
X1980996Y5342991D03*
G01*
X2234996Y5342991D03*
D11*
G01*
X6595986Y2699994D03*
D12*
G01*
X6849999Y2699994D03*
G01*
X7103999Y2699994D03*
D11*
G01*
X3845991Y2699994D03*
D12*
G01*
X4099991Y2699994D03*
G01*
X4353991Y2699994D03*
D11*
G01*
X6545986Y5599988D03*
D12*
G01*
X6799986Y5599988D03*
G01*
X7053986Y5599988D03*
D11*
G01*
X3718991Y5599988D03*
D12*
G01*
X3972991Y5599988D03*
G01*
X4226991Y5599988D03*
G01*
X4480991Y5599988D03*
D11*
G01*
X5132481Y5599988D03*
D12*
G01*
X5386476Y5599988D03*
G01*
X5640476Y5599988D03*
G01*
X5894476Y5599988D03*
D13*
G01*
X4656988Y3549980D03*
G01*
X4910988Y3549980D03*
G01*
X5164988Y3549980D03*
G01*
X5418988Y3549980D03*
G01*
X5672988Y3549980D03*
G01*
X5926988Y3549980D03*
G01*
X6180988Y3549980D03*
G01*
X6434988Y3549980D03*
G01*
X6688988Y3549980D03*
G01*
X6942988Y3549980D03*
M02*
