G04 Layer: TopLayer*
G04 EasyEDA v6.5.38, 2023-12-02 23:49:31*
G04 f3335789055e47b3961c9cef71cec245,07f4848b7c094117bb63b494a1dfdd33,10*
G04 Gerber Generator version 0.2*
G04 Scale: 100 percent, Rotated: No, Reflected: No *
G04 Dimensions in millimeters *
G04 leading zeros omitted , absolute positions ,4 integer and 5 decimal *
%FSLAX45Y45*%
%MOMM*%

%ADD10C,0.7000*%
%ADD11C,1.5080*%
%ADD12R,1.5748X1.5748*%
%ADD13C,1.5748*%
%ADD14C,1.5240*%
%ADD15C,0.6100*%

%LPD*%
D10*
X6397195Y5599986D02*
G01*
X6155870Y5841311D01*
X1463321Y5841311D01*
X964999Y5342989D01*
X6545988Y5599986D02*
G01*
X6397195Y5599986D01*
X4480994Y5599986D02*
G01*
X4340506Y5459498D01*
X3845994Y5459498D01*
X3845994Y5459498D02*
G01*
X3101698Y5459498D01*
X3074774Y5486422D01*
X1870433Y5486422D01*
X1726999Y5342989D01*
X4099994Y2699992D02*
G01*
X4910990Y3510988D01*
X4910990Y3510988D02*
G01*
X4910990Y3550003D01*
X7075909Y3311446D02*
G01*
X5110533Y3311446D01*
X4910990Y3510988D01*
X4656990Y3550003D02*
G01*
X2982013Y3550003D01*
X2488999Y3056989D01*
X7103976Y2699992D02*
G01*
X6970067Y2566083D01*
X2979905Y2566083D01*
X2488999Y3056989D01*
X4983685Y5599986D02*
G01*
X4833749Y5749922D01*
X3868930Y5749922D01*
X3718994Y5599986D01*
X5132478Y5599986D02*
G01*
X4983685Y5599986D01*
X5418990Y3550003D02*
G01*
X5297401Y3671592D01*
X5297401Y3842179D01*
D11*
G01*
X2488996Y3056991D03*
G01*
X2488996Y5342991D03*
G01*
X710996Y3056991D03*
G01*
X964996Y3056991D03*
G01*
X1218996Y3056991D03*
G01*
X1472996Y3056991D03*
G01*
X1726996Y3056991D03*
G01*
X1980996Y3056991D03*
G01*
X2234996Y3056991D03*
G01*
X710996Y5342991D03*
G01*
X964996Y5342991D03*
G01*
X1218996Y5342991D03*
G01*
X1472996Y5342991D03*
G01*
X1726996Y5342991D03*
G01*
X1980996Y5342991D03*
G01*
X2234996Y5342991D03*
D12*
G01*
X6595973Y2699994D03*
D13*
G01*
X6849999Y2699994D03*
G01*
X7103999Y2699994D03*
D12*
G01*
X3845991Y2699994D03*
D13*
G01*
X4099991Y2699994D03*
G01*
X4353991Y2699994D03*
D12*
G01*
X6545986Y5599988D03*
D13*
G01*
X6799986Y5599988D03*
G01*
X7053986Y5599988D03*
D12*
G01*
X3718991Y5599988D03*
D13*
G01*
X3972991Y5599988D03*
G01*
X4226991Y5599988D03*
G01*
X4480991Y5599988D03*
D12*
G01*
X5132476Y5599988D03*
D13*
G01*
X5386476Y5599988D03*
G01*
X5640476Y5599988D03*
G01*
X5894476Y5599988D03*
D14*
G01*
X4656988Y3549980D03*
G01*
X4910988Y3549980D03*
G01*
X5164988Y3549980D03*
G01*
X5418988Y3549980D03*
G01*
X5672988Y3549980D03*
G01*
X5926988Y3549980D03*
G01*
X6180988Y3549980D03*
G01*
X6434988Y3549980D03*
G01*
X6688988Y3549980D03*
G01*
X6942988Y3549980D03*
D15*
G01*
X5297398Y3842181D03*
G01*
X7075906Y3311448D03*
G01*
X3845991Y5459501D03*
M02*
