G04 Layer: BottomSilkscreenLayer*
G04 EasyEDA v6.5.38, 2023-12-02 23:49:31*
G04 f3335789055e47b3961c9cef71cec245,07f4848b7c094117bb63b494a1dfdd33,10*
G04 Gerber Generator version 0.2*
G04 Scale: 100 percent, Rotated: No, Reflected: No *
G04 Dimensions in millimeters *
G04 leading zeros omitted , absolute positions ,4 integer and 5 decimal *
%FSLAX45Y45*%
%MOMM*%

%ADD10C,0.2032*%
%ADD11C,0.1219*%
%ADD12C,0.1422*%
%ADD13C,0.0813*%
%ADD14C,0.1016*%
%ADD15C,0.1270*%
%ADD16C,0.0166*%

%LPD*%
G36*
X6806793Y4374489D02*
G01*
X6806793Y4239615D01*
X6823252Y4239615D01*
X6823252Y4299051D01*
X6830517Y4304588D01*
X6837425Y4308398D01*
X6844284Y4310532D01*
X6851243Y4311243D01*
X6855815Y4310888D01*
X6860184Y4309770D01*
X6864350Y4308043D01*
X6868210Y4305604D01*
X6871716Y4302607D01*
X6874916Y4299000D01*
X6877710Y4294886D01*
X6880047Y4290263D01*
X6881926Y4285183D01*
X6883349Y4279696D01*
X6884212Y4273804D01*
X6884466Y4267555D01*
X6884263Y4261053D01*
X6883552Y4255008D01*
X6882384Y4249420D01*
X6880809Y4244340D01*
X6878726Y4239768D01*
X6876288Y4235754D01*
X6873392Y4232300D01*
X6870090Y4229404D01*
X6866381Y4227118D01*
X6862318Y4225493D01*
X6857847Y4224477D01*
X6852970Y4224121D01*
X6845198Y4225137D01*
X6837730Y4228084D01*
X6830517Y4232910D01*
X6823252Y4239615D01*
X6806793Y4239615D01*
X6806793Y4212691D01*
X6820509Y4212691D01*
X6821779Y4225899D01*
X6822541Y4225899D01*
X6825894Y4222750D01*
X6829602Y4219803D01*
X6833514Y4217111D01*
X6837680Y4214774D01*
X6842099Y4212844D01*
X6846671Y4211421D01*
X6851396Y4210456D01*
X6856323Y4210151D01*
X6861352Y4210405D01*
X6866178Y4211116D01*
X6870750Y4212285D01*
X6875068Y4213961D01*
X6879132Y4216044D01*
X6882841Y4218584D01*
X6886295Y4221581D01*
X6889394Y4225036D01*
X6892239Y4228896D01*
X6894677Y4233214D01*
X6896811Y4237939D01*
X6898538Y4243070D01*
X6899960Y4248556D01*
X6900925Y4254500D01*
X6901535Y4260850D01*
X6901738Y4267555D01*
X6901484Y4274007D01*
X6900722Y4280154D01*
X6899503Y4285996D01*
X6897827Y4291482D01*
X6895744Y4296562D01*
X6893306Y4301337D01*
X6890461Y4305655D01*
X6887311Y4309618D01*
X6883857Y4313174D01*
X6880148Y4316272D01*
X6876237Y4318965D01*
X6872071Y4321149D01*
X6867753Y4322927D01*
X6863283Y4324197D01*
X6858711Y4324959D01*
X6853986Y4325213D01*
X6844995Y4324350D01*
X6837121Y4321759D01*
X6829806Y4317695D01*
X6822541Y4312259D01*
X6823252Y4331309D01*
X6823252Y4374489D01*
G37*
G36*
X5678779Y4374489D02*
G01*
X5678779Y4239615D01*
X5694984Y4239615D01*
X5694984Y4299051D01*
X5702350Y4304588D01*
X5709310Y4308398D01*
X5716168Y4310532D01*
X5723229Y4311243D01*
X5727750Y4310888D01*
X5732068Y4309770D01*
X5736183Y4308043D01*
X5739993Y4305604D01*
X5743498Y4302607D01*
X5746648Y4299000D01*
X5749442Y4294886D01*
X5751779Y4290263D01*
X5753658Y4285183D01*
X5755081Y4279696D01*
X5755944Y4273804D01*
X5756198Y4267555D01*
X5755995Y4261053D01*
X5755284Y4255008D01*
X5754116Y4249420D01*
X5752541Y4244340D01*
X5750458Y4239768D01*
X5748020Y4235754D01*
X5745124Y4232300D01*
X5741822Y4229404D01*
X5738114Y4227118D01*
X5734050Y4225493D01*
X5729579Y4224477D01*
X5724702Y4224121D01*
X5717082Y4225137D01*
X5709666Y4228084D01*
X5702350Y4232910D01*
X5694984Y4239615D01*
X5678779Y4239615D01*
X5678779Y4212691D01*
X5692241Y4212691D01*
X5693714Y4225899D01*
X5694273Y4225899D01*
X5697728Y4222750D01*
X5701436Y4219803D01*
X5705398Y4217111D01*
X5709564Y4214774D01*
X5713933Y4212844D01*
X5718556Y4211421D01*
X5723331Y4210456D01*
X5728309Y4210151D01*
X5733338Y4210405D01*
X5738164Y4211116D01*
X5742736Y4212285D01*
X5747004Y4213961D01*
X5751017Y4216044D01*
X5754776Y4218584D01*
X5758180Y4221581D01*
X5761278Y4225036D01*
X5764072Y4228896D01*
X5766511Y4233214D01*
X5768594Y4237939D01*
X5770321Y4243070D01*
X5771692Y4248556D01*
X5772708Y4254500D01*
X5773267Y4260850D01*
X5773470Y4267555D01*
X5773216Y4274007D01*
X5772454Y4280154D01*
X5771235Y4285996D01*
X5769559Y4291482D01*
X5767476Y4296562D01*
X5765038Y4301337D01*
X5762193Y4305655D01*
X5759043Y4309618D01*
X5755589Y4313174D01*
X5751880Y4316272D01*
X5747969Y4318965D01*
X5743803Y4321149D01*
X5739485Y4322927D01*
X5735015Y4324197D01*
X5730443Y4324959D01*
X5725718Y4325213D01*
X5716727Y4324350D01*
X5708853Y4321759D01*
X5701538Y4317695D01*
X5694273Y4312259D01*
X5694984Y4331309D01*
X5694984Y4374489D01*
G37*
G36*
X6638391Y4353407D02*
G01*
X6638391Y4322419D01*
X6608114Y4322419D01*
X6608114Y4308703D01*
X6638391Y4308703D01*
X6638391Y4245203D01*
X6637528Y4236161D01*
X6634683Y4229354D01*
X6629349Y4225086D01*
X6621068Y4223613D01*
X6617919Y4223867D01*
X6614566Y4224578D01*
X6608368Y4226661D01*
X6605066Y4214215D01*
X6614871Y4211421D01*
X6619900Y4210507D01*
X6624675Y4210151D01*
X6632498Y4210812D01*
X6639001Y4212691D01*
X6644284Y4215790D01*
X6648348Y4219956D01*
X6651345Y4225086D01*
X6653377Y4231132D01*
X6654495Y4238040D01*
X6654850Y4245711D01*
X6654850Y4308703D01*
X6671411Y4308703D01*
X6671411Y4321403D01*
X6654088Y4322419D01*
X6652107Y4353407D01*
G37*
G36*
X6728307Y4325213D02*
G01*
X6721957Y4324858D01*
X6716268Y4323740D01*
X6711188Y4321962D01*
X6706768Y4319574D01*
X6702907Y4316526D01*
X6699605Y4312869D01*
X6696862Y4308703D01*
X6694678Y4304030D01*
X6693052Y4298848D01*
X6691833Y4293209D01*
X6691172Y4287164D01*
X6690918Y4280763D01*
X6690918Y4270857D01*
X6707479Y4270857D01*
X6716623Y4269638D01*
X6724802Y4268165D01*
X6731965Y4266488D01*
X6738213Y4264660D01*
X6743547Y4262577D01*
X6748068Y4260291D01*
X6751726Y4257802D01*
X6754672Y4255058D01*
X6756857Y4252112D01*
X6758381Y4248912D01*
X6759244Y4245508D01*
X6759498Y4241901D01*
X6757924Y4233418D01*
X6753555Y4227677D01*
X6747103Y4224375D01*
X6739229Y4223359D01*
X6731101Y4224324D01*
X6723329Y4227271D01*
X6715556Y4232046D01*
X6707479Y4238599D01*
X6707479Y4270857D01*
X6690918Y4270857D01*
X6690918Y4212691D01*
X6704634Y4212691D01*
X6705904Y4226153D01*
X6706666Y4226153D01*
X6710680Y4222902D01*
X6714896Y4219905D01*
X6719316Y4217162D01*
X6723888Y4214825D01*
X6728612Y4212894D01*
X6733438Y4211421D01*
X6738416Y4210456D01*
X6743547Y4210151D01*
X6750151Y4210659D01*
X6756247Y4212183D01*
X6761683Y4214672D01*
X6766407Y4218076D01*
X6770217Y4222445D01*
X6773113Y4227728D01*
X6774891Y4233875D01*
X6775500Y4240885D01*
X6775297Y4245254D01*
X6774535Y4249369D01*
X6773316Y4253179D01*
X6771538Y4256735D01*
X6769252Y4260037D01*
X6766458Y4263085D01*
X6763105Y4265930D01*
X6759194Y4268520D01*
X6754774Y4270857D01*
X6749745Y4273042D01*
X6744157Y4274972D01*
X6738010Y4276750D01*
X6731304Y4278325D01*
X6723938Y4279747D01*
X6707479Y4282033D01*
X6707631Y4287520D01*
X6708343Y4292854D01*
X6709765Y4297832D01*
X6712000Y4302302D01*
X6715099Y4306062D01*
X6719214Y4308957D01*
X6724396Y4310837D01*
X6730847Y4311497D01*
X6740398Y4310430D01*
X6749288Y4307586D01*
X6757212Y4303674D01*
X6764070Y4299305D01*
X6770979Y4310735D01*
X6762699Y4315663D01*
X6757822Y4318101D01*
X6752590Y4320336D01*
X6746951Y4322318D01*
X6741007Y4323842D01*
X6734759Y4324858D01*
G37*
G36*
X6547459Y4325213D02*
G01*
X6541160Y4324858D01*
X6535521Y4323740D01*
X6530492Y4321962D01*
X6526072Y4319574D01*
X6522262Y4316526D01*
X6519011Y4312869D01*
X6516268Y4308703D01*
X6514084Y4304030D01*
X6512407Y4298848D01*
X6511239Y4293209D01*
X6510578Y4287164D01*
X6510375Y4270857D01*
X6526834Y4270857D01*
X6536029Y4269638D01*
X6544208Y4268165D01*
X6551371Y4266488D01*
X6557619Y4264660D01*
X6562953Y4262577D01*
X6567474Y4260291D01*
X6571132Y4257802D01*
X6574078Y4255058D01*
X6576263Y4252112D01*
X6577787Y4248912D01*
X6578650Y4245508D01*
X6578904Y4241901D01*
X6577330Y4233418D01*
X6572961Y4227677D01*
X6566509Y4224375D01*
X6558584Y4223359D01*
X6550507Y4224324D01*
X6542735Y4227271D01*
X6534962Y4232046D01*
X6526834Y4238599D01*
X6526834Y4270857D01*
X6510375Y4270857D01*
X6510375Y4212691D01*
X6524091Y4212691D01*
X6525361Y4226153D01*
X6526123Y4226153D01*
X6530085Y4222902D01*
X6534302Y4219905D01*
X6538722Y4217162D01*
X6543294Y4214825D01*
X6548018Y4212894D01*
X6552844Y4211421D01*
X6557822Y4210456D01*
X6562902Y4210151D01*
X6569456Y4210659D01*
X6575552Y4212183D01*
X6580987Y4214672D01*
X6585712Y4218076D01*
X6589572Y4222445D01*
X6592468Y4227728D01*
X6594297Y4233875D01*
X6594957Y4240885D01*
X6594703Y4245254D01*
X6593941Y4249369D01*
X6592671Y4253179D01*
X6590893Y4256735D01*
X6588607Y4260037D01*
X6585762Y4263085D01*
X6582409Y4265930D01*
X6578498Y4268520D01*
X6574078Y4270857D01*
X6569049Y4273042D01*
X6563461Y4274972D01*
X6557314Y4276750D01*
X6550609Y4278325D01*
X6543294Y4279747D01*
X6526834Y4282033D01*
X6526987Y4287520D01*
X6527749Y4292854D01*
X6529120Y4297832D01*
X6531305Y4302302D01*
X6534404Y4306062D01*
X6538518Y4308957D01*
X6543751Y4310837D01*
X6550202Y4311497D01*
X6559803Y4310430D01*
X6568694Y4307586D01*
X6576618Y4303674D01*
X6583527Y4299305D01*
X6590131Y4310735D01*
X6581952Y4315663D01*
X6577177Y4318101D01*
X6571894Y4320336D01*
X6566255Y4322318D01*
X6560261Y4323842D01*
X6553962Y4324858D01*
G37*
G36*
X6437934Y4325213D02*
G01*
X6433566Y4325010D01*
X6429502Y4324400D01*
X6425844Y4323486D01*
X6422745Y4322419D01*
X6384848Y4322419D01*
X6384848Y4309719D01*
X6408013Y4309719D01*
X6404102Y4305147D01*
X6401054Y4299508D01*
X6399072Y4293006D01*
X6398412Y4286351D01*
X6413347Y4286351D01*
X6413804Y4292142D01*
X6415278Y4297324D01*
X6417564Y4301845D01*
X6420612Y4305655D01*
X6424269Y4308703D01*
X6428435Y4310938D01*
X6433058Y4312310D01*
X6437934Y4312767D01*
X6442964Y4312310D01*
X6447586Y4310938D01*
X6451803Y4308754D01*
X6455410Y4305757D01*
X6458407Y4301947D01*
X6460693Y4297426D01*
X6462115Y4292244D01*
X6462623Y4286351D01*
X6462064Y4280357D01*
X6460591Y4274972D01*
X6458305Y4270298D01*
X6455257Y4266336D01*
X6451549Y4263186D01*
X6447383Y4260850D01*
X6442811Y4259427D01*
X6437934Y4258919D01*
X6433108Y4259427D01*
X6428536Y4260850D01*
X6424371Y4263186D01*
X6420713Y4266336D01*
X6417614Y4270298D01*
X6415328Y4274972D01*
X6413855Y4280357D01*
X6413347Y4286351D01*
X6398412Y4286351D01*
X6398717Y4280204D01*
X6399733Y4274870D01*
X6401409Y4269994D01*
X6403695Y4265523D01*
X6406540Y4261459D01*
X6409842Y4257903D01*
X6413652Y4254804D01*
X6417868Y4252264D01*
X6422440Y4250182D01*
X6427368Y4248708D01*
X6432550Y4247794D01*
X6437934Y4247489D01*
X6442252Y4247743D01*
X6446672Y4248454D01*
X6450939Y4249724D01*
X6454952Y4251553D01*
X6457797Y4248810D01*
X6460032Y4245711D01*
X6461556Y4242054D01*
X6462064Y4237583D01*
X6461201Y4232656D01*
X6458051Y4228846D01*
X6452108Y4226306D01*
X6442811Y4225391D01*
X6420713Y4225391D01*
X6411823Y4224985D01*
X6404152Y4223816D01*
X6397650Y4221886D01*
X6392316Y4219092D01*
X6388201Y4215434D01*
X6385204Y4210913D01*
X6383426Y4205528D01*
X6382816Y4199229D01*
X6383031Y4196943D01*
X6399123Y4196943D01*
X6400596Y4203649D01*
X6405016Y4208068D01*
X6412280Y4210456D01*
X6422186Y4211167D01*
X6442252Y4211167D01*
X6448704Y4211726D01*
X6456273Y4213199D01*
X6461658Y4208475D01*
X6465366Y4203496D01*
X6467500Y4198416D01*
X6468211Y4193387D01*
X6467602Y4189018D01*
X6465976Y4185107D01*
X6463233Y4181703D01*
X6459524Y4178808D01*
X6454851Y4176471D01*
X6449212Y4174744D01*
X6442710Y4173677D01*
X6435445Y4173321D01*
X6427520Y4173829D01*
X6420408Y4175353D01*
X6414211Y4177639D01*
X6408978Y4180636D01*
X6404762Y4184243D01*
X6401663Y4188206D01*
X6399733Y4192524D01*
X6399123Y4196943D01*
X6383031Y4196943D01*
X6383274Y4194352D01*
X6384594Y4189577D01*
X6386677Y4185005D01*
X6389624Y4180687D01*
X6393281Y4176674D01*
X6397701Y4173016D01*
X6402832Y4169765D01*
X6408572Y4166971D01*
X6414973Y4164736D01*
X6421983Y4163060D01*
X6429603Y4161993D01*
X6437731Y4161637D01*
X6444234Y4161840D01*
X6450380Y4162551D01*
X6456121Y4163618D01*
X6461404Y4165142D01*
X6466179Y4167124D01*
X6470396Y4169460D01*
X6474104Y4172204D01*
X6477203Y4175302D01*
X6479641Y4178808D01*
X6481419Y4182618D01*
X6482537Y4186834D01*
X6482943Y4191355D01*
X6481826Y4198315D01*
X6478625Y4204970D01*
X6473494Y4211116D01*
X6466636Y4216501D01*
X6466636Y4217263D01*
X6470548Y4220362D01*
X6473698Y4224426D01*
X6475780Y4229455D01*
X6476593Y4235551D01*
X6475425Y4242003D01*
X6472580Y4247642D01*
X6468618Y4252264D01*
X6464350Y4255871D01*
X6464350Y4256633D01*
X6469583Y4261764D01*
X6474155Y4268622D01*
X6477355Y4276902D01*
X6478625Y4286351D01*
X6478219Y4292041D01*
X6477101Y4297324D01*
X6475374Y4302302D01*
X6472986Y4306824D01*
X6470040Y4310888D01*
X6466586Y4314545D01*
X6462623Y4317695D01*
X6458305Y4320336D01*
X6453632Y4322419D01*
X6448653Y4323943D01*
X6443421Y4324908D01*
G37*
G36*
X6308445Y4325213D02*
G01*
X6302908Y4324908D01*
X6297930Y4323994D01*
X6293408Y4322470D01*
X6289446Y4320336D01*
X6285992Y4317644D01*
X6282994Y4314342D01*
X6280505Y4310430D01*
X6278473Y4305960D01*
X6276898Y4300880D01*
X6275781Y4295241D01*
X6275120Y4289044D01*
X6274866Y4282287D01*
X6274866Y4212691D01*
X6291427Y4212691D01*
X6291427Y4280255D01*
X6291732Y4287672D01*
X6292697Y4294022D01*
X6294272Y4299254D01*
X6296609Y4303471D01*
X6299657Y4306722D01*
X6303416Y4308957D01*
X6307937Y4310278D01*
X6313220Y4310735D01*
X6317488Y4310430D01*
X6321450Y4309618D01*
X6325260Y4308195D01*
X6328968Y4306214D01*
X6332677Y4303725D01*
X6336436Y4300677D01*
X6344513Y4292955D01*
X6344513Y4212691D01*
X6361023Y4212691D01*
X6361023Y4322419D01*
X6347561Y4322419D01*
X6345986Y4306417D01*
X6345275Y4306417D01*
X6341313Y4310227D01*
X6337198Y4313732D01*
X6332982Y4316933D01*
X6328562Y4319727D01*
X6323888Y4322013D01*
X6319012Y4323740D01*
X6313881Y4324858D01*
G37*
G36*
X6196177Y4325213D02*
G01*
X6191199Y4324959D01*
X6186322Y4324248D01*
X6181598Y4323029D01*
X6177026Y4321352D01*
X6172606Y4319219D01*
X6168440Y4316628D01*
X6164529Y4313580D01*
X6160871Y4310126D01*
X6157569Y4306214D01*
X6154572Y4301896D01*
X6151981Y4297121D01*
X6149746Y4291990D01*
X6147968Y4286453D01*
X6146698Y4280509D01*
X6145885Y4274210D01*
X6145631Y4267555D01*
X6162598Y4267555D01*
X6162903Y4273854D01*
X6163767Y4279798D01*
X6165088Y4285335D01*
X6166967Y4290415D01*
X6169304Y4294987D01*
X6172047Y4299102D01*
X6175197Y4302658D01*
X6178753Y4305655D01*
X6182664Y4308043D01*
X6186881Y4309821D01*
X6191402Y4310888D01*
X6196177Y4311243D01*
X6200952Y4310888D01*
X6205474Y4309821D01*
X6209690Y4308043D01*
X6213602Y4305655D01*
X6217107Y4302658D01*
X6220206Y4299102D01*
X6222949Y4294987D01*
X6225184Y4290415D01*
X6227013Y4285335D01*
X6228334Y4279798D01*
X6229146Y4273854D01*
X6229400Y4267555D01*
X6229146Y4261205D01*
X6228334Y4255211D01*
X6227013Y4249674D01*
X6225184Y4244594D01*
X6222949Y4239971D01*
X6220206Y4235907D01*
X6217107Y4232351D01*
X6213602Y4229404D01*
X6209690Y4227017D01*
X6205474Y4225290D01*
X6200952Y4224223D01*
X6196177Y4223867D01*
X6191402Y4224223D01*
X6186881Y4225290D01*
X6182664Y4227017D01*
X6178753Y4229404D01*
X6175197Y4232351D01*
X6172047Y4235907D01*
X6169304Y4239971D01*
X6166967Y4244594D01*
X6165088Y4249674D01*
X6163767Y4255211D01*
X6162903Y4261205D01*
X6162598Y4267555D01*
X6145631Y4267555D01*
X6145885Y4260900D01*
X6146698Y4254652D01*
X6147968Y4248759D01*
X6149746Y4243273D01*
X6151981Y4238142D01*
X6154572Y4233418D01*
X6157569Y4229100D01*
X6160871Y4225239D01*
X6164529Y4221784D01*
X6168440Y4218736D01*
X6172606Y4216146D01*
X6177026Y4214012D01*
X6181598Y4212336D01*
X6186322Y4211116D01*
X6191199Y4210405D01*
X6196177Y4210151D01*
X6201156Y4210405D01*
X6206032Y4211116D01*
X6210808Y4212336D01*
X6215430Y4214012D01*
X6219799Y4216146D01*
X6223965Y4218736D01*
X6227876Y4221784D01*
X6231534Y4225239D01*
X6234836Y4229100D01*
X6237782Y4233418D01*
X6240373Y4238142D01*
X6242608Y4243273D01*
X6244336Y4248759D01*
X6245606Y4254652D01*
X6246418Y4260900D01*
X6246723Y4267555D01*
X6246418Y4274210D01*
X6245606Y4280509D01*
X6244336Y4286453D01*
X6242608Y4291990D01*
X6240373Y4297121D01*
X6237782Y4301896D01*
X6234836Y4306214D01*
X6231534Y4310075D01*
X6227876Y4313580D01*
X6223965Y4316628D01*
X6219799Y4319219D01*
X6215430Y4321352D01*
X6210808Y4323029D01*
X6206032Y4324248D01*
X6201156Y4324959D01*
G37*
G36*
X5999073Y4325213D02*
G01*
X5993688Y4324908D01*
X5988812Y4323994D01*
X5984443Y4322470D01*
X5980480Y4320336D01*
X5977026Y4317644D01*
X5974029Y4314342D01*
X5971489Y4310430D01*
X5969457Y4305960D01*
X5967831Y4300880D01*
X5966663Y4295241D01*
X5966002Y4289044D01*
X5965748Y4282287D01*
X5965748Y4212691D01*
X5982563Y4212691D01*
X5982563Y4280255D01*
X5982868Y4287672D01*
X5983782Y4294022D01*
X5985408Y4299254D01*
X5987694Y4303471D01*
X5990640Y4306722D01*
X5994349Y4308957D01*
X5998718Y4310278D01*
X6003848Y4310735D01*
X6010656Y4309618D01*
X6017666Y4306316D01*
X6024930Y4300778D01*
X6032550Y4292955D01*
X6032550Y4212691D01*
X6049111Y4212691D01*
X6049111Y4280255D01*
X6049416Y4287672D01*
X6050330Y4294022D01*
X6051956Y4299254D01*
X6054242Y4303471D01*
X6057239Y4306722D01*
X6060998Y4308957D01*
X6065469Y4310278D01*
X6070650Y4310735D01*
X6077254Y4309618D01*
X6084265Y4306316D01*
X6091682Y4300778D01*
X6099352Y4292955D01*
X6099352Y4212691D01*
X6115659Y4212691D01*
X6115659Y4322419D01*
X6102400Y4322419D01*
X6100673Y4306163D01*
X6100114Y4306163D01*
X6096406Y4310024D01*
X6092545Y4313631D01*
X6088481Y4316882D01*
X6084214Y4319676D01*
X6079845Y4322013D01*
X6075324Y4323740D01*
X6070650Y4324858D01*
X6065875Y4325213D01*
X6059830Y4324807D01*
X6054547Y4323689D01*
X6049924Y4321860D01*
X6045962Y4319422D01*
X6042609Y4316323D01*
X6039764Y4312666D01*
X6037478Y4308500D01*
X6035598Y4303877D01*
X6031230Y4308449D01*
X6026861Y4312564D01*
X6022390Y4316222D01*
X6017920Y4319320D01*
X6013348Y4321810D01*
X6008674Y4323689D01*
X6003950Y4324807D01*
G37*
G36*
X5888532Y4325213D02*
G01*
X5881928Y4324807D01*
X5875832Y4323638D01*
X5870244Y4321657D01*
X5865164Y4318965D01*
X5860643Y4315561D01*
X5856681Y4311446D01*
X5853277Y4306722D01*
X5850483Y4301337D01*
X5848248Y4295292D01*
X5846673Y4288739D01*
X5845708Y4281576D01*
X5845458Y4276191D01*
X5859881Y4276191D01*
X5860338Y4284421D01*
X5861812Y4291584D01*
X5864148Y4297730D01*
X5867400Y4302709D01*
X5871514Y4306671D01*
X5876340Y4309465D01*
X5881979Y4311192D01*
X5888329Y4311751D01*
X5894273Y4311142D01*
X5900013Y4309313D01*
X5905296Y4306417D01*
X5910072Y4302353D01*
X5914136Y4297273D01*
X5917488Y4291177D01*
X5919927Y4284116D01*
X5921298Y4276191D01*
X5845458Y4276191D01*
X5845403Y4271111D01*
X5845708Y4266082D01*
X5846114Y4263999D01*
X5921095Y4263999D01*
X5920536Y4258056D01*
X5919470Y4252518D01*
X5917844Y4247388D01*
X5915710Y4242612D01*
X5913120Y4238345D01*
X5910072Y4234535D01*
X5906617Y4231233D01*
X5902706Y4228490D01*
X5898438Y4226306D01*
X5893765Y4224680D01*
X5888786Y4223715D01*
X5883452Y4223359D01*
X5875731Y4223969D01*
X5868568Y4225696D01*
X5861812Y4228490D01*
X5855563Y4232249D01*
X5849416Y4221327D01*
X5856986Y4217009D01*
X5865368Y4213453D01*
X5869940Y4212082D01*
X5874816Y4211015D01*
X5879998Y4210405D01*
X5885484Y4210151D01*
X5890869Y4210405D01*
X5896051Y4211116D01*
X5901080Y4212336D01*
X5905855Y4214063D01*
X5910427Y4216196D01*
X5914694Y4218787D01*
X5918708Y4221835D01*
X5922416Y4225340D01*
X5925769Y4229252D01*
X5928715Y4233519D01*
X5931357Y4238244D01*
X5933541Y4243374D01*
X5935268Y4248861D01*
X5936538Y4254754D01*
X5937300Y4260951D01*
X5937554Y4267555D01*
X5937300Y4274058D01*
X5936488Y4280255D01*
X5935218Y4286097D01*
X5933440Y4291584D01*
X5931255Y4296664D01*
X5928715Y4301439D01*
X5925769Y4305757D01*
X5922518Y4309719D01*
X5918962Y4313224D01*
X5915101Y4316323D01*
X5911088Y4319016D01*
X5906820Y4321200D01*
X5902401Y4322927D01*
X5897880Y4324197D01*
X5893257Y4324959D01*
G37*
G36*
X5599734Y4325213D02*
G01*
X5593130Y4324807D01*
X5587034Y4323638D01*
X5581446Y4321657D01*
X5576366Y4318965D01*
X5571845Y4315561D01*
X5567883Y4311446D01*
X5564479Y4306722D01*
X5561685Y4301337D01*
X5559450Y4295292D01*
X5557875Y4288739D01*
X5556910Y4281576D01*
X5556660Y4276191D01*
X5571032Y4276191D01*
X5571540Y4284421D01*
X5573014Y4291584D01*
X5575350Y4297730D01*
X5578602Y4302709D01*
X5582716Y4306671D01*
X5587542Y4309465D01*
X5593181Y4311192D01*
X5599531Y4311751D01*
X5605475Y4311142D01*
X5611215Y4309313D01*
X5616498Y4306417D01*
X5621274Y4302353D01*
X5625338Y4297273D01*
X5628690Y4291177D01*
X5631129Y4284116D01*
X5632500Y4276191D01*
X5556660Y4276191D01*
X5556605Y4271111D01*
X5557316Y4263999D01*
X5632297Y4263999D01*
X5631738Y4258056D01*
X5630672Y4252518D01*
X5629097Y4247388D01*
X5626963Y4242612D01*
X5624423Y4238345D01*
X5621375Y4234535D01*
X5617921Y4231233D01*
X5614009Y4228490D01*
X5609742Y4226306D01*
X5605068Y4224680D01*
X5600039Y4223715D01*
X5594654Y4223359D01*
X5586984Y4223969D01*
X5579872Y4225696D01*
X5573268Y4228490D01*
X5566968Y4232249D01*
X5560923Y4221327D01*
X5568340Y4217009D01*
X5572353Y4215130D01*
X5576620Y4213453D01*
X5581142Y4212082D01*
X5586018Y4211015D01*
X5591200Y4210405D01*
X5596686Y4210151D01*
X5602071Y4210405D01*
X5607253Y4211116D01*
X5612282Y4212336D01*
X5617057Y4214063D01*
X5621629Y4216196D01*
X5625896Y4218787D01*
X5629910Y4221835D01*
X5633618Y4225340D01*
X5636971Y4229252D01*
X5639917Y4233519D01*
X5642559Y4238244D01*
X5644743Y4243374D01*
X5646470Y4248861D01*
X5647740Y4254754D01*
X5648502Y4260951D01*
X5648807Y4267555D01*
X5648502Y4274058D01*
X5647690Y4280255D01*
X5646420Y4286097D01*
X5644642Y4291584D01*
X5642457Y4296664D01*
X5639917Y4301439D01*
X5636971Y4305757D01*
X5633720Y4309719D01*
X5630164Y4313224D01*
X5626303Y4316323D01*
X5622290Y4319016D01*
X5618022Y4321200D01*
X5613603Y4322927D01*
X5609082Y4324197D01*
X5604459Y4324959D01*
G37*
G36*
X5809538Y4236567D02*
G01*
X5804662Y4235602D01*
X5800648Y4232910D01*
X5797905Y4228642D01*
X5796838Y4223105D01*
X5797905Y4217771D01*
X5800648Y4213656D01*
X5804662Y4211066D01*
X5809538Y4210151D01*
X5814314Y4211066D01*
X5818276Y4213656D01*
X5820968Y4217771D01*
X5821984Y4223105D01*
X5820968Y4228642D01*
X5818276Y4232859D01*
X5814314Y4235602D01*
G37*
D10*
X6899986Y5005036D02*
G01*
X6899986Y4811074D01*
X6899986Y5005036D02*
G01*
X6835330Y5005036D01*
X6807621Y4995801D01*
X6789150Y4977328D01*
X6779912Y4958854D01*
X6770677Y4931145D01*
X6770677Y4884966D01*
X6779912Y4857254D01*
X6789150Y4838783D01*
X6807621Y4820310D01*
X6835330Y4811074D01*
X6899986Y4811074D01*
X6598881Y4940383D02*
G01*
X6598881Y4811074D01*
X6598881Y4912674D02*
G01*
X6617352Y4931145D01*
X6635826Y4940383D01*
X6663535Y4940383D01*
X6682008Y4931145D01*
X6700481Y4912674D01*
X6709717Y4884966D01*
X6709717Y4866492D01*
X6700481Y4838783D01*
X6682008Y4820310D01*
X6663535Y4811074D01*
X6635826Y4811074D01*
X6617352Y4820310D01*
X6598881Y4838783D01*
X6510210Y5005036D02*
G01*
X6510210Y4848019D01*
X6500975Y4820310D01*
X6482501Y4811074D01*
X6464030Y4811074D01*
X6537921Y4940383D02*
G01*
X6473266Y4940383D01*
X6403070Y4884966D02*
G01*
X6292232Y4884966D01*
X6292232Y4903436D01*
X6301470Y4921910D01*
X6310706Y4931145D01*
X6329179Y4940383D01*
X6356888Y4940383D01*
X6375361Y4931145D01*
X6393832Y4912674D01*
X6403070Y4884966D01*
X6403070Y4866492D01*
X6393832Y4838783D01*
X6375361Y4820310D01*
X6356888Y4811074D01*
X6329179Y4811074D01*
X6310706Y4820310D01*
X6292232Y4838783D01*
X6231272Y4940383D02*
G01*
X6231272Y4811074D01*
X6231272Y4903436D02*
G01*
X6203563Y4931145D01*
X6185090Y4940383D01*
X6157381Y4940383D01*
X6138910Y4931145D01*
X6129672Y4903436D01*
X6129672Y4811074D01*
X5967112Y4940383D02*
G01*
X6068712Y4811074D01*
X6068712Y4940383D02*
G01*
X5967112Y4940383D01*
X6068712Y4811074D02*
G01*
X5967112Y4811074D01*
X5906152Y4940383D02*
G01*
X5869208Y4811074D01*
X5832261Y4940383D02*
G01*
X5869208Y4811074D01*
X5832261Y4940383D02*
G01*
X5795317Y4811074D01*
X5758370Y4940383D02*
G01*
X5795317Y4811074D01*
X5697410Y4884966D02*
G01*
X5586575Y4884966D01*
X5586575Y4903436D01*
X5595810Y4921910D01*
X5605048Y4931145D01*
X5623521Y4940383D01*
X5651230Y4940383D01*
X5669701Y4931145D01*
X5688175Y4912674D01*
X5697410Y4884966D01*
X5697410Y4866492D01*
X5688175Y4838783D01*
X5669701Y4820310D01*
X5651230Y4811074D01*
X5623521Y4811074D01*
X5605048Y4820310D01*
X5586575Y4838783D01*
X5525615Y4940383D02*
G01*
X5525615Y4811074D01*
X5525615Y4884966D02*
G01*
X5516379Y4912674D01*
X5497906Y4931145D01*
X5479432Y4940383D01*
X5451723Y4940383D01*
X5279928Y4940383D02*
G01*
X5279928Y4792601D01*
X5289163Y4764892D01*
X5298401Y4755654D01*
X5316872Y4746419D01*
X5344581Y4746419D01*
X5363055Y4755654D01*
X5279928Y4912674D02*
G01*
X5298401Y4931145D01*
X5316872Y4940383D01*
X5344581Y4940383D01*
X5363055Y4931145D01*
X5381528Y4912674D01*
X5390763Y4884966D01*
X5390763Y4866492D01*
X5381528Y4838783D01*
X5363055Y4820310D01*
X5344581Y4811074D01*
X5316872Y4811074D01*
X5298401Y4820310D01*
X5279928Y4838783D01*
X5076728Y4940383D02*
G01*
X5021310Y4811074D01*
X4965890Y4940383D02*
G01*
X5021310Y4811074D01*
X4904930Y4968092D02*
G01*
X4886459Y4977328D01*
X4858750Y5005036D01*
X4858750Y4811074D01*
X4788552Y4857254D02*
G01*
X4797790Y4848019D01*
X4788552Y4838783D01*
X4779317Y4848019D01*
X4788552Y4857254D01*
X4718357Y4968092D02*
G01*
X4699883Y4977328D01*
X4672175Y5005036D01*
X4672175Y4811074D01*
X6881512Y4674836D02*
G01*
X6779912Y4674836D01*
X6835330Y4600945D01*
X6807621Y4600945D01*
X6789150Y4591710D01*
X6779912Y4582474D01*
X6770677Y4554766D01*
X6770677Y4536292D01*
X6779912Y4508583D01*
X6798386Y4490110D01*
X6826095Y4480874D01*
X6853803Y4480874D01*
X6881512Y4490110D01*
X6890750Y4499345D01*
X6899986Y4517819D01*
X6580408Y4674836D02*
G01*
X6672770Y4480874D01*
X6709717Y4674836D02*
G01*
X6580408Y4674836D01*
X6408610Y4582474D02*
G01*
X6427083Y4600945D01*
X6445557Y4610183D01*
X6473266Y4610183D01*
X6491739Y4600945D01*
X6510210Y4582474D01*
X6519448Y4554766D01*
X6519448Y4536292D01*
X6510210Y4508583D01*
X6491739Y4490110D01*
X6473266Y4480874D01*
X6445557Y4480874D01*
X6427083Y4490110D01*
X6408610Y4508583D01*
X6329179Y4674836D02*
G01*
X6227579Y4674836D01*
X6282997Y4600945D01*
X6255288Y4600945D01*
X6236815Y4591710D01*
X6227579Y4582474D01*
X6218341Y4554766D01*
X6218341Y4536292D01*
X6227579Y4508583D01*
X6246050Y4490110D01*
X6273761Y4480874D01*
X6301470Y4480874D01*
X6329179Y4490110D01*
X6338415Y4499345D01*
X6347650Y4517819D01*
X6015141Y4554766D02*
G01*
X5904306Y4554766D01*
X5904306Y4573236D01*
X5913541Y4591710D01*
X5922779Y4600945D01*
X5941250Y4610183D01*
X5968961Y4610183D01*
X5987432Y4600945D01*
X6005906Y4582474D01*
X6015141Y4554766D01*
X6015141Y4536292D01*
X6005906Y4508583D01*
X5987432Y4490110D01*
X5968961Y4480874D01*
X5941250Y4480874D01*
X5922779Y4490110D01*
X5904306Y4508583D01*
X5732510Y4674836D02*
G01*
X5732510Y4480874D01*
X5732510Y4582474D02*
G01*
X5750981Y4600945D01*
X5769455Y4610183D01*
X5797163Y4610183D01*
X5815637Y4600945D01*
X5834110Y4582474D01*
X5843346Y4554766D01*
X5843346Y4536292D01*
X5834110Y4508583D01*
X5815637Y4490110D01*
X5797163Y4480874D01*
X5769455Y4480874D01*
X5750981Y4490110D01*
X5732510Y4508583D01*
X5671550Y4674836D02*
G01*
X5662312Y4665601D01*
X5653077Y4674836D01*
X5662312Y4684074D01*
X5671550Y4674836D01*
X5662312Y4610183D02*
G01*
X5662312Y4480874D01*
X5564408Y4674836D02*
G01*
X5564408Y4517819D01*
X5555170Y4490110D01*
X5536699Y4480874D01*
X5518226Y4480874D01*
X5592117Y4610183D02*
G01*
X5527461Y4610183D01*
X5457266Y4674836D02*
G01*
X5448030Y4665601D01*
X5438792Y4674836D01*
X5448030Y4684074D01*
X5457266Y4674836D01*
X5448030Y4610183D02*
G01*
X5448030Y4480874D01*
X5331650Y4610183D02*
G01*
X5350123Y4600945D01*
X5368597Y4582474D01*
X5377832Y4554766D01*
X5377832Y4536292D01*
X5368597Y4508583D01*
X5350123Y4490110D01*
X5331650Y4480874D01*
X5303941Y4480874D01*
X5285470Y4490110D01*
X5266997Y4508583D01*
X5257761Y4536292D01*
X5257761Y4554766D01*
X5266997Y4582474D01*
X5285470Y4600945D01*
X5303941Y4610183D01*
X5331650Y4610183D01*
X5196801Y4610183D02*
G01*
X5196801Y4480874D01*
X5196801Y4573236D02*
G01*
X5169090Y4600945D01*
X5150619Y4610183D01*
X5122910Y4610183D01*
X5104437Y4600945D01*
X5095201Y4573236D01*
X5095201Y4480874D01*
X6831804Y4064538D02*
G01*
X6836349Y4073629D01*
X6845439Y4078173D01*
X6859076Y4078173D01*
X6868167Y4073629D01*
X6872714Y4069082D01*
X6877258Y4055445D01*
X6877258Y4041810D01*
X6872714Y4032719D01*
X6863623Y4028173D01*
X6849986Y4028173D01*
X6840895Y4032719D01*
X6836349Y4041810D01*
X6859076Y4078173D02*
G01*
X6868167Y4069082D01*
X6872714Y4055445D01*
X6872714Y4041810D01*
X6868167Y4032719D01*
X6863623Y4028173D01*
X6831804Y4078173D02*
G01*
X6836349Y4041810D01*
X6836349Y4032719D01*
X6827258Y4028173D01*
X6818167Y4028173D01*
X6809077Y4037263D01*
X6804533Y4050901D01*
X6804533Y4059991D01*
X6809077Y4073629D01*
X6813623Y4082719D01*
X6822714Y4091810D01*
X6831804Y4096354D01*
X6845439Y4100901D01*
X6859076Y4100901D01*
X6872714Y4096354D01*
X6881804Y4091810D01*
X6890895Y4082719D01*
X6895439Y4073629D01*
X6899986Y4059991D01*
X6899986Y4046354D01*
X6895439Y4032719D01*
X6890895Y4023629D01*
X6881804Y4014538D01*
X6872714Y4009991D01*
X6859076Y4005445D01*
X6845439Y4005445D01*
X6831804Y4009991D01*
X6822714Y4014538D01*
X6818167Y4019082D01*
X6827258Y4078173D02*
G01*
X6831804Y4041810D01*
X6831804Y4032719D01*
X6827258Y4028173D01*
X6738167Y4100901D02*
G01*
X6747258Y4100901D01*
X6756349Y4096354D01*
X6760895Y4082719D01*
X6760895Y4005445D01*
X6774533Y4069082D02*
G01*
X6742714Y4069082D01*
X6685440Y4069082D02*
G01*
X6694533Y4064538D01*
X6703623Y4055445D01*
X6708167Y4041810D01*
X6708167Y4032719D01*
X6703623Y4019082D01*
X6694533Y4009991D01*
X6685440Y4005445D01*
X6671805Y4005445D01*
X6662714Y4009991D01*
X6653623Y4019082D01*
X6649077Y4032719D01*
X6649077Y4041810D01*
X6653623Y4055445D01*
X6662714Y4064538D01*
X6671805Y4069082D01*
X6685440Y4069082D01*
X6596349Y4069082D02*
G01*
X6605440Y4064538D01*
X6614533Y4055445D01*
X6619077Y4041810D01*
X6619077Y4032719D01*
X6614533Y4019082D01*
X6605440Y4009991D01*
X6596349Y4005445D01*
X6582714Y4005445D01*
X6573624Y4009991D01*
X6564533Y4019082D01*
X6559986Y4032719D01*
X6559986Y4041810D01*
X6564533Y4055445D01*
X6573624Y4064538D01*
X6582714Y4069082D01*
X6596349Y4069082D01*
X6479987Y4055445D02*
G01*
X6484533Y4064538D01*
X6498168Y4069082D01*
X6511805Y4069082D01*
X6525440Y4064538D01*
X6529986Y4055445D01*
X6525440Y4046354D01*
X6516349Y4041810D01*
X6493624Y4037263D01*
X6484533Y4032719D01*
X6479987Y4023629D01*
X6479987Y4019082D01*
X6484533Y4009991D01*
X6498168Y4005445D01*
X6511805Y4005445D01*
X6525440Y4009991D01*
X6529986Y4019082D01*
X6449987Y4041810D02*
G01*
X6395440Y4041810D01*
X6395440Y4050901D01*
X6399987Y4059991D01*
X6404533Y4064538D01*
X6413624Y4069082D01*
X6427259Y4069082D01*
X6436349Y4064538D01*
X6445440Y4055445D01*
X6449987Y4041810D01*
X6449987Y4032719D01*
X6445440Y4019082D01*
X6436349Y4009991D01*
X6427259Y4005445D01*
X6413624Y4005445D01*
X6404533Y4009991D01*
X6395440Y4019082D01*
X6365440Y4100901D02*
G01*
X6365440Y4005445D01*
X6267259Y4064538D02*
G01*
X6271806Y4073629D01*
X6280896Y4078173D01*
X6294534Y4078173D01*
X6303624Y4073629D01*
X6308168Y4069082D01*
X6312715Y4055445D01*
X6312715Y4041810D01*
X6308168Y4032719D01*
X6299078Y4028173D01*
X6285440Y4028173D01*
X6276350Y4032719D01*
X6271806Y4041810D01*
X6294534Y4078173D02*
G01*
X6303624Y4069082D01*
X6308168Y4055445D01*
X6308168Y4041810D01*
X6303624Y4032719D01*
X6299078Y4028173D01*
X6267259Y4078173D02*
G01*
X6271806Y4041810D01*
X6271806Y4032719D01*
X6262715Y4028173D01*
X6253624Y4028173D01*
X6244534Y4037263D01*
X6239987Y4050901D01*
X6239987Y4059991D01*
X6244534Y4073629D01*
X6249078Y4082719D01*
X6258168Y4091810D01*
X6267259Y4096354D01*
X6280896Y4100901D01*
X6294534Y4100901D01*
X6308168Y4096354D01*
X6317259Y4091810D01*
X6326350Y4082719D01*
X6330896Y4073629D01*
X6335440Y4059991D01*
X6335440Y4046354D01*
X6330896Y4032719D01*
X6326350Y4023629D01*
X6317259Y4014538D01*
X6308168Y4009991D01*
X6294534Y4005445D01*
X6280896Y4005445D01*
X6267259Y4009991D01*
X6258168Y4014538D01*
X6253624Y4019082D01*
X6262715Y4078173D02*
G01*
X6267259Y4041810D01*
X6267259Y4032719D01*
X6262715Y4028173D01*
X6155441Y4055445D02*
G01*
X6164534Y4064538D01*
X6173624Y4069082D01*
X6187259Y4069082D01*
X6196350Y4064538D01*
X6205440Y4055445D01*
X6209987Y4041810D01*
X6209987Y4032719D01*
X6205440Y4019082D01*
X6196350Y4009991D01*
X6187259Y4005445D01*
X6173624Y4005445D01*
X6164534Y4009991D01*
X6155441Y4019082D01*
X6125441Y4100901D02*
G01*
X6125441Y4005445D01*
X6125441Y4050901D02*
G01*
X6111806Y4064538D01*
X6102715Y4069082D01*
X6089078Y4069082D01*
X6079987Y4064538D01*
X6075441Y4050901D01*
X6075441Y4005445D01*
X5990897Y4069082D02*
G01*
X5990897Y4005445D01*
X5990897Y4055445D02*
G01*
X5999988Y4064538D01*
X6009078Y4069082D01*
X6022715Y4069082D01*
X6031806Y4064538D01*
X6040897Y4055445D01*
X6045441Y4041810D01*
X6045441Y4032719D01*
X6040897Y4019082D01*
X6031806Y4009991D01*
X6022715Y4005445D01*
X6009078Y4005445D01*
X5999988Y4009991D01*
X5990897Y4019082D01*
X5938169Y4069082D02*
G01*
X5947260Y4064538D01*
X5956350Y4055445D01*
X5960897Y4041810D01*
X5960897Y4032719D01*
X5956350Y4019082D01*
X5947260Y4009991D01*
X5938169Y4005445D01*
X5924534Y4005445D01*
X5915441Y4009991D01*
X5906350Y4019082D01*
X5901806Y4032719D01*
X5901806Y4041810D01*
X5906350Y4055445D01*
X5915441Y4064538D01*
X5924534Y4069082D01*
X5938169Y4069082D01*
X5821806Y4055445D02*
G01*
X5826351Y4064538D01*
X5839988Y4069082D01*
X5853625Y4069082D01*
X5867260Y4064538D01*
X5871806Y4055445D01*
X5867260Y4046354D01*
X5858169Y4041810D01*
X5835441Y4037263D01*
X5826351Y4032719D01*
X5821806Y4023629D01*
X5821806Y4019082D01*
X5826351Y4009991D01*
X5839988Y4005445D01*
X5853625Y4005445D01*
X5867260Y4009991D01*
X5871806Y4019082D01*
X5787260Y4028173D02*
G01*
X5791807Y4023629D01*
X5787260Y4019082D01*
X5782716Y4023629D01*
X5787260Y4028173D01*
X5702716Y4055445D02*
G01*
X5707260Y4064538D01*
X5720897Y4069082D01*
X5734535Y4069082D01*
X5748169Y4064538D01*
X5752716Y4055445D01*
X5748169Y4046354D01*
X5739079Y4041810D01*
X5716351Y4037263D01*
X5707260Y4032719D01*
X5702716Y4023629D01*
X5702716Y4019082D01*
X5707260Y4009991D01*
X5720897Y4005445D01*
X5734535Y4005445D01*
X5748169Y4009991D01*
X5752716Y4019082D01*
X5649988Y4069082D02*
G01*
X5659079Y4064538D01*
X5668170Y4055445D01*
X5672716Y4041810D01*
X5672716Y4032719D01*
X5668170Y4019082D01*
X5659079Y4009991D01*
X5649988Y4005445D01*
X5636351Y4005445D01*
X5627260Y4009991D01*
X5618170Y4019082D01*
X5613626Y4032719D01*
X5613626Y4041810D01*
X5618170Y4055445D01*
X5627260Y4064538D01*
X5636351Y4069082D01*
X5649988Y4069082D01*
X5529079Y4055445D02*
G01*
X5538170Y4064538D01*
X5547260Y4069082D01*
X5560898Y4069082D01*
X5569988Y4064538D01*
X5579079Y4055445D01*
X5583626Y4041810D01*
X5583626Y4032719D01*
X5579079Y4019082D01*
X5569988Y4009991D01*
X5560898Y4005445D01*
X5547260Y4005445D01*
X5538170Y4009991D01*
X5529079Y4019082D01*
X5499079Y4100901D02*
G01*
X5494535Y4096354D01*
X5489989Y4100901D01*
X5494535Y4105445D01*
X5499079Y4100901D01*
X5494535Y4069082D02*
G01*
X5494535Y4005445D01*
X5405442Y4069082D02*
G01*
X5405442Y4005445D01*
X5405442Y4055445D02*
G01*
X5414535Y4064538D01*
X5423626Y4069082D01*
X5437261Y4069082D01*
X5446351Y4064538D01*
X5455442Y4055445D01*
X5459989Y4041810D01*
X5459989Y4032719D01*
X5455442Y4019082D01*
X5446351Y4009991D01*
X5437261Y4005445D01*
X5423626Y4005445D01*
X5414535Y4009991D01*
X5405442Y4019082D01*
X5375442Y4100901D02*
G01*
X5375442Y4005445D01*
X6831804Y3862938D02*
G01*
X6836349Y3872029D01*
X6845439Y3876573D01*
X6859076Y3876573D01*
X6868167Y3872029D01*
X6872714Y3867482D01*
X6877258Y3853845D01*
X6877258Y3840210D01*
X6872714Y3831120D01*
X6863623Y3826573D01*
X6849986Y3826573D01*
X6840895Y3831120D01*
X6836349Y3840210D01*
X6859076Y3876573D02*
G01*
X6868167Y3867482D01*
X6872714Y3853845D01*
X6872714Y3840210D01*
X6868167Y3831120D01*
X6863623Y3826573D01*
X6831804Y3876573D02*
G01*
X6836349Y3840210D01*
X6836349Y3831120D01*
X6827258Y3826573D01*
X6818167Y3826573D01*
X6809077Y3835664D01*
X6804533Y3849301D01*
X6804533Y3858392D01*
X6809077Y3872029D01*
X6813623Y3881120D01*
X6822714Y3890210D01*
X6831804Y3894754D01*
X6845439Y3899301D01*
X6859076Y3899301D01*
X6872714Y3894754D01*
X6881804Y3890210D01*
X6890895Y3881120D01*
X6895439Y3872029D01*
X6899986Y3858392D01*
X6899986Y3844754D01*
X6895439Y3831120D01*
X6890895Y3822029D01*
X6881804Y3812938D01*
X6872714Y3808392D01*
X6859076Y3803845D01*
X6845439Y3803845D01*
X6831804Y3808392D01*
X6822714Y3812938D01*
X6818167Y3817482D01*
X6827258Y3876573D02*
G01*
X6831804Y3840210D01*
X6831804Y3831120D01*
X6827258Y3826573D01*
X6774533Y3867482D02*
G01*
X6774533Y3803845D01*
X6774533Y3840210D02*
G01*
X6769986Y3853845D01*
X6760895Y3862938D01*
X6751805Y3867482D01*
X6738167Y3867482D01*
X6685440Y3867482D02*
G01*
X6694533Y3862938D01*
X6703623Y3853845D01*
X6708167Y3840210D01*
X6708167Y3831120D01*
X6703623Y3817482D01*
X6694533Y3808392D01*
X6685440Y3803845D01*
X6671805Y3803845D01*
X6662714Y3808392D01*
X6653623Y3817482D01*
X6649077Y3831120D01*
X6649077Y3840210D01*
X6653623Y3853845D01*
X6662714Y3862938D01*
X6671805Y3867482D01*
X6685440Y3867482D01*
X6619077Y3867482D02*
G01*
X6619077Y3803845D01*
X6619077Y3849301D02*
G01*
X6605440Y3862938D01*
X6596349Y3867482D01*
X6582714Y3867482D01*
X6573624Y3862938D01*
X6569077Y3849301D01*
X6569077Y3803845D01*
X6569077Y3849301D02*
G01*
X6555440Y3862938D01*
X6546349Y3867482D01*
X6532714Y3867482D01*
X6523624Y3862938D01*
X6519077Y3849301D01*
X6519077Y3803845D01*
X6439077Y3853845D02*
G01*
X6443624Y3862938D01*
X6457259Y3867482D01*
X6470896Y3867482D01*
X6484533Y3862938D01*
X6489077Y3853845D01*
X6484533Y3844754D01*
X6475440Y3840210D01*
X6452715Y3835664D01*
X6443624Y3831120D01*
X6439077Y3822029D01*
X6439077Y3817482D01*
X6443624Y3808392D01*
X6457259Y3803845D01*
X6470896Y3803845D01*
X6484533Y3808392D01*
X6489077Y3817482D01*
X6409077Y3840210D02*
G01*
X6354533Y3840210D01*
X6354533Y3849301D01*
X6359077Y3858392D01*
X6363624Y3862938D01*
X6372715Y3867482D01*
X6386349Y3867482D01*
X6395440Y3862938D01*
X6404533Y3853845D01*
X6409077Y3840210D01*
X6409077Y3831120D01*
X6404533Y3817482D01*
X6395440Y3808392D01*
X6386349Y3803845D01*
X6372715Y3803845D01*
X6363624Y3808392D01*
X6354533Y3817482D01*
X6274534Y3853845D02*
G01*
X6279078Y3862938D01*
X6292715Y3867482D01*
X6306350Y3867482D01*
X6319987Y3862938D01*
X6324533Y3853845D01*
X6319987Y3844754D01*
X6310896Y3840210D01*
X6288168Y3835664D01*
X6279078Y3831120D01*
X6274534Y3822029D01*
X6274534Y3817482D01*
X6279078Y3808392D01*
X6292715Y3803845D01*
X6306350Y3803845D01*
X6319987Y3808392D01*
X6324533Y3817482D01*
X6176350Y3862938D02*
G01*
X6180896Y3872029D01*
X6189987Y3876573D01*
X6203624Y3876573D01*
X6212715Y3872029D01*
X6217259Y3867482D01*
X6221806Y3853845D01*
X6221806Y3840210D01*
X6217259Y3831120D01*
X6208168Y3826573D01*
X6194534Y3826573D01*
X6185441Y3831120D01*
X6180896Y3840210D01*
X6203624Y3876573D02*
G01*
X6212715Y3867482D01*
X6217259Y3853845D01*
X6217259Y3840210D01*
X6212715Y3831120D01*
X6208168Y3826573D01*
X6176350Y3876573D02*
G01*
X6180896Y3840210D01*
X6180896Y3831120D01*
X6171806Y3826573D01*
X6162715Y3826573D01*
X6153624Y3835664D01*
X6149078Y3849301D01*
X6149078Y3858392D01*
X6153624Y3872029D01*
X6158169Y3881120D01*
X6167259Y3890210D01*
X6176350Y3894754D01*
X6189987Y3899301D01*
X6203624Y3899301D01*
X6217259Y3894754D01*
X6226350Y3890210D01*
X6235440Y3881120D01*
X6239987Y3872029D01*
X6244534Y3858392D01*
X6244534Y3844754D01*
X6239987Y3831120D01*
X6235440Y3822029D01*
X6226350Y3812938D01*
X6217259Y3808392D01*
X6203624Y3803845D01*
X6189987Y3803845D01*
X6176350Y3808392D01*
X6167259Y3812938D01*
X6162715Y3817482D01*
X6171806Y3876573D02*
G01*
X6176350Y3840210D01*
X6176350Y3831120D01*
X6171806Y3826573D01*
X6064534Y3853845D02*
G01*
X6073625Y3862938D01*
X6082715Y3867482D01*
X6096350Y3867482D01*
X6105441Y3862938D01*
X6114534Y3853845D01*
X6119078Y3840210D01*
X6119078Y3831120D01*
X6114534Y3817482D01*
X6105441Y3808392D01*
X6096350Y3803845D01*
X6082715Y3803845D01*
X6073625Y3808392D01*
X6064534Y3817482D01*
X6034534Y3899301D02*
G01*
X6034534Y3803845D01*
X6034534Y3849301D02*
G01*
X6020897Y3862938D01*
X6011806Y3867482D01*
X5998169Y3867482D01*
X5989078Y3862938D01*
X5984534Y3849301D01*
X5984534Y3803845D01*
X5899988Y3867482D02*
G01*
X5899988Y3803845D01*
X5899988Y3853845D02*
G01*
X5909078Y3862938D01*
X5918169Y3867482D01*
X5931806Y3867482D01*
X5940897Y3862938D01*
X5949988Y3853845D01*
X5954534Y3840210D01*
X5954534Y3831120D01*
X5949988Y3817482D01*
X5940897Y3808392D01*
X5931806Y3803845D01*
X5918169Y3803845D01*
X5909078Y3808392D01*
X5899988Y3817482D01*
X5847260Y3867482D02*
G01*
X5856350Y3862938D01*
X5865441Y3853845D01*
X5869988Y3840210D01*
X5869988Y3831120D01*
X5865441Y3817482D01*
X5856350Y3808392D01*
X5847260Y3803845D01*
X5833625Y3803845D01*
X5824534Y3808392D01*
X5815441Y3817482D01*
X5810897Y3831120D01*
X5810897Y3840210D01*
X5815441Y3853845D01*
X5824534Y3862938D01*
X5833625Y3867482D01*
X5847260Y3867482D01*
X5730897Y3853845D02*
G01*
X5735441Y3862938D01*
X5749079Y3867482D01*
X5762716Y3867482D01*
X5776351Y3862938D01*
X5780897Y3853845D01*
X5776351Y3844754D01*
X5767260Y3840210D01*
X5744535Y3835664D01*
X5735441Y3831120D01*
X5730897Y3822029D01*
X5730897Y3817482D01*
X5735441Y3808392D01*
X5749079Y3803845D01*
X5762716Y3803845D01*
X5776351Y3808392D01*
X5780897Y3817482D01*
X5696351Y3826573D02*
G01*
X5700897Y3822029D01*
X5696351Y3817482D01*
X5691807Y3822029D01*
X5696351Y3826573D01*
X5611807Y3853845D02*
G01*
X5616351Y3862938D01*
X5629988Y3867482D01*
X5643625Y3867482D01*
X5657260Y3862938D01*
X5661807Y3853845D01*
X5657260Y3844754D01*
X5648170Y3840210D01*
X5625442Y3835664D01*
X5616351Y3831120D01*
X5611807Y3822029D01*
X5611807Y3817482D01*
X5616351Y3808392D01*
X5629988Y3803845D01*
X5643625Y3803845D01*
X5657260Y3808392D01*
X5661807Y3817482D01*
X5559079Y3867482D02*
G01*
X5568170Y3862938D01*
X5577260Y3853845D01*
X5581807Y3840210D01*
X5581807Y3831120D01*
X5577260Y3817482D01*
X5568170Y3808392D01*
X5559079Y3803845D01*
X5545442Y3803845D01*
X5536351Y3808392D01*
X5527260Y3817482D01*
X5522716Y3831120D01*
X5522716Y3840210D01*
X5527260Y3853845D01*
X5536351Y3862938D01*
X5545442Y3867482D01*
X5559079Y3867482D01*
X5438170Y3853845D02*
G01*
X5447261Y3862938D01*
X5456351Y3867482D01*
X5469989Y3867482D01*
X5479079Y3862938D01*
X5488170Y3853845D01*
X5492716Y3840210D01*
X5492716Y3831120D01*
X5488170Y3817482D01*
X5479079Y3808392D01*
X5469989Y3803845D01*
X5456351Y3803845D01*
X5447261Y3808392D01*
X5438170Y3817482D01*
X5408170Y3899301D02*
G01*
X5403626Y3894754D01*
X5399079Y3899301D01*
X5403626Y3903845D01*
X5408170Y3899301D01*
X5403626Y3867482D02*
G01*
X5403626Y3803845D01*
X5314535Y3867482D02*
G01*
X5314535Y3803845D01*
X5314535Y3853845D02*
G01*
X5323626Y3862938D01*
X5332717Y3867482D01*
X5346352Y3867482D01*
X5355442Y3862938D01*
X5364535Y3853845D01*
X5369079Y3840210D01*
X5369079Y3831120D01*
X5364535Y3817482D01*
X5355442Y3808392D01*
X5346352Y3803845D01*
X5332717Y3803845D01*
X5323626Y3808392D01*
X5314535Y3817482D01*
X5284536Y3899301D02*
G01*
X5284536Y3803845D01*
D11*
X74726Y4624679D02*
G01*
X220014Y4680051D01*
X74726Y4624679D02*
G01*
X220014Y4569307D01*
X171500Y4659223D02*
G01*
X171500Y4589881D01*
X74726Y4523587D02*
G01*
X220014Y4523587D01*
X74726Y4523587D02*
G01*
X220014Y4426559D01*
X74726Y4426559D02*
G01*
X220014Y4426559D01*
X74726Y4332325D02*
G01*
X220014Y4332325D01*
X74726Y4380839D02*
G01*
X74726Y4283811D01*
X74726Y4238091D02*
G01*
X220014Y4238091D01*
X74726Y4238091D02*
G01*
X74726Y4147921D01*
X143814Y4238091D02*
G01*
X143814Y4182719D01*
X220014Y4238091D02*
G01*
X220014Y4147921D01*
X74726Y4102201D02*
G01*
X220014Y4102201D01*
X74726Y4102201D02*
G01*
X220014Y4005427D01*
X74726Y4005427D02*
G01*
X220014Y4005427D01*
X74726Y3959707D02*
G01*
X220014Y3959707D01*
X74726Y3959707D02*
G01*
X220014Y3862679D01*
X74726Y3862679D02*
G01*
X220014Y3862679D01*
X74726Y3761587D02*
G01*
X220014Y3816959D01*
X74726Y3761587D02*
G01*
X220014Y3705961D01*
X171500Y3796131D02*
G01*
X171500Y3726789D01*
D12*
X1484172Y4760061D02*
G01*
X1653844Y4760061D01*
X1484172Y4760061D02*
G01*
X1484172Y4703419D01*
X1492046Y4679289D01*
X1508302Y4663033D01*
X1524558Y4654905D01*
X1548688Y4647031D01*
X1589074Y4647031D01*
X1613458Y4654905D01*
X1629460Y4663033D01*
X1645716Y4679289D01*
X1653844Y4703419D01*
X1653844Y4760061D01*
X1516430Y4593691D02*
G01*
X1508302Y4577435D01*
X1484172Y4553051D01*
X1653844Y4553051D01*
X1540560Y4375251D02*
G01*
X1653844Y4375251D01*
X1573072Y4375251D02*
G01*
X1548688Y4351121D01*
X1540560Y4334865D01*
X1540560Y4310735D01*
X1548688Y4294479D01*
X1573072Y4286351D01*
X1653844Y4286351D01*
X1573072Y4286351D02*
G01*
X1548688Y4262221D01*
X1540560Y4245965D01*
X1540560Y4221835D01*
X1548688Y4205579D01*
X1573072Y4197451D01*
X1653844Y4197451D01*
X1484172Y4144111D02*
G01*
X1492046Y4136237D01*
X1484172Y4128109D01*
X1476044Y4136237D01*
X1484172Y4144111D01*
X1540560Y4136237D02*
G01*
X1653844Y4136237D01*
X1540560Y4074769D02*
G01*
X1653844Y4074769D01*
X1573072Y4074769D02*
G01*
X1548688Y4050385D01*
X1540560Y4034383D01*
X1540560Y4009999D01*
X1548688Y3993997D01*
X1573072Y3985869D01*
X1653844Y3985869D01*
X1484172Y3932529D02*
G01*
X1492046Y3924401D01*
X1484172Y3916273D01*
X1476044Y3924401D01*
X1484172Y3932529D01*
X1540560Y3924401D02*
G01*
X1653844Y3924401D01*
D13*
X2894380Y5215991D02*
G01*
X2991408Y5215991D01*
X2894380Y5215991D02*
G01*
X2894380Y5174335D01*
X2899206Y5160619D01*
X2903778Y5156047D01*
X2912922Y5151221D01*
X2922066Y5151221D01*
X2931464Y5156047D01*
X2936036Y5160619D01*
X2940608Y5174335D01*
X2940608Y5215991D01*
X2940608Y5183733D02*
G01*
X2991408Y5151221D01*
X2894380Y5120741D02*
G01*
X2991408Y5120741D01*
X2894380Y5120741D02*
G01*
X2894380Y5060797D01*
X2940608Y5120741D02*
G01*
X2940608Y5083911D01*
X2991408Y5120741D02*
G01*
X2991408Y5060797D01*
X2908350Y4965801D02*
G01*
X2899206Y4974945D01*
X2894380Y4988661D01*
X2894380Y5007203D01*
X2899206Y5021173D01*
X2908350Y5030317D01*
X2917494Y5030317D01*
X2926892Y5025745D01*
X2931464Y5021173D01*
X2936036Y5011775D01*
X2945180Y4984089D01*
X2950006Y4974945D01*
X2954578Y4970373D01*
X2963722Y4965801D01*
X2977692Y4965801D01*
X2986836Y4974945D01*
X2991408Y4988661D01*
X2991408Y5007203D01*
X2986836Y5021173D01*
X2977692Y5030317D01*
X2894380Y4935321D02*
G01*
X2991408Y4935321D01*
X2894380Y4935321D02*
G01*
X2894380Y4875123D01*
X2940608Y4935321D02*
G01*
X2940608Y4898237D01*
X2991408Y4935321D02*
G01*
X2991408Y4875123D01*
X2894380Y4812385D02*
G01*
X2991408Y4812385D01*
X2894380Y4844643D02*
G01*
X2894380Y4780127D01*
D14*
X2868726Y4434941D02*
G01*
X2955340Y4434941D01*
X2972866Y4429099D01*
X2984296Y4417669D01*
X2990138Y4400397D01*
X2990138Y4388713D01*
X2984296Y4371441D01*
X2972866Y4360011D01*
X2955340Y4354169D01*
X2868726Y4354169D01*
X2886252Y4235297D02*
G01*
X2874568Y4246727D01*
X2868726Y4263999D01*
X2868726Y4287113D01*
X2874568Y4304385D01*
X2886252Y4316069D01*
X2897682Y4316069D01*
X2909366Y4310227D01*
X2914954Y4304385D01*
X2920796Y4292955D01*
X2932226Y4258411D01*
X2938068Y4246727D01*
X2943910Y4240885D01*
X2955340Y4235297D01*
X2972866Y4235297D01*
X2984296Y4246727D01*
X2990138Y4263999D01*
X2990138Y4287113D01*
X2984296Y4304385D01*
X2972866Y4316069D01*
X2868726Y4197197D02*
G01*
X2990138Y4197197D01*
X2868726Y4197197D02*
G01*
X2868726Y4145127D01*
X2874568Y4127855D01*
X2880410Y4122013D01*
X2891840Y4116171D01*
X2903524Y4116171D01*
X2914954Y4122013D01*
X2920796Y4127855D01*
X2926638Y4145127D01*
X2926638Y4197197D02*
G01*
X2926638Y4145127D01*
X2932226Y4127855D01*
X2938068Y4122013D01*
X2949752Y4116171D01*
X2967024Y4116171D01*
X2978454Y4122013D01*
X2984296Y4127855D01*
X2990138Y4145127D01*
X2990138Y4197197D01*
D15*
X520496Y4987391D02*
G01*
X2298496Y4987391D01*
X2298496Y3615791D01*
X1409496Y5469991D02*
G01*
X1345996Y5406491D01*
X1282496Y5469991D01*
X1155496Y5469991D01*
X1091996Y5406491D01*
X1028496Y5469991D01*
X901496Y5469991D01*
X837996Y5406491D01*
X774496Y5469991D01*
X647496Y5469991D01*
X583996Y5406491D01*
X583996Y5279491D01*
X647496Y5215991D01*
X774496Y5215991D01*
X837996Y5279491D01*
X901496Y5215991D01*
X1028496Y5215991D01*
X1091996Y5279491D01*
X1155496Y5215991D01*
X1282496Y5215991D01*
X1345996Y5279491D01*
X1409496Y5215991D01*
X1536496Y5215991D01*
X1599996Y5279491D01*
X1663496Y5215991D01*
X1790496Y5215991D01*
X1853996Y5279491D01*
X1917496Y5215991D01*
X2044496Y5215991D01*
X2107996Y5279491D01*
X2171496Y5215991D01*
X2298496Y5215991D01*
X2361996Y5279491D01*
X2425496Y5215991D01*
X2552496Y5215991D01*
X2615996Y5279491D01*
X2615996Y5406491D01*
X2552496Y5469991D01*
X1536496Y5469991D02*
G01*
X1599996Y5406491D01*
X1663496Y5469991D01*
X1790496Y5469991D02*
G01*
X1853996Y5406491D01*
X1917496Y5469991D01*
X2044496Y5469991D02*
G01*
X2107996Y5406491D01*
X2171496Y5469991D01*
X2298496Y5469991D02*
G01*
X2361996Y5406491D01*
X2425496Y5469991D01*
X647496Y5469991D02*
G01*
X-51003Y5469991D01*
X-51003Y4987391D01*
X520496Y4987391D01*
X520496Y3412591D01*
X2120696Y3412591D01*
X520496Y3412591D02*
G01*
X-51003Y3412591D01*
X-51003Y2929991D01*
X647496Y2929991D01*
X774496Y2929991D01*
X901496Y2929991D01*
X1028496Y2929991D01*
X1155496Y2929991D01*
X1282496Y2929991D01*
X3377996Y2929991D01*
X3377996Y3818991D01*
X3225596Y3818991D01*
X3225596Y3882491D01*
X3187496Y3882491D01*
X1155496Y5469991D02*
G01*
X1028496Y5469991D01*
X901496Y5469991D02*
G01*
X774496Y5469991D01*
X1282496Y2929991D02*
G01*
X1345996Y2993491D01*
X1409496Y2929991D01*
X1536496Y2929991D02*
G01*
X1599996Y2993491D01*
X1663496Y2929991D01*
X1790496Y2929991D02*
G01*
X1853996Y2993491D01*
X1917496Y2929991D01*
X2044496Y2929991D02*
G01*
X2107996Y2993491D01*
X2171496Y2929991D01*
X2298496Y2929991D02*
G01*
X2361996Y2993491D01*
X2425496Y2929991D01*
X2552496Y2929991D02*
G01*
X2615996Y2993491D01*
X2615996Y3120491D01*
X2552496Y3183991D01*
X2425496Y3183991D01*
X2361996Y3120491D01*
X2298496Y3183991D01*
X2171496Y3183991D01*
X2107996Y3120491D01*
X2044496Y3183991D01*
X1917496Y3183991D01*
X1853996Y3120491D01*
X1790496Y3183991D01*
X1663496Y3183991D01*
X1599996Y3120491D01*
X1536496Y3183991D01*
X1409496Y3183991D01*
X1345996Y3120491D01*
X1282496Y3183991D01*
X1155496Y3183991D01*
X1091996Y3120491D01*
X1028496Y3183991D01*
X901496Y3183991D01*
X837996Y3120491D01*
X774496Y3183991D01*
X647496Y3183991D01*
X583996Y3120491D01*
X583996Y2993491D01*
X647496Y2929991D01*
X774496Y2929991D02*
G01*
X837996Y2993491D01*
X901496Y2929991D01*
X1028496Y2929991D02*
G01*
X1091996Y2993491D01*
X1155496Y2929991D01*
X1282496Y5469991D02*
G01*
X2679496Y5469991D01*
X2679496Y5279491D01*
X2869996Y5279491D01*
X3123996Y5279491D01*
X3377996Y5279491D01*
X3377996Y4707991D01*
X3225596Y4707991D01*
X3225596Y4644491D01*
X3187496Y4644491D01*
X2869996Y5279491D02*
G01*
X2869996Y5406491D01*
X3123996Y5406491D01*
X3123996Y5279491D01*
X3225596Y4644491D02*
G01*
X3314496Y4644491D01*
X3314496Y3882491D01*
X3225596Y3882491D01*
X2679496Y4580991D02*
G01*
X2679496Y4644491D01*
X2742996Y4644491D01*
X2806496Y4644491D02*
G01*
X2869996Y4644491D01*
X2933496Y4644491D02*
G01*
X2996996Y4644491D01*
X3060496Y4644491D02*
G01*
X3123996Y4644491D01*
X2679496Y4517491D02*
G01*
X2679496Y4453991D01*
X2679496Y4390491D02*
G01*
X2679496Y4326991D01*
X2679496Y4263491D02*
G01*
X2679496Y4199991D01*
X2679496Y4136491D02*
G01*
X2679496Y4072991D01*
X2679496Y4009491D02*
G01*
X2679496Y3945991D01*
X2679496Y3882491D02*
G01*
X2742996Y3882491D01*
X2806496Y3882491D02*
G01*
X2869996Y3882491D01*
X2933496Y3882491D02*
G01*
X2996996Y3882491D01*
X3060496Y3882491D02*
G01*
X3123996Y3882491D01*
X-51003Y4987391D02*
G01*
X-76403Y4987391D01*
X-76403Y3412591D01*
X-51003Y3412591D01*
M02*
