G04 Layer: TopSilkscreenLayer*
G04 EasyEDA v6.5.38, 2023-12-02 23:49:31*
G04 f3335789055e47b3961c9cef71cec245,07f4848b7c094117bb63b494a1dfdd33,10*
G04 Gerber Generator version 0.2*
G04 Scale: 100 percent, Rotated: No, Reflected: No *
G04 Dimensions in millimeters *
G04 leading zeros omitted , absolute positions ,4 integer and 5 decimal *
%FSLAX45Y45*%
%MOMM*%

%ADD10C,0.2032*%
%ADD11C,0.1200*%
%ADD12C,0.2000*%
%ADD13C,0.2030*%
%ADD14C,0.2540*%
%ADD15C,0.0105*%

%LPD*%
D10*
X3899992Y5951372D02*
G01*
X3899992Y5808116D01*
X3899992Y5951372D02*
G01*
X3988638Y5951372D01*
X3899992Y5883046D02*
G01*
X3954602Y5883046D01*
X3899992Y5808116D02*
G01*
X3988638Y5808116D01*
X4033596Y5951372D02*
G01*
X4033596Y5808116D01*
X4033596Y5951372D02*
G01*
X4129100Y5808116D01*
X4129100Y5951372D02*
G01*
X4129100Y5808116D01*
X4174058Y5951372D02*
G01*
X4228668Y5808116D01*
X4283278Y5951372D02*
G01*
X4228668Y5808116D01*
X5197741Y5951372D02*
G01*
X5197741Y5808116D01*
X5149989Y5951372D02*
G01*
X5245493Y5951372D01*
X5290451Y5951372D02*
G01*
X5345061Y5808116D01*
X5399417Y5951372D02*
G01*
X5345061Y5808116D01*
X5485523Y5951372D02*
G01*
X5471807Y5944514D01*
X5458091Y5930798D01*
X5451233Y5917336D01*
X5444629Y5896762D01*
X5444629Y5862726D01*
X5451233Y5842152D01*
X5458091Y5828690D01*
X5471807Y5814974D01*
X5485523Y5808116D01*
X5512701Y5808116D01*
X5526417Y5814974D01*
X5539879Y5828690D01*
X5546737Y5842152D01*
X5553595Y5862726D01*
X5553595Y5896762D01*
X5546737Y5917336D01*
X5539879Y5930798D01*
X5526417Y5944514D01*
X5512701Y5951372D01*
X5485523Y5951372D01*
X5700915Y5917336D02*
G01*
X5694057Y5930798D01*
X5680341Y5944514D01*
X5666879Y5951372D01*
X5639447Y5951372D01*
X5625985Y5944514D01*
X5612269Y5930798D01*
X5605411Y5917336D01*
X5598553Y5896762D01*
X5598553Y5862726D01*
X5605411Y5842152D01*
X5612269Y5828690D01*
X5625985Y5814974D01*
X5639447Y5808116D01*
X5666879Y5808116D01*
X5680341Y5814974D01*
X5694057Y5828690D01*
X5700915Y5842152D01*
X6795490Y5930798D02*
G01*
X6781774Y5944514D01*
X6761454Y5951372D01*
X6734022Y5951372D01*
X6713702Y5944514D01*
X6699986Y5930798D01*
X6699986Y5917336D01*
X6706844Y5903620D01*
X6713702Y5896762D01*
X6727164Y5889904D01*
X6768058Y5876442D01*
X6781774Y5869584D01*
X6788632Y5862726D01*
X6795490Y5849010D01*
X6795490Y5828690D01*
X6781774Y5814974D01*
X6761454Y5808116D01*
X6734022Y5808116D01*
X6713702Y5814974D01*
X6699986Y5828690D01*
X6840448Y5951372D02*
G01*
X6840448Y5808116D01*
X6840448Y5951372D02*
G01*
X6935952Y5808116D01*
X6935952Y5951372D02*
G01*
X6935952Y5808116D01*
X6980910Y5951372D02*
G01*
X6980910Y5808116D01*
X6980910Y5951372D02*
G01*
X7028662Y5951372D01*
X7048982Y5944514D01*
X7062698Y5930798D01*
X7069556Y5917336D01*
X7076414Y5896762D01*
X7076414Y5862726D01*
X7069556Y5842152D01*
X7062698Y5828690D01*
X7048982Y5814974D01*
X7028662Y5808116D01*
X6980910Y5808116D01*
X3999991Y2501379D02*
G01*
X3999991Y2399017D01*
X4006850Y2378697D01*
X4020565Y2364981D01*
X4040886Y2358123D01*
X4054602Y2358123D01*
X4074922Y2364981D01*
X4088638Y2378697D01*
X4095495Y2399017D01*
X4095495Y2501379D01*
X4140454Y2501379D02*
G01*
X4195063Y2358123D01*
X4249420Y2501379D02*
G01*
X4195063Y2358123D01*
X6599986Y2501379D02*
G01*
X6599986Y2358123D01*
X6599986Y2501379D02*
G01*
X6661454Y2501379D01*
X6681774Y2494521D01*
X6688632Y2487663D01*
X6695490Y2474201D01*
X6695490Y2453627D01*
X6688632Y2439911D01*
X6681774Y2433053D01*
X6661454Y2426449D01*
X6599986Y2426449D01*
X6740448Y2501379D02*
G01*
X6774484Y2358123D01*
X6808520Y2501379D02*
G01*
X6774484Y2358123D01*
X6808520Y2501379D02*
G01*
X6842810Y2358123D01*
X6876846Y2501379D02*
G01*
X6842810Y2358123D01*
X6921804Y2501379D02*
G01*
X6921804Y2358123D01*
X6921804Y2501379D02*
G01*
X6983272Y2501379D01*
X7003592Y2494521D01*
X7010450Y2487663D01*
X7017308Y2474201D01*
X7017308Y2460485D01*
X7010450Y2446769D01*
X7003592Y2439911D01*
X6983272Y2433053D01*
X6921804Y2433053D01*
X6969556Y2433053D02*
G01*
X7017308Y2358123D01*
X3662641Y5263616D02*
G01*
X3653751Y5254472D01*
X3649179Y5241010D01*
X3649179Y5222722D01*
X3653751Y5209006D01*
X3662641Y5200116D01*
X3671785Y5200116D01*
X3680929Y5204434D01*
X3685501Y5209006D01*
X3690073Y5218150D01*
X3698963Y5245328D01*
X3703535Y5254472D01*
X3708107Y5259044D01*
X3717251Y5263616D01*
X3730967Y5263616D01*
X3740111Y5254472D01*
X3744429Y5241010D01*
X3744429Y5222722D01*
X3740111Y5209006D01*
X3730967Y5200116D01*
X3649179Y5293588D02*
G01*
X3744429Y5293588D01*
X3649179Y5293588D02*
G01*
X3649179Y5325338D01*
X3653751Y5339054D01*
X3662641Y5348198D01*
X3671785Y5352770D01*
X3685501Y5357342D01*
X3708107Y5357342D01*
X3721823Y5352770D01*
X3730967Y5348198D01*
X3740111Y5339054D01*
X3744429Y5325338D01*
X3744429Y5293588D01*
X3649179Y5423636D02*
G01*
X3744429Y5387314D01*
X3649179Y5423636D02*
G01*
X3744429Y5459958D01*
X3712679Y5400776D02*
G01*
X3712679Y5446242D01*
X5112638Y5263616D02*
G01*
X5103749Y5254472D01*
X5099177Y5241010D01*
X5099177Y5222722D01*
X5103749Y5209006D01*
X5112638Y5200116D01*
X5121783Y5200116D01*
X5130927Y5204434D01*
X5135499Y5209006D01*
X5140070Y5218150D01*
X5148961Y5245328D01*
X5153533Y5254472D01*
X5158104Y5259044D01*
X5167249Y5263616D01*
X5180965Y5263616D01*
X5190109Y5254472D01*
X5194427Y5241010D01*
X5194427Y5222722D01*
X5190109Y5209006D01*
X5180965Y5200116D01*
X5099177Y5293588D02*
G01*
X5194427Y5293588D01*
X5099177Y5293588D02*
G01*
X5099177Y5325338D01*
X5103749Y5339054D01*
X5112638Y5348198D01*
X5121783Y5352770D01*
X5135499Y5357342D01*
X5158104Y5357342D01*
X5171820Y5352770D01*
X5180965Y5348198D01*
X5190109Y5339054D01*
X5194427Y5325338D01*
X5194427Y5293588D01*
X5099177Y5423636D02*
G01*
X5194427Y5387314D01*
X5099177Y5423636D02*
G01*
X5194427Y5459958D01*
X5162677Y5400776D02*
G01*
X5162677Y5446242D01*
X3929532Y5265973D02*
G01*
X3920388Y5256829D01*
X3915816Y5243113D01*
X3915816Y5225079D01*
X3920388Y5211363D01*
X3929532Y5202219D01*
X3938676Y5202219D01*
X3947820Y5206791D01*
X3952138Y5211363D01*
X3956710Y5220507D01*
X3965854Y5247685D01*
X3970426Y5256829D01*
X3974998Y5261401D01*
X3984142Y5265973D01*
X3997604Y5265973D01*
X4006748Y5256829D01*
X4011320Y5243113D01*
X4011320Y5225079D01*
X4006748Y5211363D01*
X3997604Y5202219D01*
X3938676Y5364017D02*
G01*
X3929532Y5359445D01*
X3920388Y5350555D01*
X3915816Y5341411D01*
X3915816Y5323123D01*
X3920388Y5313979D01*
X3929532Y5305089D01*
X3938676Y5300517D01*
X3952138Y5295945D01*
X3974998Y5295945D01*
X3988714Y5300517D01*
X3997604Y5305089D01*
X4006748Y5313979D01*
X4011320Y5323123D01*
X4011320Y5341411D01*
X4006748Y5350555D01*
X3997604Y5359445D01*
X3988714Y5364017D01*
X3915816Y5393989D02*
G01*
X4011320Y5393989D01*
X4011320Y5393989D02*
G01*
X4011320Y5448599D01*
X5362712Y5263690D02*
G01*
X5353568Y5254546D01*
X5348996Y5240830D01*
X5348996Y5222796D01*
X5353568Y5209080D01*
X5362712Y5199936D01*
X5371856Y5199936D01*
X5381000Y5204508D01*
X5385318Y5209080D01*
X5389890Y5218224D01*
X5399034Y5245402D01*
X5403606Y5254546D01*
X5408178Y5259118D01*
X5417322Y5263690D01*
X5430784Y5263690D01*
X5439928Y5254546D01*
X5444500Y5240830D01*
X5444500Y5222796D01*
X5439928Y5209080D01*
X5430784Y5199936D01*
X5371856Y5361734D02*
G01*
X5362712Y5357162D01*
X5353568Y5348272D01*
X5348996Y5339128D01*
X5348996Y5320840D01*
X5353568Y5311696D01*
X5362712Y5302806D01*
X5371856Y5298234D01*
X5385318Y5293662D01*
X5408178Y5293662D01*
X5421894Y5298234D01*
X5430784Y5302806D01*
X5439928Y5311696D01*
X5444500Y5320840D01*
X5444500Y5339128D01*
X5439928Y5348272D01*
X5430784Y5357162D01*
X5421894Y5361734D01*
X5348996Y5391706D02*
G01*
X5444500Y5391706D01*
X5444500Y5391706D02*
G01*
X5444500Y5446316D01*
X4192676Y5270545D02*
G01*
X4183532Y5265973D01*
X4174388Y5256829D01*
X4169816Y5247685D01*
X4169816Y5229651D01*
X4174388Y5220507D01*
X4183532Y5211363D01*
X4192676Y5206791D01*
X4206138Y5202219D01*
X4228998Y5202219D01*
X4242714Y5206791D01*
X4251604Y5211363D01*
X4260748Y5220507D01*
X4265320Y5229651D01*
X4265320Y5247685D01*
X4260748Y5256829D01*
X4251604Y5265973D01*
X4242714Y5270545D01*
X4228998Y5270545D01*
X4228998Y5247685D02*
G01*
X4228998Y5270545D01*
X4169816Y5300517D02*
G01*
X4265320Y5300517D01*
X4169816Y5300517D02*
G01*
X4265320Y5364017D01*
X4169816Y5364017D02*
G01*
X4265320Y5364017D01*
X4169816Y5393989D02*
G01*
X4265320Y5393989D01*
X4169816Y5393989D02*
G01*
X4169816Y5425993D01*
X4174388Y5439455D01*
X4183532Y5448599D01*
X4192676Y5453171D01*
X4206138Y5457743D01*
X4228998Y5457743D01*
X4242714Y5453171D01*
X4251604Y5448599D01*
X4260748Y5439455D01*
X4265320Y5425993D01*
X4265320Y5393989D01*
X5621855Y5268262D02*
G01*
X5612711Y5263690D01*
X5603567Y5254546D01*
X5598995Y5245402D01*
X5598995Y5227368D01*
X5603567Y5218224D01*
X5612711Y5209080D01*
X5621855Y5204508D01*
X5635317Y5199936D01*
X5658177Y5199936D01*
X5671893Y5204508D01*
X5680783Y5209080D01*
X5689927Y5218224D01*
X5694499Y5227368D01*
X5694499Y5245402D01*
X5689927Y5254546D01*
X5680783Y5263690D01*
X5671893Y5268262D01*
X5658177Y5268262D01*
X5658177Y5245402D02*
G01*
X5658177Y5268262D01*
X5598995Y5298234D02*
G01*
X5694499Y5298234D01*
X5598995Y5298234D02*
G01*
X5694499Y5361734D01*
X5598995Y5361734D02*
G01*
X5694499Y5361734D01*
X5598995Y5391706D02*
G01*
X5694499Y5391706D01*
X5598995Y5391706D02*
G01*
X5598995Y5423710D01*
X5603567Y5437172D01*
X5612711Y5446316D01*
X5621855Y5450888D01*
X5635317Y5455460D01*
X5658177Y5455460D01*
X5671893Y5450888D01*
X5680783Y5446316D01*
X5689927Y5437172D01*
X5694499Y5423710D01*
X5694499Y5391706D01*
X6771853Y5268262D02*
G01*
X6762709Y5263690D01*
X6753565Y5254546D01*
X6748993Y5245402D01*
X6748993Y5227368D01*
X6753565Y5218224D01*
X6762709Y5209080D01*
X6771853Y5204508D01*
X6785315Y5199936D01*
X6808175Y5199936D01*
X6821891Y5204508D01*
X6830781Y5209080D01*
X6839925Y5218224D01*
X6844497Y5227368D01*
X6844497Y5245402D01*
X6839925Y5254546D01*
X6830781Y5263690D01*
X6821891Y5268262D01*
X6808175Y5268262D01*
X6808175Y5245402D02*
G01*
X6808175Y5268262D01*
X6748993Y5298234D02*
G01*
X6844497Y5298234D01*
X6748993Y5298234D02*
G01*
X6844497Y5361734D01*
X6748993Y5361734D02*
G01*
X6844497Y5361734D01*
X6748993Y5391706D02*
G01*
X6844497Y5391706D01*
X6748993Y5391706D02*
G01*
X6748993Y5423710D01*
X6753565Y5437172D01*
X6762709Y5446316D01*
X6771853Y5450888D01*
X6785315Y5455460D01*
X6808175Y5455460D01*
X6821891Y5450888D01*
X6830781Y5446316D01*
X6839925Y5437172D01*
X6844497Y5423710D01*
X6844497Y5391706D01*
X4071858Y2918266D02*
G01*
X4062714Y2913694D01*
X4053570Y2904550D01*
X4048998Y2895406D01*
X4048998Y2877372D01*
X4053570Y2868228D01*
X4062714Y2859084D01*
X4071858Y2854512D01*
X4085320Y2849940D01*
X4108180Y2849940D01*
X4121896Y2854512D01*
X4130786Y2859084D01*
X4139930Y2868228D01*
X4144502Y2877372D01*
X4144502Y2895406D01*
X4139930Y2904550D01*
X4130786Y2913694D01*
X4121896Y2918266D01*
X4108180Y2918266D01*
X4108180Y2895406D02*
G01*
X4108180Y2918266D01*
X4048998Y2948238D02*
G01*
X4144502Y2948238D01*
X4048998Y2948238D02*
G01*
X4144502Y3011738D01*
X4048998Y3011738D02*
G01*
X4144502Y3011738D01*
X4048998Y3041710D02*
G01*
X4144502Y3041710D01*
X4048998Y3041710D02*
G01*
X4048998Y3073714D01*
X4053570Y3087176D01*
X4062714Y3096320D01*
X4071858Y3100892D01*
X4085320Y3105464D01*
X4108180Y3105464D01*
X4121896Y3100892D01*
X4130786Y3096320D01*
X4139930Y3087176D01*
X4144502Y3073714D01*
X4144502Y3041710D01*
X6821853Y2918266D02*
G01*
X6812709Y2913694D01*
X6803565Y2904550D01*
X6798993Y2895406D01*
X6798993Y2877372D01*
X6803565Y2868228D01*
X6812709Y2859084D01*
X6821853Y2854512D01*
X6835315Y2849940D01*
X6858175Y2849940D01*
X6871891Y2854512D01*
X6880781Y2859084D01*
X6889925Y2868228D01*
X6894497Y2877372D01*
X6894497Y2895406D01*
X6889925Y2904550D01*
X6880781Y2913694D01*
X6871891Y2918266D01*
X6858175Y2918266D01*
X6858175Y2895406D02*
G01*
X6858175Y2918266D01*
X6798993Y2948238D02*
G01*
X6894497Y2948238D01*
X6798993Y2948238D02*
G01*
X6894497Y3011738D01*
X6798993Y3011738D02*
G01*
X6894497Y3011738D01*
X6798993Y3041710D02*
G01*
X6894497Y3041710D01*
X6798993Y3041710D02*
G01*
X6798993Y3073714D01*
X6803565Y3087176D01*
X6812709Y3096320D01*
X6821853Y3100892D01*
X6835315Y3105464D01*
X6858175Y3105464D01*
X6871891Y3100892D01*
X6880781Y3096320D01*
X6889925Y3087176D01*
X6894497Y3073714D01*
X6894497Y3041710D01*
X7049008Y2904464D02*
G01*
X7049008Y2858998D01*
X7089902Y2854426D01*
X7085329Y2858998D01*
X7081011Y2872714D01*
X7081011Y2886430D01*
X7085329Y2899892D01*
X7094474Y2909036D01*
X7108190Y2913608D01*
X7117334Y2913608D01*
X7130795Y2909036D01*
X7139940Y2899892D01*
X7144511Y2886430D01*
X7144511Y2872714D01*
X7139940Y2858998D01*
X7135368Y2854426D01*
X7126224Y2850108D01*
X7049008Y2943580D02*
G01*
X7144511Y2979902D01*
X7049008Y3016478D02*
G01*
X7144511Y2979902D01*
X6998995Y5208955D02*
G01*
X6998995Y5258993D01*
X7035317Y5231815D01*
X7035317Y5245531D01*
X7039889Y5254421D01*
X7044461Y5258993D01*
X7058177Y5263565D01*
X7067321Y5263565D01*
X7080783Y5258993D01*
X7089927Y5250103D01*
X7094499Y5236387D01*
X7094499Y5222671D01*
X7089927Y5208955D01*
X7085355Y5204637D01*
X7076465Y5200065D01*
X6998995Y5293537D02*
G01*
X7094499Y5330113D01*
X6998995Y5366435D02*
G01*
X7094499Y5330113D01*
X6998995Y5405551D02*
G01*
X6998995Y5455335D01*
X7035317Y5428157D01*
X7035317Y5441873D01*
X7039889Y5451017D01*
X7044461Y5455335D01*
X7058177Y5459907D01*
X7067321Y5459907D01*
X7080783Y5455335D01*
X7089927Y5446445D01*
X7094499Y5432729D01*
X7094499Y5419013D01*
X7089927Y5405551D01*
X7085355Y5400979D01*
X7076465Y5396407D01*
X5848997Y5208955D02*
G01*
X5848997Y5258993D01*
X5885319Y5231815D01*
X5885319Y5245531D01*
X5889891Y5254421D01*
X5894463Y5258993D01*
X5908179Y5263565D01*
X5917323Y5263565D01*
X5930785Y5258993D01*
X5939929Y5250103D01*
X5944501Y5236387D01*
X5944501Y5222671D01*
X5939929Y5208955D01*
X5935357Y5204637D01*
X5926467Y5200065D01*
X5848997Y5293537D02*
G01*
X5944501Y5330113D01*
X5848997Y5366435D02*
G01*
X5944501Y5330113D01*
X5848997Y5405551D02*
G01*
X5848997Y5455335D01*
X5885319Y5428157D01*
X5885319Y5441873D01*
X5889891Y5451017D01*
X5894463Y5455335D01*
X5908179Y5459907D01*
X5917323Y5459907D01*
X5930785Y5455335D01*
X5939929Y5446445D01*
X5944501Y5432729D01*
X5944501Y5419013D01*
X5939929Y5405551D01*
X5935357Y5400979D01*
X5926467Y5396407D01*
X4449000Y5208955D02*
G01*
X4449000Y5258993D01*
X4485322Y5231815D01*
X4485322Y5245531D01*
X4489894Y5254421D01*
X4494466Y5258993D01*
X4508182Y5263565D01*
X4517326Y5263565D01*
X4530788Y5258993D01*
X4539932Y5250103D01*
X4544504Y5236387D01*
X4544504Y5222671D01*
X4539932Y5208955D01*
X4535360Y5204637D01*
X4526470Y5200065D01*
X4449000Y5293537D02*
G01*
X4544504Y5330113D01*
X4449000Y5366435D02*
G01*
X4544504Y5330113D01*
X4449000Y5405551D02*
G01*
X4449000Y5455335D01*
X4485322Y5428157D01*
X4485322Y5441873D01*
X4489894Y5451017D01*
X4494466Y5455335D01*
X4508182Y5459907D01*
X4517326Y5459907D01*
X4530788Y5455335D01*
X4539932Y5446445D01*
X4544504Y5432729D01*
X4544504Y5419013D01*
X4539932Y5405551D01*
X4535360Y5400979D01*
X4526470Y5396407D01*
X6512610Y5263692D02*
G01*
X6503720Y5254548D01*
X6499148Y5240832D01*
X6499148Y5222798D01*
X6503720Y5209082D01*
X6512610Y5199938D01*
X6521754Y5199938D01*
X6530898Y5204510D01*
X6535470Y5209082D01*
X6540042Y5218226D01*
X6549186Y5245404D01*
X6553504Y5254548D01*
X6558076Y5259120D01*
X6567220Y5263692D01*
X6580936Y5263692D01*
X6590080Y5254548D01*
X6594652Y5240832D01*
X6594652Y5222798D01*
X6590080Y5209082D01*
X6580936Y5199938D01*
X6499148Y5293664D02*
G01*
X6594652Y5293664D01*
X6521754Y5391708D02*
G01*
X6512610Y5387136D01*
X6503720Y5378246D01*
X6499148Y5369102D01*
X6499148Y5350814D01*
X6503720Y5341924D01*
X6512610Y5332780D01*
X6521754Y5328208D01*
X6535470Y5323636D01*
X6558076Y5323636D01*
X6571792Y5328208D01*
X6580936Y5332780D01*
X6590080Y5341924D01*
X6594652Y5350814D01*
X6594652Y5369102D01*
X6590080Y5378246D01*
X6580936Y5387136D01*
X6571792Y5391708D01*
X6558076Y5391708D01*
X6558076Y5369102D02*
G01*
X6558076Y5391708D01*
X3812616Y2913697D02*
G01*
X3803726Y2904553D01*
X3799154Y2890837D01*
X3799154Y2872803D01*
X3803726Y2859087D01*
X3812616Y2849943D01*
X3821760Y2849943D01*
X3830904Y2854515D01*
X3835476Y2859087D01*
X3840048Y2868231D01*
X3849192Y2895409D01*
X3853510Y2904553D01*
X3858082Y2909125D01*
X3867226Y2913697D01*
X3880942Y2913697D01*
X3890086Y2904553D01*
X3894658Y2890837D01*
X3894658Y2872803D01*
X3890086Y2859087D01*
X3880942Y2849943D01*
X3799154Y2943669D02*
G01*
X3894658Y2943669D01*
X3821760Y3041713D02*
G01*
X3812616Y3037141D01*
X3803726Y3028251D01*
X3799154Y3019107D01*
X3799154Y3000819D01*
X3803726Y2991929D01*
X3812616Y2982785D01*
X3821760Y2978213D01*
X3835476Y2973641D01*
X3858082Y2973641D01*
X3871798Y2978213D01*
X3880942Y2982785D01*
X3890086Y2991929D01*
X3894658Y3000819D01*
X3894658Y3019107D01*
X3890086Y3028251D01*
X3880942Y3037141D01*
X3871798Y3041713D01*
X3858082Y3041713D01*
X3858082Y3019107D02*
G01*
X3858082Y3041713D01*
X6562610Y2913697D02*
G01*
X6553720Y2904553D01*
X6549148Y2890837D01*
X6549148Y2872803D01*
X6553720Y2859087D01*
X6562610Y2849943D01*
X6571754Y2849943D01*
X6580898Y2854515D01*
X6585470Y2859087D01*
X6590042Y2868231D01*
X6599186Y2895409D01*
X6603504Y2904553D01*
X6608076Y2909125D01*
X6617220Y2913697D01*
X6630936Y2913697D01*
X6640080Y2904553D01*
X6644652Y2890837D01*
X6644652Y2872803D01*
X6640080Y2859087D01*
X6630936Y2849943D01*
X6549148Y2943669D02*
G01*
X6644652Y2943669D01*
X6571754Y3041713D02*
G01*
X6562610Y3037141D01*
X6553720Y3028251D01*
X6549148Y3019107D01*
X6549148Y3000819D01*
X6553720Y2991929D01*
X6562610Y2982785D01*
X6571754Y2978213D01*
X6585470Y2973641D01*
X6608076Y2973641D01*
X6621792Y2978213D01*
X6630936Y2982785D01*
X6640080Y2991929D01*
X6644652Y3000819D01*
X6644652Y3019107D01*
X6640080Y3028251D01*
X6630936Y3037141D01*
X6621792Y3041713D01*
X6608076Y3041713D01*
X6608076Y3019107D02*
G01*
X6608076Y3041713D01*
X4299000Y2858960D02*
G01*
X4299000Y2908998D01*
X4335322Y2881820D01*
X4335322Y2895536D01*
X4339894Y2904426D01*
X4344466Y2908998D01*
X4358182Y2913570D01*
X4367326Y2913570D01*
X4380788Y2908998D01*
X4389932Y2900108D01*
X4394504Y2886392D01*
X4394504Y2872676D01*
X4389932Y2858960D01*
X4385360Y2854642D01*
X4376470Y2850070D01*
X4299000Y2943542D02*
G01*
X4394504Y2980118D01*
X4299000Y3016440D02*
G01*
X4394504Y2980118D01*
X4299000Y3055556D02*
G01*
X4299000Y3105340D01*
X4335322Y3078162D01*
X4335322Y3091878D01*
X4339894Y3101022D01*
X4344466Y3105340D01*
X4358182Y3109912D01*
X4367326Y3109912D01*
X4380788Y3105340D01*
X4389932Y3096450D01*
X4394504Y3082734D01*
X4394504Y3069018D01*
X4389932Y3055556D01*
X4385360Y3050984D01*
X4376470Y3046412D01*
D11*
X4612030Y3676992D02*
G01*
X4726584Y3720680D01*
X4612030Y3764368D02*
G01*
X4726584Y3720680D01*
X4612030Y3800182D02*
G01*
X4726584Y3800182D01*
X4612030Y3800182D02*
G01*
X4612030Y3838536D01*
X4617618Y3854792D01*
X4628540Y3865714D01*
X4639462Y3871048D01*
X4655718Y3876636D01*
X4682896Y3876636D01*
X4699406Y3871048D01*
X4710328Y3865714D01*
X4721250Y3854792D01*
X4726584Y3838536D01*
X4726584Y3800182D01*
X4612030Y3912704D02*
G01*
X4726584Y3912704D01*
X4612030Y3912704D02*
G01*
X4612030Y3950804D01*
X4617618Y3967060D01*
X4628540Y3977982D01*
X4639462Y3983570D01*
X4655718Y3988904D01*
X4682896Y3988904D01*
X4699406Y3983570D01*
X4710328Y3977982D01*
X4721250Y3967060D01*
X4726584Y3950804D01*
X4726584Y3912704D01*
X4880762Y3758780D02*
G01*
X4869840Y3753446D01*
X4858918Y3742524D01*
X4853330Y3731602D01*
X4853330Y3709758D01*
X4858918Y3698836D01*
X4869840Y3687914D01*
X4880762Y3682326D01*
X4897018Y3676992D01*
X4924196Y3676992D01*
X4940706Y3682326D01*
X4951628Y3687914D01*
X4962550Y3698836D01*
X4967884Y3709758D01*
X4967884Y3731602D01*
X4962550Y3742524D01*
X4951628Y3753446D01*
X4940706Y3758780D01*
X4924196Y3758780D01*
X4924196Y3731602D02*
G01*
X4924196Y3758780D01*
X4853330Y3794848D02*
G01*
X4967884Y3794848D01*
X4853330Y3794848D02*
G01*
X4967884Y3871048D01*
X4853330Y3871048D02*
G01*
X4967884Y3871048D01*
X4853330Y3907116D02*
G01*
X4967884Y3907116D01*
X4853330Y3907116D02*
G01*
X4853330Y3945470D01*
X4858918Y3961726D01*
X4869840Y3972648D01*
X4880762Y3977982D01*
X4897018Y3983570D01*
X4924196Y3983570D01*
X4940706Y3977982D01*
X4951628Y3972648D01*
X4962550Y3961726D01*
X4967884Y3945470D01*
X4967884Y3907116D01*
X5123840Y3753446D02*
G01*
X5112918Y3742524D01*
X5107330Y3726014D01*
X5107330Y3704170D01*
X5112918Y3687914D01*
X5123840Y3676992D01*
X5134762Y3676992D01*
X5145684Y3682326D01*
X5151018Y3687914D01*
X5156606Y3698836D01*
X5167274Y3731602D01*
X5172862Y3742524D01*
X5178196Y3747858D01*
X5189118Y3753446D01*
X5205628Y3753446D01*
X5216550Y3742524D01*
X5221884Y3726014D01*
X5221884Y3704170D01*
X5216550Y3687914D01*
X5205628Y3676992D01*
X5134762Y3871048D02*
G01*
X5123840Y3865714D01*
X5112918Y3854792D01*
X5107330Y3843870D01*
X5107330Y3822026D01*
X5112918Y3811104D01*
X5123840Y3800182D01*
X5134762Y3794848D01*
X5151018Y3789260D01*
X5178196Y3789260D01*
X5194706Y3794848D01*
X5205628Y3800182D01*
X5216550Y3811104D01*
X5221884Y3822026D01*
X5221884Y3843870D01*
X5216550Y3854792D01*
X5205628Y3865714D01*
X5194706Y3871048D01*
X5107330Y3907116D02*
G01*
X5221884Y3907116D01*
X5221884Y3907116D02*
G01*
X5221884Y3972648D01*
X5615330Y3720680D02*
G01*
X5729884Y3676992D01*
X5615330Y3720680D02*
G01*
X5729884Y3764368D01*
X5691784Y3693248D02*
G01*
X5691784Y3747858D01*
X5615330Y3800182D02*
G01*
X5729884Y3800182D01*
X5615330Y3800182D02*
G01*
X5615330Y3838536D01*
X5620918Y3854792D01*
X5631840Y3865714D01*
X5642762Y3871048D01*
X5659018Y3876636D01*
X5686196Y3876636D01*
X5702706Y3871048D01*
X5713628Y3865714D01*
X5724550Y3854792D01*
X5729884Y3838536D01*
X5729884Y3800182D01*
X5615330Y3912704D02*
G01*
X5729884Y3912704D01*
X5615330Y3912704D02*
G01*
X5615330Y3950804D01*
X5620918Y3967060D01*
X5631840Y3977982D01*
X5642762Y3983570D01*
X5659018Y3988904D01*
X5686196Y3988904D01*
X5702706Y3983570D01*
X5713628Y3977982D01*
X5724550Y3967060D01*
X5729884Y3950804D01*
X5729884Y3912704D01*
X5615330Y4024972D02*
G01*
X5729884Y4024972D01*
X5615330Y4024972D02*
G01*
X5615330Y4073994D01*
X5620918Y4090504D01*
X5626252Y4095838D01*
X5637174Y4101426D01*
X5648096Y4101426D01*
X5659018Y4095838D01*
X5664606Y4090504D01*
X5669940Y4073994D01*
X5669940Y4024972D01*
X5669940Y4063072D02*
G01*
X5729884Y4101426D01*
X5869330Y3720680D02*
G01*
X5983884Y3676992D01*
X5869330Y3720680D02*
G01*
X5983884Y3764368D01*
X5945784Y3693248D02*
G01*
X5945784Y3747858D01*
X5869330Y3800182D02*
G01*
X5983884Y3800182D01*
X5983884Y3800182D02*
G01*
X5983884Y3865714D01*
X5869330Y3901782D02*
G01*
X5983884Y3901782D01*
X5869330Y3901782D02*
G01*
X5869330Y3950804D01*
X5874918Y3967060D01*
X5880252Y3972648D01*
X5891174Y3977982D01*
X5902096Y3977982D01*
X5913018Y3972648D01*
X5918606Y3967060D01*
X5923940Y3950804D01*
X5923940Y3901782D01*
X5923940Y3939882D02*
G01*
X5983884Y3977982D01*
X5869330Y4052150D02*
G01*
X5983884Y4052150D01*
X5869330Y4014050D02*
G01*
X5869330Y4090504D01*
X6110630Y3720680D02*
G01*
X6225184Y3676992D01*
X6110630Y3720680D02*
G01*
X6225184Y3764368D01*
X6187084Y3693248D02*
G01*
X6187084Y3747858D01*
X6110630Y3832948D02*
G01*
X6116218Y3816692D01*
X6132474Y3805770D01*
X6159906Y3800182D01*
X6176162Y3800182D01*
X6203340Y3805770D01*
X6219850Y3816692D01*
X6225184Y3832948D01*
X6225184Y3843870D01*
X6219850Y3860380D01*
X6203340Y3871048D01*
X6176162Y3876636D01*
X6159906Y3876636D01*
X6132474Y3871048D01*
X6116218Y3860380D01*
X6110630Y3843870D01*
X6110630Y3832948D01*
X6364630Y3720680D02*
G01*
X6479184Y3676992D01*
X6364630Y3720680D02*
G01*
X6479184Y3764368D01*
X6441084Y3693248D02*
G01*
X6441084Y3747858D01*
X6386474Y3800182D02*
G01*
X6381140Y3811104D01*
X6364630Y3827614D01*
X6479184Y3827614D01*
X6618630Y3720680D02*
G01*
X6733184Y3676992D01*
X6618630Y3720680D02*
G01*
X6733184Y3764368D01*
X6695084Y3693248D02*
G01*
X6695084Y3747858D01*
X6646062Y3805770D02*
G01*
X6640474Y3805770D01*
X6629552Y3811104D01*
X6624218Y3816692D01*
X6618630Y3827614D01*
X6618630Y3849458D01*
X6624218Y3860380D01*
X6629552Y3865714D01*
X6640474Y3871048D01*
X6651396Y3871048D01*
X6662318Y3865714D01*
X6678574Y3854792D01*
X6733184Y3800182D01*
X6733184Y3876636D01*
X6872630Y3720680D02*
G01*
X6987184Y3676992D01*
X6872630Y3720680D02*
G01*
X6987184Y3764368D01*
X6949084Y3693248D02*
G01*
X6949084Y3747858D01*
X6872630Y3811104D02*
G01*
X6872630Y3871048D01*
X6916318Y3838536D01*
X6916318Y3854792D01*
X6921906Y3865714D01*
X6927240Y3871048D01*
X6943496Y3876636D01*
X6954418Y3876636D01*
X6970928Y3871048D01*
X6981850Y3860380D01*
X6987184Y3843870D01*
X6987184Y3827614D01*
X6981850Y3811104D01*
X6976262Y3805770D01*
X6965340Y3800182D01*
X5365140Y3753446D02*
G01*
X5354218Y3742524D01*
X5348630Y3726014D01*
X5348630Y3704170D01*
X5354218Y3687914D01*
X5365140Y3676992D01*
X5376062Y3676992D01*
X5386984Y3682326D01*
X5392318Y3687914D01*
X5397906Y3698836D01*
X5408574Y3731602D01*
X5414162Y3742524D01*
X5419496Y3747858D01*
X5430418Y3753446D01*
X5446928Y3753446D01*
X5457850Y3742524D01*
X5463184Y3726014D01*
X5463184Y3704170D01*
X5457850Y3687914D01*
X5446928Y3676992D01*
X5348630Y3789260D02*
G01*
X5463184Y3789260D01*
X5348630Y3789260D02*
G01*
X5348630Y3827614D01*
X5354218Y3843870D01*
X5365140Y3854792D01*
X5376062Y3860380D01*
X5392318Y3865714D01*
X5419496Y3865714D01*
X5436006Y3860380D01*
X5446928Y3854792D01*
X5457850Y3843870D01*
X5463184Y3827614D01*
X5463184Y3789260D01*
X5348630Y3945470D02*
G01*
X5463184Y3901782D01*
X5348630Y3945470D02*
G01*
X5463184Y3988904D01*
X5425084Y3918038D02*
G01*
X5425084Y3972648D01*
D12*
X5313832Y4628222D02*
G01*
X5241188Y4437214D01*
X5313832Y4628222D02*
G01*
X5386730Y4437214D01*
X5268366Y4500714D02*
G01*
X5359298Y4500714D01*
X5446674Y4628222D02*
G01*
X5446674Y4437214D01*
X5446674Y4628222D02*
G01*
X5510174Y4628222D01*
X5537606Y4619078D01*
X5555640Y4600790D01*
X5564784Y4582756D01*
X5573928Y4555324D01*
X5573928Y4509858D01*
X5564784Y4482680D01*
X5555640Y4464392D01*
X5537606Y4446358D01*
X5510174Y4437214D01*
X5446674Y4437214D01*
X5761126Y4600790D02*
G01*
X5743092Y4619078D01*
X5715660Y4628222D01*
X5679338Y4628222D01*
X5652160Y4619078D01*
X5633872Y4600790D01*
X5633872Y4582756D01*
X5643016Y4564468D01*
X5652160Y4555324D01*
X5670194Y4546180D01*
X5724804Y4528146D01*
X5743092Y4519002D01*
X5751982Y4509858D01*
X5761126Y4491824D01*
X5761126Y4464392D01*
X5743092Y4446358D01*
X5715660Y4437214D01*
X5679338Y4437214D01*
X5652160Y4446358D01*
X5633872Y4464392D01*
X5821070Y4591646D02*
G01*
X5839358Y4600790D01*
X5866536Y4628222D01*
X5866536Y4437214D01*
X5926734Y4591646D02*
G01*
X5944768Y4600790D01*
X5972200Y4628222D01*
X5972200Y4437214D01*
X6032144Y4591646D02*
G01*
X6050178Y4600790D01*
X6077610Y4628222D01*
X6077610Y4437214D01*
X6246520Y4628222D02*
G01*
X6155842Y4628222D01*
X6146698Y4546180D01*
X6155842Y4555324D01*
X6183020Y4564468D01*
X6210198Y4564468D01*
X6237630Y4555324D01*
X6255664Y4537290D01*
X6264808Y4509858D01*
X6264808Y4491824D01*
X6255664Y4464392D01*
X6237630Y4446358D01*
X6210198Y4437214D01*
X6183020Y4437214D01*
X6155842Y4446358D01*
X6146698Y4455502D01*
X6137554Y4473536D01*
D10*
X6976986Y2826994D02*
G01*
X7230986Y2826994D01*
X7230986Y2575534D01*
X6468986Y2575534D01*
X6468986Y2826994D01*
X6976986Y2826994D01*
X4226991Y2826994D02*
G01*
X4480991Y2826994D01*
X4480991Y2575534D01*
X3718991Y2575534D01*
X3718991Y2826994D01*
X4226991Y2826994D01*
X6926986Y5726988D02*
G01*
X7180986Y5726988D01*
X7180986Y5475528D01*
X6418986Y5475528D01*
X6418986Y5726988D01*
X6926986Y5726988D01*
X4607991Y5726988D02*
G01*
X4607991Y5472988D01*
X3591991Y5472988D01*
X3591991Y5726988D01*
X3782491Y5726988D01*
D13*
X4607991Y5726988D02*
G01*
X3782491Y5726988D01*
D10*
X6021481Y5726988D02*
G01*
X6021481Y5472988D01*
X5005481Y5472988D01*
X5005481Y5726988D01*
X5195981Y5726988D01*
D13*
X6021481Y5726988D02*
G01*
X5195981Y5726988D01*
D14*
X4372279Y5087683D02*
G01*
X7202271Y5087683D01*
X7202271Y3307676D01*
X4372279Y3307676D01*
X4372279Y5087683D01*
M02*
