G04 Layer: BottomLayer*
G04 EasyEDA v6.5.38, 2023-12-02 23:49:31*
G04 f3335789055e47b3961c9cef71cec245,07f4848b7c094117bb63b494a1dfdd33,10*
G04 Gerber Generator version 0.2*
G04 Scale: 100 percent, Rotated: No, Reflected: No *
G04 Dimensions in millimeters *
G04 leading zeros omitted , absolute positions ,4 integer and 5 decimal *
%FSLAX45Y45*%
%MOMM*%

%ADD10C,0.7000*%
%ADD11C,1.5080*%
%ADD12R,1.5748X1.5748*%
%ADD13C,1.5748*%
%ADD14C,1.5240*%
%ADD15C,0.6100*%

%LPD*%
D10*
X5164990Y3550003D02*
G01*
X5387545Y3772557D01*
X5387545Y5598919D01*
X5386478Y5599986D01*
X5164990Y3550003D02*
G01*
X5022928Y3407940D01*
X4591865Y3407940D01*
X3972994Y4026811D01*
X3972994Y5571131D01*
X3972994Y5571131D02*
G01*
X3972994Y5599986D01*
X3972994Y5571131D02*
G01*
X3972994Y5581444D01*
X3820543Y5733895D01*
X3593391Y5733895D01*
X1218999Y3359503D01*
X1218999Y3056989D01*
X6434990Y3550003D02*
G01*
X6434990Y3009770D01*
X6595976Y2848785D01*
X6595976Y2699992D02*
G01*
X6595976Y2848785D01*
X5894478Y5599986D02*
G01*
X6044389Y5749897D01*
X6904078Y5749897D01*
X7053988Y5599986D01*
X4480994Y5599986D02*
G01*
X4630905Y5749897D01*
X5744568Y5749897D01*
X5894478Y5599986D01*
X4353994Y2699992D02*
G01*
X3845994Y3207992D01*
X3845994Y5459498D01*
X3845994Y2699992D02*
G01*
X3980969Y2565016D01*
X5196004Y2565016D01*
X6180990Y3550003D01*
X1218999Y5342989D02*
G01*
X1074092Y5487896D01*
X855906Y5487896D01*
X710999Y5342989D01*
X5640478Y5599986D02*
G01*
X5776419Y5464045D01*
X6664048Y5464045D01*
X6799988Y5599986D01*
X4226994Y5599986D02*
G01*
X4910990Y4915989D01*
X4910990Y3550003D01*
X4099994Y2699992D02*
G01*
X3965069Y2834916D01*
X2457071Y2834916D01*
X2234999Y3056989D01*
X6799988Y5599986D02*
G01*
X7075909Y5324066D01*
X7075909Y3311446D01*
X7075909Y3311446D02*
G01*
X7075909Y2925925D01*
X6849976Y2699992D01*
X3718994Y5451193D02*
G01*
X1472999Y3205198D01*
X1472999Y3056989D01*
X3718994Y5599986D02*
G01*
X3718994Y5451193D01*
X5132478Y5599986D02*
G01*
X5132478Y4007101D01*
X5297401Y3842179D01*
D11*
G01*
X2488996Y3056991D03*
G01*
X2488996Y5342991D03*
G01*
X710996Y3056991D03*
G01*
X964996Y3056991D03*
G01*
X1218996Y3056991D03*
G01*
X1472996Y3056991D03*
G01*
X1726996Y3056991D03*
G01*
X1980996Y3056991D03*
G01*
X2234996Y3056991D03*
G01*
X710996Y5342991D03*
G01*
X964996Y5342991D03*
G01*
X1218996Y5342991D03*
G01*
X1472996Y5342991D03*
G01*
X1726996Y5342991D03*
G01*
X1980996Y5342991D03*
G01*
X2234996Y5342991D03*
D12*
G01*
X6595973Y2699994D03*
D13*
G01*
X6849999Y2699994D03*
G01*
X7103999Y2699994D03*
D12*
G01*
X3845991Y2699994D03*
D13*
G01*
X4099991Y2699994D03*
G01*
X4353991Y2699994D03*
D12*
G01*
X6545986Y5599988D03*
D13*
G01*
X6799986Y5599988D03*
G01*
X7053986Y5599988D03*
D12*
G01*
X3718991Y5599988D03*
D13*
G01*
X3972991Y5599988D03*
G01*
X4226991Y5599988D03*
G01*
X4480991Y5599988D03*
D12*
G01*
X5132476Y5599988D03*
D13*
G01*
X5386476Y5599988D03*
G01*
X5640476Y5599988D03*
G01*
X5894476Y5599988D03*
D14*
G01*
X4656988Y3549980D03*
G01*
X4910988Y3549980D03*
G01*
X5164988Y3549980D03*
G01*
X5418988Y3549980D03*
G01*
X5672988Y3549980D03*
G01*
X5926988Y3549980D03*
G01*
X6180988Y3549980D03*
G01*
X6434988Y3549980D03*
G01*
X6688988Y3549980D03*
G01*
X6942988Y3549980D03*
D15*
G01*
X5297398Y3842181D03*
G01*
X7075906Y3311448D03*
G01*
X3845991Y5459501D03*
M02*
