<?xml version="1.0" encoding="utf-8"?>
<!-- Generator: Adobe Illustrator 28.0.0, SVG Export Plug-In . SVG Version: 6.00 Build 0)  -->
<svg version="1.0" id="Ebene_9" xmlns="http://www.w3.org/2000/svg" xmlns:xlink="http://www.w3.org/1999/xlink" x="0px" y="0px"
	 viewBox="0 0 841.89 595.28" style="enable-background:new 0 0 841.89 595.28;" xml:space="preserve">
<style type="text/css">
	.st0{fill:#1D1D1B;}
</style>
<path class="st0" d="M421.48,288.73c0,0,2.21-3.56,17.89-5.71c1.4-0.11,7.18,1.41,7.18,1.41s14.24,4.17,15.11,3.96
	c-0.16-0.55-0.12-1.15-3.12-2.52c-3-1.37-2.75-8.29,3.39-12.5c2.07-1.76,9.19-5.92,18.46-8.54c3.25-1.48,10.45-4.07,12.85-5.85
	c2.4-1.78,5.56-3.91,7.08-11.67c-1.07-4.88-1.2-8.95-4.57-17.11c-1.23-3.64-2.46-6.04-1.85-6.38s2.69,2.34,4.04,4.2
	c1.35,1.85,5.23,7.02,5.67,7.42c0.44,0.39,1.04,2.6,2.04,3.35c0.2,0.47,0.43,2.35,0.77,3.01c-0.13,0.16-0.79,1.1-2.81-1.64
	c-0.54-0.67-3.18-0.21-1.74,2.28c0.41,0.89,1.27,4.64,1.89,5.6c0.62,0.96,2.19,6.31,3.1,7.3c0.3,0.39,1.35,2.01,0.52,6.08
	c0.1,3.51,0.08,5.67,0.32,6.83c-0.02,0.79-0.11,4.57-4.25,8.22c-1.04,1.14-2.78,2.87-4.36,3.64c-1.57,0.77-5.34,3.03-6.99,3.6
	c-1.66,0.57-11.25,5.35-14.63,4.47c-0.81,0.13-1.41,0.89-1.48,2.18c-0.03,0.25,0.37,0.67-1.31,0.56c-1.04,0-1.94,3.46-2.82,4.34
	s-0.34,2.13-5.49-0.73c-1.47-0.62-1.95-2.01-7.24-1.5c-0.67,0.07-2.88,0.75-2.51-1.46c0.25-0.7,1.78-0.78,2.71-0.68
	c0.81,0.1,0.07-1.28-1.06-1.03c-1.18-0.05-9.01,0.34-12.14,0.18c-3.13-0.16-13.75-0.62-14.36-0.94c0.25-0.29,3.01,0.73,5.68-2.47
	c0.14-0.5,2.32-1.18,2.78-1.63C439.41,285,431.8,285.06,421.48,288.73z"/>
<path class="st0" d="M515.54,258.24c0,0,1.93,7.72,1.98,9.54c0.05,1.82,0.18,7.83-0.38,11.04c-0.33,2.77-0.22,6.19-0.31,7.15
	c-0.09,0.96-0.28,1.32-0.28,1.32s-0.45-5.23-0.15-7.27c0.31-2.04,0.01-2.68-0.64-3.77c-0.65-1.09-1.04-6.26-1.74-7.86
	c-0.58-1.83-1.28-3.68-0.39-4.2c0.61-0.39,1.04-0.12,1.57,0.73c0.53,0.85,0.99,1.39,1.4,1.43
	C516.5,264.99,515.01,259.51,515.54,258.24z"/>
<path class="st0" d="M396.09,253.23c0,0,0.69,2.6,11.31,3.48c10.62,0.88,19.39,0.61,19.39,0.61s-0.15-0.34-1.34-0.48
	c-1.19-0.13-10.36-0.78-10.75-0.8c-0.39-0.02-1.76,0.44-1.51-2.99c0.53-1.25,3.48-6.05,2.33-6.5s-2.32-0.24-4.62,3.01
	c-0.84,1.12-3,1.64-3.37,2.3c-0.37,0.66-0.66,2.41-0.98,2.47c-0.32,0.06-1.02-0.27-3.72,0.55c-1.52-0.21-0.87,0.3-2.57-0.9
	C398.55,252.79,397.56,254.08,396.09,253.23z"/>
<path class="st0" d="M407.06,227.67c0,0-0.42-3.14,1.62-3.47c2.04-0.33,5.83-1.24,7.28-1.62c1.45-0.38,6.15-0.97,8.49-0.74
	c0.76,0.09,1.98-0.04,2.28,2.26c0.3,2.29,0.35,4.8-2.33,7.07c0.63-1.42,2.66-6.56,0.41-8.41c-0.79-0.13-4.27,0.25-5.56,0.09
	c-1.32,0.18-3.78,0.37-6.45,2.79c-0.5,0.51-0.98,1.12-1.95,1.25c-0.53,0.02-0.82,0.14-1,0.76c-0.18,0.62-0.35,2.92-0.26,3.56
	c0.02,0.25,0.04,0.48-0.25,0.57S407.06,231.78,407.06,227.67z"/>
<circle class="st0" cx="418.51" cy="227.76" r="3.5"/>
<path class="st0" d="M408.99,216.62c0,0,6.83-0.76,9.23-1.01s7.44-0.07,8.17,1.14s0.98,2.08,0.34,3.53
	c-0.14-1.19-0.04-2.62-2.08-3.19s-5.56-0.98-9.21-0.57S410.35,216.81,408.99,216.62z"/>
<path class="st0" d="M522.75,234.11c4.5-12.33-1.91-21.28-9.78-24.37c-5.56-2.19-12.59,2.4-15.69,4.77
	c-3.54-12.32-11.39-35.88-28.63-90.09c-23.53-73.97-22.59-71.72-32.34-71.91S391.59,178.97,384,204.38
	c-1.23,4.1-2.07,7.4-2.63,10.09c-3.58-2.57-9.69-3.58-12.84-3.95l-0.26-0.02c-0.42-0.01-10.27,0.01-15.5,10.78
	c-5.1,10.51,7.91,28.99,9.41,31.06l0.04,0.05c-0.07,0.26-0.13,0.5-0.17,0.73c-1.5,7.97-4.78,44.34,0.75,59.81s3.84,12.28,5.72,14.34
	s4.85,5.44,9.19,9.84c2.89,2.94,3.59,3.15,12,8.06c3.21,1.88,9.47,5.39,14.44,9c5.7,4.14,17.77,6.21,27.09,7.23
	c1.73,0.34,3.29,0.62,3.88,0.67c0,0,1.41,0.02,3.62,0c3.04,0.21,4.98,0.27,4.98,0.27s2.7-0.03,6.94-0.74
	c3.45-0.26,6.85-0.66,9.42-1.28c8.25-1.97,23.11-5.81,26.62-8.95s24.42-21.77,26.25-24.06c1.83-2.29,6.66-17.71,6.52-21.79
	c-0.06-1.69-0.33-2.71-0.62-3.32c0.87-7.12,1.16-16.47-0.32-28.84c-0.38-9.84-2.06-22.59-3.56-25.78c-0.13-0.27-0.34-0.74-0.61-1.35
	C516.83,244.75,520.08,241.44,522.75,234.11z M460.88,216.13c9.76,2.16,10.27,4.24,10.88,5.61s2.25,3.72-2.88,4.18
	c-4.48-1.37-5.63-2.78-7.25-3.49c-1.62-0.7-5.81-2.06-7.72-2.24s-4.08-2.36-3.46-3.36C450.46,216.84,449.95,213.87,460.88,216.13z
	 M460.53,223.55c1.08,0.39,1.8,0.97,3.08,1.89c1.27,0.92,3.36,3.51,2.99,4.73c-0.69,0.46-0.49,1.37-7.98-0.63
	C458.62,229.53,462.58,228.14,460.53,223.55z M454.55,228.19c-2.24-0.56-3.99-2.7-3.88-4.01c0.45-2.58,4.73-1.88,5.34-1.85
	C451.98,224.83,454.55,228.19,454.55,228.19z M514.36,267.92c-0.05,4.95-0.32,15.83-0.87,17.13c-0.52,1.24-2.62,1.03-0.08,14.12
	c-0.53-0.24-0.97-0.53-1.11-0.87c-0.28-0.68-1.24-0.89-1.94,0.14c-0.15,0.53-0.25,0.81,0.67,1.46c0.17,0.45-0.11,0.83-0.75,1.28
	s-2.72,1.99-2.72,1.99s2.1-0.84,2.85-0.53c0.76,0.31-0.42,1.48-0.69,1.71s-1.19,1.54-3.79,0.75c-0.05-0.2,0.56-1.29,0.11-1.44
	c-0.45-0.14-2.4,0.35-4.16-1.19c-1.76-1.54-4.26-2.52-5.82-2.71c-1.56-0.19-4.91-0.13-6.67,5.14c-0.34,0.73-0.89,3.23-0.36,4.85
	c-0.11,0.25-0.81,1.14-0.81,5.4c-0.13,1.19-0.47,3.54-0.19,4.74s1.12,3.39,1.67,4.16c0.56,0.77,1.46,2.68,1.4,4.07
	s-0.2,2.85,0.79,4.48c0.46,0.77,1.43,2.04-0.25,2.39s-3.41,0.96-4.24-0.42s-0.9-1.93-1.2-1.72s-1.35,0.51-2.16-1.64
	s-2.55-5.76-2.7-6.46c-0.15-0.7-1.38-4.18-0.83-6.5c0.55-2.32-1.55-9.95-1.73-10.69c-0.18-0.74-1.31-5.73-3.49-8.21
	c-2.18-2.48-2.14-2.59-2.66-2.5c-0.52,0.09-1.54-0.24-2.46,4.5c-0.91,4.74,0.18,4.53,0.07,5.43s-0.97,4.08-1.17,5.4
	s0.08,3.4,0.24,4.6c0.16,1.2,1.48,3.37,0.31,5.79c-0.28,1.1-0.27,9.41,0.13,12.05s1.08,5.41,2.15,8.02c0.46,1.95,0.81,5.1-1.23,7.19
	c-0.09,0.15-0.22,0.37-0.29,0.59c-0.44,0.18-0.87,0.35-1.29,0.5c-0.81,0.29-1.65,0.57-2.5,0.85c0.14-0.42,0.14-0.84,0-1.41
	c-0.34-1.38-1.03-2.13-0.96-3.44s-2.32-5.02-2.46-6.35s0.14-4.02-0.33-4.48s-2.16-2.9-2.29-4.69s-0.84-11.03-0.72-12.99
	s-0.37-7.81-2.24-9.68s-3.07-0.49-4.34,1.75s-2.52,7.24-2.27,9.74s1.07,10.76,1.09,12.01c0.02,1.25,0.14,8.99,0.25,10.88
	s0.94,7.01-0.28,9.26s-1.08,2.92-1.43,3.16c-0.01,0-0.03,0.02-0.03,0.02c-7.49,1.22-14.9,1.67-20.66,1.01
	c-9.48-1.75-16.78-3.06-21.7-5.49s-6.38-6.12-7.7-6.66c-0.64-0.26-2.84-0.79-5.29-1.79c0.2-0.44,0.36-1.03,0.48-1.65
	c0.25-1.25-0.18-1.93-0.86-1.83s-1.21,1.49-1.21,1.49c-0.12,0.47-0.16,0.87-0.16,1.22c-2.07-1.02-4.1-2.4-5.33-4.27
	c-3.05-4.63-4.29-3.78-8.98-5.31c0,0-3.05-2.61-3.97-4.59s-6.06-4.36-8.43-7.6c-2.37-3.24-4.06-14.18-3.74-16.64
	c0,0,0.91-6.7,1.09-9.98c0.18-3.28-0.91-6.14-0.93-9.02c-0.02-2.88,1.41-3.64-1.07-10.61c-0.87-4.52-1.05-4.79,0.23-10.88
	c-0.48-2.88-0.34-7.96,0.77-12.08c0-1.64,2.55-3.06,1.36-5.13c-0.11,0.17-0.22,0.35-0.33,0.52c-0.52-0.82-1.06-1.73-1.62-2.7
	c-2.08-2.38-5.72-7.52-5.76-14.34c-0.35-2.23-0.28-4.25,0.48-5.81c0.29-0.6,0.6-1.14,0.92-1.65c0.23-0.6,0.48-1.2,0.77-1.82
	c1.44-2.93,5.16-7.22,12.41-4.99c0.89,0.46,2.05,1.2,3.43,1.91c1.35,0.42,2.47,0.88,3.24,1.31c1.88,0.55,4.02,0.77,6.39,0.21
	c6.12-0.98,20.38-3.85,34.46-4.28s13.66-1.62,25.86-0.46c-0.63,0.24-7.18,1.06-7.18,1.06s0.38,0.86,0.1,1.72
	c-0.27,0.86,0.27,1.97,1.86,3.04c0.43,1.35-0.21,3.46-0.19,6.39c0.02,2.93,0.43,11.42,0.61,12.32c0.18,0.9-0.59,4.14-2.14,6.12
	c-1.07,1.71-3.51,5.98-2.62,12.34c0.27,0.56,0.37,1,0.03,1.62c-0.33,0.62-0.54,0.81-0.21,1.16c0.32,0.35,1.44,1.18-0.82,1.18
	c0.89,0.46,3.68,2.1,5.8,1.49c2.11-0.61,5.25-1.62,7.73-1.99s8.09-2.02,8.63-2.03s1.81,0.12,2.25-0.19
	c0.28-0.04,1.38,0.49,1.44-1.18c0.1-0.28,0.41-0.37,1.58-0.45c1.17-0.08,1.98-0.1,4.8-0.88c-0.02-0.28,0.01-0.4-0.52-0.7
	c-0.53-0.29-0.4-0.33-0.39-0.4c0.43-0.06,2.92-0.17,2.92-0.17s-0.63-0.48-2.92-0.35c-2.29,0.13-7.19,2.26-7.19,2.26
	s-6.78,2.99-9.22,3.31c-0.64,0.18-1.79,0.12-1.79,0.12s0.12-0.47,2.09-0.87c2.06-0.73,3.79-1.54,4.97-2.12s4.95-2.53,8.44-3.06
	s6.04-0.62,7.32-0.63c1.27-0.01,5.15,0.23,7.13-1.31c1.98-1.53,5.4-2.98,7.29-8.6c0.39-1.66,0.93-8.9-1.23-18.1
	c-0.43-2.09-1.54-5.07-1.55-5.32c-0.01-0.25,0.07-0.78,0.48-0.83c0.4-0.05,0.7-0.25,0.66-0.5c-0.04-0.25,0.07-0.37-1.6-0.74
	c-0.26-0.12-1.48-1.1,0.11-1.19s5.69,0.06,8.72,0.56s4.13,0.54,9.71,10.75c5.58,10.21,9.3,16.57,10.48,19.68
	C511.53,250.29,514.4,262.97,514.36,267.92z M512.28,241.63c-3.21-7.09-8.41-18.27-11.65-23.19l-0.07-0.15
	c3-2.22,7.88-4.99,10.59-3.92c4.38,1.73,10.76,7.46,6.91,18.01C515.99,238.06,513.76,240.55,512.28,241.63z"/>
</svg>
